   <svg data-name="scene" version="1.1" viewBox="0 0 500 600">

 <defs>
    <linearGradient id="grad1" x1="0%" y1="0%" x2="0%" y2="100%">
      <stop offset="0%" style="stop-color:red;stop-opacity:1" />
      <stop offset="100%" style="stop-color:black;stop-opacity:1" />
    </linearGradient>
  </defs>

                    <!-- Left -->
                    <!-- <path class="color" d="M 50 100 L 287 100 Q 287 250 287 300 L 287 600 L 50 600 L 50 100 "
                        fill="url(#grad1)"> -->

                        <path class="color" d="M 275 0 L 0 0 L 0 600 L 275 600 L 275 300 Q 275 150 275 0  "   fill="red">  

                        <!-- <animate attributeName="d"
                            from="M 50 100 L 287 100 Q 287 250 287 300 L 287 600 L 50 600 L 50 100  " 
                            to="M 50 100 L 213 100 Q 200 250 100 300 L 175 600 L 50 600 L 50 100  " dur="3s"
                            repeatCount="1" fill="freeze"> -->

                            <animate attributeName="d"
                            from="M 275 0 L 0 0 L 0 600 L 275 600 L 275 300 Q 275 150 275 0  " 
                            to="M 200 0 L 0 0 L 0 600 L 175 600 L 50 300 Q 175 200 175 0   " dur="3s"
                            repeatCount="1" fill="freeze">
                              
                    </path>

                    <!-- Right -->
                    <!-- <path class="color" d="M 300 100 L 500 100 Q 500 250 500 600 L 262 600 L 262 300 Q 262 250 262 100"
                        fill="red"> -->

 <path class="color" d=" M 275 0 L 550 0 L 550 600 L 275 600 L 275 300 Q 275 150 275 0  "
                        fill="red">
                       
                        <animate attributeName="d"
                            from="M 275 0 L 550 0 L 550 600 L 275 600 L 275 300 Q 275 150 275 0   "
                            to="M 300 0 L 550 0 L 550 600 L 350 600 L 450 300 Q 350 200 350 0   " dur="3s"
                            repeatCount="1" fill="freeze" />

                            
                    </path>
                </svg>