<svg id="Layer_3" data-name="Layer 3" xmlns="http://www.w3.org/2000/svg" viewBox="0 0 500 100"><title>Artboard 1</title><path d="M250,53c-34-19.23-59.82-20.54-77.38-18C137.81,40.14,104.84,65,69.48,65.71a71.44,71.44,0,0,1-31.66-8.17c-5.25-2.79-9.92-6.24-11.75-11.75-.3-.91-2.46-7.27.94-11a10.9,10.9,0,0,1,4.42-2.3c2.44-.69,6.29.84,6.64,3.58.27,2.1-1.65,4.67-4.85,5.36" fill="none" stroke="#d5af34" stroke-miterlimit="10" stroke-width="2"/><path d="M210.27,28.83c-5.32-2.17-8.12-7-7.17-10.93s5.19-5.41,6.37-5.87c5.9-2.27,11.42.85,12.5,1.5a16.86,16.86,0,0,1,7.46,10.7,19.79,19.79,0,0,1-.7,10.6,24.48,24.48,0,0,1-5,9.17c-3.68,4.07-7.64,5.73-12.17,7.56a53.31,53.31,0,0,1-20,4.27A44.48,44.48,0,0,1,173.9,53a33.28,33.28,0,0,1-13.48-8.72c-2.7-3-5.9-6.49-6.21-11.68-.34-5.57,2.67-12.83,7.91-13.76,3.6-.65,8.87,1.92,9.12,6,.18,2.95-2.35,6.14-6.29,7.2" fill="none" stroke="#d5af34" stroke-miterlimit="10" stroke-width="2"/><path d="M250,53c34-19.23,59.82-20.54,77.38-18C362.19,40.14,395.16,65,430.52,65.71a71.44,71.44,0,0,0,31.66-8.17c5.25-2.79,9.92-6.24,11.75-11.75.3-.91,2.46-7.27-.94-11a10.9,10.9,0,0,0-4.42-2.3c-2.44-.69-6.29.84-6.64,3.58-.27,2.1,1.65,4.67,4.85,5.36" fill="none" stroke="#d5af34" stroke-miterlimit="10" stroke-width="2"/><path d="M289.73,28.83c5.32-2.17,8.12-7,7.17-10.93s-5.19-5.41-6.37-5.87c-5.9-2.27-11.42.85-12.5,1.5a16.86,16.86,0,0,0-7.46,10.7,19.79,19.79,0,0,0,.7,10.6,24.48,24.48,0,0,0,5,9.17c3.68,4.07,7.64,5.73,12.17,7.56a53.31,53.31,0,0,0,20,4.27A44.48,44.48,0,0,0,326.1,53a33.28,33.28,0,0,0,13.48-8.72c2.7-3,5.9-6.49,6.21-11.68.34-5.57-2.67-12.83-7.91-13.76-3.6-.65-8.87,1.92-9.12,6-.18,2.95,2.35,6.14,6.29,7.2" fill="none" stroke="#d5af34" stroke-miterlimit="10" stroke-width="2"/><ellipse cx="250.69" cy="55.4" rx="5.28" ry="7.37" fill="#d5af34"/></svg>