<svg xmlns="http://www.w3.org/2000/svg" viewBox="0 0 465.02 725.83"><title>Artboard 10</title><g id="model"><path d="M231.54,662.36C211.59,648,214,645.78,214,645.78,228.15,596.25,225.27,577,225.27,577c-22-53.1-22.62-163-22.62-163C165.5,270.19,191,234.76,191,234.76a169.59,169.59,0,0,1,14.27,15.08,168.47,168.47,0,0,1,14.62,20.35s4.13,96.3.69,141.71c0,0,9.63,121.07,10.31,154.77,0,0,10.32,63.91,5.51,79.8Z" fill="#bb895b"/><path d="M241.92,256.26a10.84,10.84,0,0,0,6.59-2,11.79,11.79,0,0,0,2.58-3.07c1.49-1.94,5.08-3.64,14.51-2.17,0,0,17.43,46.52-22,145.25,0,0-4,8.84-3.38,34.52,0,0,4.29,56.87,5.21,69.71,0,0,6.42,24.76-.92,56.86,0,0-2.58,47.7,5.13,57.79,0,0,4.05,24.76,6.8,36.69,0,0,.91,4.58-11,12.84H229.83l-5.5-8.26L230.75,599l.91-28c-4.31-19.55-8.18-40.73-11.23-63.41a772.81,772.81,0,0,1-6.66-83.27q1.46-13.68,2.76-27.71c1.68-18.26,2.62-31.41,3.21-39.32C219.74,357.27,227.14,257.21,241.92,256.26Z" fill="#c49a6c"/><path d="M255,174c-2.58,28.87-12,44.41-12,44.41H222l-10.7-5.49L208.25,173" fill="#afc8d8"/><polyline points="237.64 137.51 237.64 132.47 249.56 129.26" fill="none" stroke="#231f20" stroke-miterlimit="10"/><polyline points="227.78 137.51 226.5 132.01 207.36 132.01" fill="none" stroke="#231f20" stroke-miterlimit="10"/><path d="M245.39,215.13s14.72,13.56,19.53,32.82c0,0-22.35,15.82-32.5,22H218.51s-16.18-17.2-27.88-32.33c0,0,3.78-14.45,20.46-26.14C211.09,211.49,243.3,218.15,245.39,215.13Z" fill="#afc8d8"/><path d="M224.43,102.68s4.13,21.47-12.38,23.33c0,0-8.94,15.81-8.94,31.54l21.78,9.29,31.87-4.57s11-39.49,6.19-36.26l-11-4.33s-8.26,6.4-11-16.4c0,0-3.44,10.42-12.38,0" fill="#c49a6c"/><line x1="229.26" y1="106.07" x2="225.04" y2="104.28" fill="#c49a6c"/><path d="M238.35,105.18,243,118.44c1.53,2.86,9.58,2.53,16.81,2.07a16.87,16.87,0,0,1,9.69,2.4s7,0,6.12,21.4c0,0,4.58,40.06,6.42,71.7,0,0,7.56,12.83,13.76,58.24s0,3.44,0,3.44,13.07,27.51,12.38,39.89c0,0,2.75,21.33-4.82,22A97.08,97.08,0,0,1,297.46,327q-.91-2.39-1.66-4.65.57-3,.92-6.42a73.29,73.29,0,0,0-.09-14.9s-24.08-41.49-25.45-83c0,0-8.94-19.5-11.7-38.76s0-3.44,0-3.44q-.6-9.63-1.22-19.26l-5.76,2.22" fill="#c3996c"/><path d="M225.09,100.53v13.64s-3.67,12.53-19.27,11.92c0,0-18.65-4.58-17.42,8.56s-.06,1.53-.06,1.53,2.43,63.21,7.24,67.34c0,0-16.51,53.66-14.44,77.73,0,0-4.13,6.88-7.57,12.38a19.6,19.6,0,0,0,0,9.63s1.07,13.3,8.41,22.17a2.17,2.17,0,0,0,3.36,0s-.24-43.8-2.75-43.11l24.69-69.86s.68-42.65-4.13-57.09l58-1.32" fill="#c3996c"/><path d="M247.81,176.59c9.92.15,13.16-2,14.15-4.08.62-.93,5.42-8.33,2.46-16.78-.33-.95-2.19-6.25-6.86-8.73-6.6-3.51-17.38,0-25.24,9.65-5.77-9.12-17.06-11.15-23.62-6.43-4.72,3.41-6.85,10.23-5.27,17,.66,1.54,1.69,3.8,3.14,6.44,1.36,2.47,2.05,3.72,2.81,4.35,1.84,1.53,3.6,1.32,10.1,2.05,2.28.26,4.12.52,5.28.69" fill="#afc8d8"/><polyline points="226.88 134.51 225.6 129.01 206.46 129.01" fill="none" stroke="#231f20" stroke-miterlimit="10" stroke-width="0.5"/><polyline points="238.6 133.14 238.6 128.09 250.52 124.88" fill="none" stroke="#231f20" stroke-miterlimit="10" stroke-width="0.5"/><path d="M233,50.17s-20.64-2.75-14.22,39c0,0,2.75,16.51,14.22,22,0,0,10.09-2.29,14.67-19.26,0,0,11.47-30.8-12.38-41.77" fill="#c49a6c" stroke="#000" stroke-miterlimit="10" stroke-width="0.25"/><line x1="232.09" y1="50.13" x2="235.81" y2="50.33" fill="#c49a6c" stroke="#000" stroke-miterlimit="10" stroke-width="0.25"/></g><g id="_2000" data-name="2000"><path d="M254.25,636.24c.08,0,.06.4.05.42s.27,2.17.82,6.2c.39,2.8.9,6,1.29,8.31a32.34,32.34,0,0,1-11.05,11.53H229.77l-5.5-8.26,2-17.52a14.22,14.22,0,0,0,6.78,13.38c5.67,3.39,12.72,2.05,16.26-1.35C253.74,644.71,253.88,636.16,254.25,636.24Z"/><path d="M217,633.56c.41.07-1.46,6.58,1.57,9.43,1.78,1.68,4.71,1.55,7.13,1.08a25,25,0,0,1,0,4.24,24.37,24.37,0,0,1-1.39,6.13l3.33,5.11c-2.27-1.5-7.19-5.85-7.62-6.16-2.82-1.74-5.81-5.44-6.18-7.29C215.93,636.05,216.71,633.51,217,633.56Z" fill="#525454"/><path d="M218.38,122.85s6.92,2.38,13.26,2,14.82-4.54,14.82-4.54c1.83.21,3.82.36,5.94.41,2.71.06,6.27-.21,7.44-.24a15.21,15.21,0,0,1,8.05,1.53,8.16,8.16,0,0,1,6.34,5.85,32.3,32.3,0,0,1,1.16,5.21,38.75,38.75,0,0,1,.29,3.92c.07,1.83.1,4.31,0,7.29l-12.82,8s2.47,5,2.55,6.53a24.1,24.1,0,0,1-1,8.54c-1.06,3.24-3,6.52-3.79,6.94a22.45,22.45,0,0,1-2.77,1.23,22.19,22.19,0,0,1-2.93.82,129,129,0,0,1-3.11,17.95,130.56,130.56,0,0,1-7.13,21l-33.58-3.86L208.56,177l-4-7.25s-2-4-1.69-7.53a31.73,31.73,0,0,1,1.06-5.57l-14.86-4.6-.77-15.91c-.09-.45-.85-4.6,1.22-7.39a8.2,8.2,0,0,1,2.2-2,7,7,0,0,1,2.35-.86,11,11,0,0,1,5.67-.6c.9,0,1.84.12,2.83.22s1.95.24,2.86.38l7.45-.58Z" fill="#fbe8da"/><path d="M210,212.25l-3.73,2.95-10.61,30L183,282.56V331.7l4.15,60.45,10.4,22.53,1.48,62.9,8.67,80.47,8.42,27.12-5.79,53.77c1.55,1.68,2.74,1.94,3.52,1.89,2-.13,2.69-2.42,5.35-3.41a7.43,7.43,0,0,1,4.21-.18q2.5-26.79,5-53.57L215,462.22l2.05-102.76,9.08-88.41Z" fill="#90aab9"/><path d="M211.09,211.49l34.06,3.86,10.4,12.09L265.6,249,268.05,260l1.38,18.82s-.43,14.28-.47,14.75-.09,23.73-.09,23.73l-3.95,40.06s-7.28,28.08-7.86,28.94-8.4,28.37-8.4,28.37a337.46,337.46,0,0,1,6.83,56.63c.41,12.41,0,20.52.37,44,.26,15.15.73,27.61,1.09,36q-.45,18.6-.89,37.2C268,632.69,267.41,646.08,263.2,648c-2.69,1.19-5.6-2.87-13.8-2.49-6.92.32-9.49,3.42-16.06,3.1a22.69,22.69,0,0,1-10.54-3.35c0-.48.06-1,.1-1.42q2.1-30.33,5.49-60.12l-7.14-59.81-6-46.72-1.52-79.74,3.29-40.17,2.7-43.15L226.3,270Z" fill="#afc8d8"/><path d="M215.91,134.76l16.35,14.76,16.69-15,14.11,18.26s2.4,4.37,2.36,7.17a20.85,20.85,0,0,1-1.41,8.51q-.88,1.86-1.86,3.75c-.4.79-.81,1.57-1.22,2.33q4.26,38.26,8.5,76.54,2.07,53.15,4.12,106.31A53.09,53.09,0,0,1,253,368.57c-11.89,3.26-15.28-.67-24.88,2.79C216.06,375.72,215.67,384,203,391.11c-5.83,3.25-14.05,6.11-25.57,6.06q2.58-57.42,5.17-114.85l23.87-67.55-.63-41.48c-.33-1-.65-2-1-3q-.89-2.64-1.78-5.21c-.64-2.44.91-8.39.91-8.39Z" fill="#d4b1d3" opacity="0.88"/><polygon points="212.26 125.42 215.54 135.45 216.67 135.17 213.35 125.15 212.26 125.42" fill="#d4b1d3"/><polygon points="250.28 120.67 248.27 134.89 249.56 135.18 251.28 120.71 250.28 120.67" fill="#d4b1d3"/><path d="M249.27,86c3.48-9,3.09-17.74.4-23.37a29.59,29.59,0,0,0-6.48-8.54,24.55,24.55,0,0,0-3.26-2.38A21.23,21.23,0,0,0,236.22,50a12,12,0,0,0-8.29-.06,11.25,11.25,0,0,0-5.79,5.19C218.3,63.73,247.5,84.74,249.27,86Z" fill="#8e5222"/><path d="M221.88,56a24,24,0,0,0-6.25,10.5,23.09,23.09,0,0,0-.22,12.3c.64,3.17,1.65,8.21,1.65,8.21l1.8,3.64,1.35-20.39,3.41-12.77Z" fill="#8e5222"/><path d="M223.12,55.69a16.41,16.41,0,0,0-10,.09,17,17,0,0,0-8.07,6c-1,1.3-4.43,5.82-4.07,11.87A20.4,20.4,0,0,0,202.6,80a50.2,50.2,0,0,0,5.09,10.11,39.76,39.76,0,0,1,2.76-20.33,40.6,40.6,0,0,1,11.79-11.48Z" fill="#8e5222"/><path d="M222.45,58.86a7.82,7.82,0,0,0-7.68-.91c-3.75,1.48-6.32,5.11-7.59,7a35.43,35.43,0,0,0-5.93,14.81,40.89,40.89,0,0,0-.23,8.22,85.49,85.49,0,0,0,1.48,13.48,86.68,86.68,0,0,1,2.79-14.33,82.41,82.41,0,0,1,4.15-11.46,60.23,60.23,0,0,1,5.74-7.81,44.52,44.52,0,0,1,6-5.72Z" fill="#8e5222"/><path d="M214.67,67.34A4.67,4.67,0,0,0,211,68.52,7.49,7.49,0,0,0,209,72.46a11.78,11.78,0,0,0,.17,6.4,13.72,13.72,0,0,0,1.48,3,29.5,29.5,0,0,0,3.26,4.49,28,28,0,0,1-1.5-5.62,27.6,27.6,0,0,1-.33-4.87,22.41,22.41,0,0,1,1.09-3.88,17.78,17.78,0,0,1,1.59-3.19Z" fill="#8e5222"/></g></svg>