<svg xmlns="http://www.w3.org/2000/svg" viewBox="0 0 465.02 725.83"><title>Artboard 11</title><g id="model"><path d="M231.54,662.36C211.59,648,214,645.78,214,645.78,228.15,596.25,225.27,577,225.27,577c-22-53.1-22.62-163-22.62-163C165.5,270.19,191,234.76,191,234.76a169.59,169.59,0,0,1,14.27,15.08,168.47,168.47,0,0,1,14.62,20.35s4.13,96.3.69,141.71c0,0,9.63,121.07,10.31,154.77,0,0,10.32,63.91,5.51,79.8Z" fill="#bb895b"/><path d="M241.92,256.26a10.84,10.84,0,0,0,6.59-2,11.79,11.79,0,0,0,2.58-3.07c1.49-1.94,5.08-3.64,14.51-2.17,0,0,17.43,46.52-22,145.25,0,0-4,8.84-3.38,34.52,0,0,4.29,56.87,5.21,69.71,0,0,6.42,24.76-.92,56.86,0,0-2.58,47.7,5.13,57.79,0,0,4.05,24.76,6.8,36.69,0,0,.91,4.58-11,12.84H229.83l-5.5-8.26L230.75,599l.91-28c-4.31-19.55-8.18-40.73-11.23-63.41a772.81,772.81,0,0,1-6.66-83.27q1.46-13.68,2.76-27.71c1.68-18.26,2.62-31.41,3.21-39.32C219.74,357.27,227.14,257.21,241.92,256.26Z" fill="#c49a6c"/><path d="M255,174c-2.58,28.87-12,44.41-12,44.41H222l-10.7-5.49L208.25,173" fill="#afc8d8"/><polyline points="237.64 137.51 237.64 132.47 249.56 129.26" fill="none" stroke="#231f20" stroke-miterlimit="10"/><polyline points="227.78 137.51 226.5 132.01 207.36 132.01" fill="none" stroke="#231f20" stroke-miterlimit="10"/><path d="M245.39,215.13s14.72,13.56,19.53,32.82c0,0-22.35,15.82-32.5,22H218.51s-16.18-17.2-27.88-32.33c0,0,3.78-14.45,20.46-26.14C211.09,211.49,243.3,218.15,245.39,215.13Z" fill="#afc8d8"/><path d="M224.43,102.68s4.13,21.47-12.38,23.33c0,0-8.94,15.81-8.94,31.54l21.78,9.29,31.87-4.57s11-39.49,6.19-36.26l-11-4.33s-8.26,6.4-11-16.4c0,0-3.44,10.42-12.38,0" fill="#c49a6c"/><line x1="229.26" y1="106.07" x2="225.04" y2="104.28" fill="#c49a6c"/><path d="M238.35,105.18,243,118.44c1.53,2.86,9.58,2.53,16.81,2.07a16.87,16.87,0,0,1,9.69,2.4s7,0,6.12,21.4c0,0,4.58,40.06,6.42,71.7,0,0,7.56,12.83,13.76,58.24s0,3.44,0,3.44,13.07,27.51,12.38,39.89c0,0,2.75,21.33-4.82,22A97.08,97.08,0,0,1,297.46,327q-.91-2.39-1.66-4.65.57-3,.92-6.42a73.29,73.29,0,0,0-.09-14.9s-24.08-41.49-25.45-83c0,0-8.94-19.5-11.7-38.76s0-3.44,0-3.44q-.6-9.63-1.22-19.26l-5.76,2.22" fill="#c3996c"/><path d="M225.09,100.53v13.64s-3.67,12.53-19.27,11.92c0,0-18.65-4.58-17.42,8.56s-.06,1.53-.06,1.53,2.43,63.21,7.24,67.34c0,0-16.51,53.66-14.44,77.73,0,0-4.13,6.88-7.57,12.38a19.6,19.6,0,0,0,0,9.63s1.07,13.3,8.41,22.17a2.17,2.17,0,0,0,3.36,0s-.24-43.8-2.75-43.11l24.69-69.86s.68-42.65-4.13-57.09l58-1.32" fill="#c3996c"/><path d="M247.81,176.59c9.92.15,13.16-2,14.15-4.08.62-.93,5.42-8.33,2.46-16.78-.33-.95-2.19-6.25-6.86-8.73-6.6-3.51-17.38,0-25.24,9.65-5.77-9.12-17.06-11.15-23.62-6.43-4.72,3.41-6.85,10.23-5.27,17,.66,1.54,1.69,3.8,3.14,6.44,1.36,2.47,2.05,3.72,2.81,4.35,1.84,1.53,3.6,1.32,10.1,2.05,2.28.26,4.12.52,5.28.69" fill="#afc8d8"/><polyline points="226.88 134.51 225.6 129.01 206.46 129.01" fill="none" stroke="#231f20" stroke-miterlimit="10" stroke-width="0.5"/><polyline points="238.6 133.14 238.6 128.09 250.52 124.88" fill="none" stroke="#231f20" stroke-miterlimit="10" stroke-width="0.5"/><path d="M233,50.17s-20.64-2.75-14.22,39c0,0,2.75,16.51,14.22,22,0,0,10.09-2.29,14.67-19.26,0,0,11.47-30.8-12.38-41.77" fill="#c49a6c" stroke="#000" stroke-miterlimit="10" stroke-width="0.25"/><line x1="232.09" y1="50.13" x2="235.81" y2="50.33" fill="#c49a6c" stroke="#000" stroke-miterlimit="10" stroke-width="0.25"/></g><g id="_2010" data-name="2010"><path d="M210.69,211.49l34.3,3.64L264.52,248l4,46-4.82,33.88c-1.22,6.74-2.78,13.94-4.81,21.5a261.34,261.34,0,0,1-9.78,29.33q-3.69,10.42-7.4,20.83-.39,14.71-.8,29.44,1.19,16.69,2.36,33.37.65,8.84,1.31,17.67.71,9.49,1.44,19c.59,3.94,1.23,9.06,1.62,15.08.17,2.71.45,7.16.35,12.4-.28,15.39-3.61,29.14-3.88,29.1,0,0,0,0,0-.12l.09,25.08.9,18.75,4.29,14.85H228.59l3.51-41.55c-1.54-6.1-3-12.45-4.4-19q-2.26-10.77-3.9-20.87-4.16-33.86-8.33-67.71l-2.11-40.58L217,386.25l4.81-55.47L232,270Z" fill="#353535" opacity="0.52"/><path d="M210.69,211.49l-4.79,3.71-10.31,29.16-13.14,37.2,3,49.54,9.94,54.61L202.24,414l1.44,39.23,4.14,47.26,6.25,39.3L225,577.85l-1.15,28.48-2.46,7.73,7.36-1.39q2.47-20.73,5-41.46A286.47,286.47,0,0,1,226.22,538c-1.2-7.42-1.4-10.49-3.15-26.64-3.71-34.32-4.36-34.84-5.44-49-.71-9.27-1.63-21.68-1.43-37.52.26-21.53,2.37-21.18,4-55.86.94-20,1-32.25.94-38.13s-.07-10.54-.36-19.44l-1.35-41.23L232,270Z" fill="#353535" opacity="0.52"/><path d="M221,120.71a18.12,18.12,0,0,1-2.64,2.16,18.64,18.64,0,0,1-2.86,1.6l-4.94,1.38-5.74,0-5.57-.75-5.23.6-3.56,1.94-1.85,2.92c-.26,2-.47,4.11-.59,6.39-.14,2.73-.13,5.27,0,7.61q.41,6.13.94,12.44.8,9.28,1.81,18.15s.48,23,4.88,28.35c-.93,2.31-9.09,34.63-9.09,34.63l-4.62,22.55-1,15.94a2.22,2.22,0,0,0,.17,2,2.15,2.15,0,0,0,2.62.59l23.61-66.81c.11-7.08.05-14.5-.23-22.21-.22-6.07-.57-11.94-1-17.6l2.52,4.38,2.53,34.46,34,3.61L251,197.66,255,176.18l3.87-1,3.58,18.37,8.7,24.56q.46,7.62.94,15.24,3.21,13.66,6.43,27.33c1.82,5.67,4.07,11.79,6.85,18.22A198.54,198.54,0,0,0,295.49,299l7.95-2.83-6.95-17.06q-2.4-17-4.81-33.94A100.3,100.3,0,0,0,282.07,216c-.3-9.54-.92-19.53-1.93-29.94q-.74-7.62-1.69-14.88l-2.55-27.31c0-1.24,0-2.52-.08-3.84-.07-1.64-.17-3.22-.31-4.74a21.24,21.24,0,0,0-.46-4,20.36,20.36,0,0,0-.94-3.16,9.69,9.69,0,0,0-1.3-2.75,9.45,9.45,0,0,0-1.48-1.67,10,10,0,0,0-2.2-1.4,9.86,9.86,0,0,0-2.31-.72,16.67,16.67,0,0,0-5.2-1.1l-7.8.3a44,44,0,0,1-4.6-.18c-1.23-.11-2.39-.26-3.47-.43L231.64,127Z" fill="#e0862b"/><path d="M221,120.53a4.63,4.63,0,0,0-1.57,3.56c.14,1.52,1.25,2.44,2.36,3.35s2.94,2.41,5.47,2.13a6.7,6.7,0,0,0,4.36-2.59Z" fill="#f3eae3"/><path d="M245.56,120.12,231.64,127a9,9,0,0,0,6.14,2.59,8.82,8.82,0,0,0,5.4-1.87,5,5,0,0,0,3.52-4.22A4.78,4.78,0,0,0,245.56,120.12Z" fill="#f3eae3"/><path d="M211.09,211.49l34.3,3.64q2.21,2.38,4.39,5.1a105.43,105.43,0,0,1,12.2,19L265.6,249h0A245.89,245.89,0,0,1,277,280.53c5.34,18.57,10.93,43.9,8.89,49.54s-8.09,6.06-14.4,6.44c-9.52.59-12.23-6.21-22.36-7-11.11-.85-12.39,7-24.86,7-11.38,0-12.63-6.49-22.81-5.22-9.47,1.18-12.64,7.35-19.51,5.91-5.24-1.11-10.93-3.91-10.93-9.8s1.33-5.37,2.31-9.24c5.13-20.42,7.7-30.63,9.24-35.86l13.41-38s9.59-28.73,10.31-29.16S211.09,211.49,211.09,211.49Z" fill="#1b1a1c"/><polygon points="210.04 247.6 195.31 332.97 204.32 331.15 210.04 247.6"/><polygon points="241.6 227.7 256.18 331.27 246.01 329.52 241.6 227.7"/><path d="M222.87,576q-2.58,28.82-5.15,57.61l23.88,2-8.84-59.41Z"/><path d="M211.65,656.06h29.89s9.61-25.65-13.6-28.75S211.65,656.06,211.65,656.06Z" fill="#282828"/><path d="M233.25,570.94l-6.15,69L254.85,643l-9.75-71.78Z"/><path d="M225.15,663.57h29.49s9.48-26.38-13.42-29.58S225.15,663.57,225.15,663.57Z" fill="#303030"/><path d="M220.66,57.8l27.9,30.94c1.54-4.32,4.07-13.51,1-23.73-1.07-3.56-3-9.87-8.83-13.53A13.64,13.64,0,0,0,233,49C225.31,49.26,221,57.2,220.66,57.8Z" fill="#4d2610"/><path d="M243.89,45.26a5.32,5.32,0,0,1-1.63,3.41c-3,3.27-7.84,3.13-9.57,3.08-2.26-.06-6.89-.19-8.61-3.25a6.41,6.41,0,0,1-.65-3.65,5.81,5.81,0,0,1,1.87-3.73c1.8-1.41,3.45,0,8.2-.08,4.49-.07,5.72-1.36,7.75-.17A5.23,5.23,0,0,1,243.89,45.26Z" fill="#4d2610"/><path d="M222.41,56l-2.76,36.87s-4.18-7.91-4-20.94C217.06,59.78,222.41,56,222.41,56Z" fill="#4d2610"/></g></svg>