<svg id="Layer_1" data-name="Layer 1" xmlns="http://www.w3.org/2000/svg" xmlns:xlink="http://www.w3.org/1999/xlink" width="465.02" height="725.83" viewBox="0 0 465.02 725.83">
  <defs>
    <radialGradient id="Brass_Radial" data-name="Brass Radial" cx="214.95" cy="659.18" r="40.44" gradientUnits="userSpaceOnUse">
      <stop offset="0.18" stop-color="#f4e8d9"/>
      <stop offset="0.59" stop-color="#edd089"/>
      <stop offset="1" stop-color="#c08329"/>
    </radialGradient>
    <radialGradient id="Brass_Radial-2" cx="230" cy="667.43" r="36.41" xlink:href="#Brass_Radial"/>
  </defs>
  <title>Artboard 9</title>
  <path d="M221,713.86c-19.95-14.38-17.52-16.58-17.52-16.58,14.12-49.53,11.25-68.79,11.25-68.79-22.05-53.1-22.62-163-22.62-163-37.15-143.77-11.7-179.2-11.7-179.2a171,171,0,0,1,14.28,15.08c6,7.17,18.74,116.66,15.3,162.06,0,0,9.63,121.07,10.32,154.77,0,0,10.32,63.91,5.5,79.8Z" style="fill: #bb895b"/>
  <path d="M210.57,450.05c2-48.56-1.44-128.36-1.44-128.36a169.26,169.26,0,0,0-14.62-20.35,171,171,0,0,0-14.27-15.08s-23.49,32.79,7.68,163C195.47,449.49,203,450,210.57,450.05Z" style="fill: #231f20;stroke: #231f20;stroke-miterlimit: 10;stroke-width: 0.25px"/>
  <g>
    <path d="M231.32,307.76a10.88,10.88,0,0,0,6.59-2,12.43,12.43,0,0,0,2.59-3.07c1.49-2,5.08-3.65,14.51-2.18,0,0,17.42,46.53-22,145.25,0,0-4,8.84-3.37,34.52,0,0,4.29,56.87,5.21,69.71,0,0,6.42,24.76-.92,56.87,0,0-2.59,47.69,5.13,57.78,0,0,4,24.76,6.79,36.69,0,0,.92,4.58-11,12.84h-15.6l-5.5-8.26,6.42-55.49.92-28c-4.31-19.55-8.18-40.73-11.24-63.4a775.76,775.76,0,0,1-6.66-83.28q1.47-13.68,2.76-27.7c1.69-18.27,2.63-31.42,3.22-39.33C209.15,408.77,216.54,308.71,231.32,307.76Z" style="fill: #c49a6c"/>
    <path d="M233.08,446.6a6.12,6.12,0,0,1,.23-.61c39.44-98.73,22-145.25,22-145.25-9.42-1.47-13,.23-14.5,2.17a12.08,12.08,0,0,1-2.59,3.07,10.88,10.88,0,0,1-6.59,2c-14.78.95-22.17,101-22.17,101-.56,7.56-1.45,19.93-3,37C215.1,444,224.4,444.57,233.08,446.6Z" style="fill: #231f20;stroke: #231f20;stroke-miterlimit: 10;stroke-width: 0.25px"/>
  </g>
  <path d="M237.17,273.46S251.88,287,256.7,306.28c0,0-22.36,15.82-32.51,22h-13.9S194.1,311.1,182.4,296c0,0,3.78-14.44,20.47-26.14C202.87,269.82,235.08,276.48,237.17,273.46Z" style="fill: #231f20;stroke: #231f20;stroke-miterlimit: 10;stroke-width: 0.25px"/>
  <g>
    <path d="M250.57,196.59s-2.89-9-6.14-20.58a27.67,27.67,0,0,1-.62-2.85c-2.16-12.68.62-35.9.62-35.9C255,93.93,221,93.93,221,93.93c-20.35-5.51-24.27,43.33-24.27,43.33s-7.27,44.35-2.65,59.33l60.66.58" style="fill: #231f20;stroke: #231f20;stroke-miterlimit: 10;stroke-width: 0.5px"/>
    <path d="M244.43,225.52c-2.57,28.87-12,44.41-12,44.41H211.41l-10.7-5.49q-1.53-20-3.05-39.9" style="fill: #afc8d8"/>
    <polyline points="227.04 189.01 227.04 183.97 238.97 180.76" style="fill: none;stroke: #231f20;stroke-miterlimit: 10"/>
    <polyline points="217.18 189.01 215.9 183.51 196.77 183.51" style="fill: none;stroke: #231f20;stroke-miterlimit: 10"/>
    <g>
      <path d="M213.84,154.18s4.12,21.47-12.39,23.34c0,0-8.94,15.8-8.94,31.53l21.78,9.29,31.88-4.57s11-39.49,6.19-36.25l-11-4.33s-8.25,6.39-11-16.41c0,0-3.44,10.42-12.39,0" style="fill: #c49a6c"/>
      <line x1="218.66" y1="157.58" x2="214.44" y2="155.78" style="fill: #c49a6c"/>
    </g>
    <path d="M227.75,156.68q2.35,6.63,4.69,13.27c1.53,2.85,9.57,2.52,16.8,2.06a17,17,0,0,1,9.7,2.4s7,0,6.11,21.4c0,0,4.59,40.06,6.42,71.7,0,0,7.57,12.84,13.76,58.24s0,3.44,0,3.44,13.07,27.51,12.38,39.9c0,0,2.75,21.32-4.81,22a95.77,95.77,0,0,1-5.93-12.56c-.62-1.58-1.17-3.13-1.67-4.65.38-2,.7-4.14.92-6.42a72.65,72.65,0,0,0-.08-14.9s-24.08-41.49-25.46-83c0,0-8.94-19.5-11.69-38.76s0-3.44,0-3.44q-.62-9.63-1.22-19.26l-5.77,2.22" style="fill: #c3996c"/>
    <path d="M214.49,152v13.64s-3.67,12.54-19.26,11.92c0,0-18.65-4.58-17.43,8.57s-.05,1.52-.05,1.52S180.17,250.89,185,255c0,0-16.51,53.66-14.45,77.73,0,0-4.13,6.88-7.56,12.39a19.59,19.59,0,0,0,0,9.63s1.07,13.3,8.4,22.16a2.17,2.17,0,0,0,3.37,0s-.24-43.8-2.76-43.11L196.68,264s.69-42.65-4.13-57.09l58-1.32" style="fill: #c3996c"/>
    <path d="M237.21,228.1c9.93.14,13.17-2,14.15-4.09.62-.92,5.43-8.33,2.47-16.78-.33-.95-2.2-6.25-6.87-8.73-6.59-3.5-17.37,0-25.23,9.65C216,199,204.67,197,198.11,201.73c-4.73,3.41-6.85,10.22-5.27,17a69.56,69.56,0,0,0,3.14,6.44c1.36,2.48,2.05,3.73,2.8,4.35,1.85,1.54,3.6,1.32,10.11,2.06,2.28.25,4.12.51,5.27.68" style="fill: #afc8d8"/>
    <polyline points="216.28 186.01 215 180.51 195.87 180.51" style="fill: none;stroke: #231f20;stroke-miterlimit: 10;stroke-width: 0.5px"/>
    <polyline points="228.01 184.64 228.01 179.59 239.93 176.38" style="fill: none;stroke: #231f20;stroke-miterlimit: 10;stroke-width: 0.5px"/>
    <g>
      <path d="M222.38,101.67s-20.64-2.75-14.22,39c0,0,2.75,16.51,14.22,22,0,0,10.08-2.29,14.67-19.26,0,0,11.47-30.8-12.38-41.77" style="fill: #c49a6c;stroke: #000;stroke-miterlimit: 10;stroke-width: 0.25px"/>
      <line x1="221.49" y1="101.63" x2="225.22" y2="101.84" style="fill: #c49a6c;stroke: #000;stroke-miterlimit: 10;stroke-width: 0.25px"/>
    </g>
    <path d="M178.38,181.55a154.48,154.48,0,0,1,16.54,5.85c5,2.08,9.44,4.26,13.46,6.43a54.44,54.44,0,0,0,21.26.55c18.19-3.21,29.26-15,32.85-19.2C297.44,294.1,295.57,326,285.73,330.79a10.48,10.48,0,0,1-7,.61c-11.89-3.35-10.85-29.53-19.84-65.91a292,292,0,0,0-10.23-32.85c2-11.86,4-23.86,4-23.86l-.07.43c-.47,2.73-3,17.68-3.66,21.6-1.55,9.8-2.63,24.43-.16,44.95C262,304.14,261,314.26,257,318c-2.27,2.1-6.23,2.8-14.22,8.26a82.06,82.06,0,0,0-8.25,6.42,37.78,37.78,0,0,0-8.26,3.21,37.12,37.12,0,0,0-5,3.21c-19.65,13.4-38.55,17.31-45.86,10.09-6.16-6.08-3.36-19.29-1.23-29.35,3-13.89,6.4-13.1,13.62-34A151.06,151.06,0,0,0,196,248.08a103.52,103.52,0,0,0,.34-10.75c-.21-12.5-3.28-27.78-3.32-27.77h0c0,.41,2.7,25.31,4,37.46A180.47,180.47,0,0,1,185.9,293c-5.14,13.14-13.45,29.52-13.29,29.59s1.54-2.75,1.52-2.75h0a8.71,8.71,0,0,1-3.4.61Z" style="fill: #fff;stroke: #231f20;stroke-miterlimit: 10;stroke-width: 0.5px"/>
  </g>
  <path d="M239,664.67c-7.72-10.09-5.13-57.78-5.13-57.78a140,140,0,0,0,2.48-14.27c-6.77,1.12-14.41.27-21.33-.34,1.86,10.45,3.88,20.54,6,30.2l-.92,28-6.42,55.49,5.5,8.26h15.6c11.92-8.26,11-12.84,11-12.84C243.08,689.43,239,664.67,239,664.67Z" style="fill: #fff;stroke: #231f20;stroke-miterlimit: 10;stroke-width: 0.25px"/>
  <path d="M218.86,587.44a154.78,154.78,0,0,1-15.55.75c3,14.95,6.69,28.93,11.41,40.3,0,0,2.87,19.26-11.25,68.79,0,0-2.43,2.2,17.52,16.58L225.8,698c4.82-15.89-5.5-79.8-5.5-79.8C220.16,611.12,219.62,600.24,218.86,587.44Z" style="fill: #fff;stroke: #231f20;stroke-miterlimit: 10;stroke-width: 0.25px"/>
  <line x1="233.51" y1="645.8" x2="247.65" y2="679.7" style="fill: none;stroke: #231f20;stroke-miterlimit: 10;stroke-width: 2px"/>
  <path d="M219.46,603.85a88.6,88.6,0,0,0-12.84.69,176.59,176.59,0,0,0,7.82,24.29s2.87,19.26-11.25,68.79c0,0-2.43,2.2,17.51,16.58l4.82-15.89c4.82-15.89-5.5-79.8-5.5-79.8C219.94,614.66,219.74,609.67,219.46,603.85Z" style="fill: #231f20;stroke-miterlimit: 10;stroke: url(#Brass_Radial)"/>
  <path d="M246.05,702.85c-2.75-11.93-6.8-36.69-6.8-36.69-5.37-7-5.74-32.25-5.48-46.95-4.47.35-9,0-13.51,0,.34,1.59.68,3.19,1,4.76l-.91,28L214,707.43l5.5,8.26H235C247,707.43,246.05,702.85,246.05,702.85Z" style="fill: #231f20;stroke-miterlimit: 10;stroke: url(#Brass_Radial-2)"/>
  <path d="M219.57,600.05a24.14,24.14,0,0,0,15.7.09" style="fill: none;stroke: #231f20;stroke-miterlimit: 10"/>
  <path d="M206.09,599.38a18.35,18.35,0,0,0,13.6.08" style="fill: none;stroke: #231f20;stroke-miterlimit: 10;stroke-width: 0.930604654528527px"/>
  <path d="M205.09,596.24a19.36,19.36,0,0,0,14,.09" style="fill: none;stroke: #231f20;stroke-miterlimit: 10;stroke-width: 0.944190842593238px"/>
  <path d="M219.23,603.17a24.21,24.21,0,0,0,15.71.08" style="fill: none;stroke: #231f20;stroke-miterlimit: 10"/>
  <path d="M225,126.68a8.79,8.79,0,1,1-8.81-8.79A8.78,8.78,0,0,1,225,126.68Z" style="fill: #231f20;stroke: #231f20;stroke-miterlimit: 10;stroke-width: 0.25px"/>
  <path d="M243.92,126.68a8.79,8.79,0,1,1-8.82-8.79A8.79,8.79,0,0,1,243.92,126.68Z" style="fill: #231f20;stroke: #231f20;stroke-miterlimit: 10;stroke-width: 0.25px"/>
  <path d="M231.2,129.75c-6.42-9.89-15.86,0-15.86,0" style="fill: none;stroke: #231f20;stroke-miterlimit: 10"/>
  <path d="M277.18,141.52c-74.67-3.21-94.35-60.74-94.35-60.74a114.14,114.14,0,0,1,29.93,7.78h0l9.67-.89C252.14,81.8,256,112.53,256,112.53l2.76,7.1A143.42,143.42,0,0,1,277.18,141.52Z" style="fill: #010101"/>
  <path d="M299.5,397.37c34.83-10.66,34.22,90.76,34.22,90.76,6.72,15.65-37,14.91-37,14.91C260.1,506.7,261,491.81,261,491.81c-7.94-105.31,35.74-94,35.74-94Z" style="fill: #333232;stroke: #08743b;stroke-miterlimit: 10;stroke-width: 0.444073804821855px"/>
  <path d="M270,454.77s-3.66,37.44,4,36.44c0,0,47.34,2.64,54.37-4.83,0,0,1.9-38.26-2.56-37.83s.2,1.55.2,1.55-12-1.74-51.09,2.23C274.93,452.33,270.27,452,270,454.77Z" style="fill: #3cb76d;stroke: #08743b;stroke-miterlimit: 10;stroke-width: 0.444073804821855px"/>
  <path d="M285.42,398.92c-.4-7.38,4.81-12.25,8.57-11.92,3.29.29,6.89,4.67,6.92,10.59" style="fill: none;stroke: #08743b;stroke-miterlimit: 10;stroke-width: 3px"/>
  <path d="M299.17,435.18h0c-10.8,1-19.72.69-19.86-.6l-1.68-15.83c-.13-1.29,8.55-3.17,19.35-4.18h0c10.84-1,19.85-.77,20,.53L318.66,431C318.8,432.34,310,434.2,299.17,435.18Z" style="fill: #3cb76d;stroke: #08743b;stroke-miterlimit: 10;stroke-width: 0.604731641052656px"/>
  <line x1="275.75" y1="461.86" x2="326.42" y2="456.96" style="fill: none;stroke: #231f20;stroke-miterlimit: 10"/>
</svg>
