<svg xmlns="http://www.w3.org/2000/svg" xmlns:xlink="http://www.w3.org/1999/xlink" width="465.02" height="725.83" viewBox="0 0 465.02 725.83">
  <defs>
    <radialGradient id="Brass_Radial" data-name="Brass Radial" cx="224.13" cy="607.38" r="40.44" gradientUnits="userSpaceOnUse">
      <stop offset="0.18" stop-color="#f4e8d9"/>
      <stop offset="0.59" stop-color="#edd089"/>
      <stop offset="1" stop-color="#c08329"/>
    </radialGradient>
    <radialGradient id="Brass_Radial-2" cx="239.18" cy="615.63" r="36.41" xlink:href="#Brass_Radial"/>
  </defs>
  <title>Artboard 10</title>
  <g id="model">
    <path d="M231.54,662.36C211.59,648,214,645.78,214,645.78,228.15,596.25,225.27,577,225.27,577c-22-53.1-22.62-163-22.62-163C165.5,270.19,191,234.76,191,234.76a169.59,169.59,0,0,1,14.27,15.08,168.47,168.47,0,0,1,14.62,20.35s4.13,96.3.69,141.71c0,0,9.63,121.07,10.31,154.77,0,0,10.32,63.91,5.51,79.8Z" style="fill: #bb895b"/>
    <path d="M241.92,256.26a10.84,10.84,0,0,0,6.59-2,11.79,11.79,0,0,0,2.58-3.07c1.49-1.94,5.08-3.64,14.51-2.17,0,0,17.43,46.52-22,145.25,0,0-4,8.84-3.38,34.52,0,0,4.29,56.87,5.21,69.71,0,0,6.42,24.76-.92,56.86,0,0-2.58,47.7,5.13,57.79,0,0,4.05,24.76,6.8,36.69,0,0,.91,4.58-11,12.84H229.83l-5.5-8.26L230.75,599l.91-28c-4.31-19.55-8.18-40.73-11.23-63.41a772.81,772.81,0,0,1-6.66-83.27q1.46-13.68,2.76-27.71c1.68-18.26,2.62-31.41,3.21-39.32C219.74,357.27,227.14,257.21,241.92,256.26Z" style="fill: #c49a6c"/>
    <path d="M255,174c-2.58,28.87-12,44.41-12,44.41H222l-10.7-5.49L208.25,173" style="fill: #afc8d8"/>
    <polyline points="237.64 137.51 237.64 132.47 249.56 129.26" style="fill: none;stroke: #231f20;stroke-miterlimit: 10"/>
    <polyline points="227.78 137.51 226.5 132.01 207.36 132.01" style="fill: none;stroke: #231f20;stroke-miterlimit: 10"/>
    <path d="M245.39,215.13s14.72,13.56,19.53,32.82c0,0-22.35,15.82-32.5,22H218.51s-16.18-17.2-27.88-32.33c0,0,3.78-14.45,20.46-26.14C211.09,211.49,243.3,218.15,245.39,215.13Z" style="fill: #afc8d8"/>
    <g>
      <path d="M224.43,102.68s4.13,21.47-12.38,23.33c0,0-8.94,15.81-8.94,31.54l21.78,9.29,31.87-4.57s11-39.49,6.19-36.26l-11-4.33s-8.26,6.4-11-16.4c0,0-3.44,10.42-12.38,0" style="fill: #c49a6c"/>
      <line x1="229.26" y1="106.07" x2="225.04" y2="104.28" style="fill: #c49a6c"/>
    </g>
    <path d="M238.35,105.18,243,118.44c1.53,2.86,9.58,2.53,16.81,2.07a16.87,16.87,0,0,1,9.69,2.4s7,0,6.12,21.4c0,0,4.58,40.06,6.42,71.7,0,0,7.56,12.83,13.76,58.24s0,3.44,0,3.44,13.07,27.51,12.38,39.89c0,0,2.75,21.33-4.82,22A97.08,97.08,0,0,1,297.46,327q-.91-2.39-1.66-4.65.57-3,.92-6.42a73.29,73.29,0,0,0-.09-14.9s-24.08-41.49-25.45-83c0,0-8.94-19.5-11.7-38.76s0-3.44,0-3.44q-.6-9.63-1.22-19.26l-5.76,2.22" style="fill: #c3996c"/>
    <path d="M225.09,100.53v13.64s-3.67,12.53-19.27,11.92c0,0-18.65-4.58-17.42,8.56s-.06,1.53-.06,1.53,2.43,63.21,7.24,67.34c0,0-16.51,53.66-14.44,77.73,0,0-4.13,6.88-7.57,12.38a19.6,19.6,0,0,0,0,9.63s1.07,13.3,8.41,22.17a2.17,2.17,0,0,0,3.36,0s-.24-43.8-2.75-43.11l24.69-69.86s.68-42.65-4.13-57.09l58-1.32" style="fill: #c3996c"/>
    <path d="M247.81,176.59c9.92.15,13.16-2,14.15-4.08.62-.93,5.42-8.33,2.46-16.78-.33-.95-2.19-6.25-6.86-8.73-6.6-3.51-17.38,0-25.24,9.65-5.77-9.12-17.06-11.15-23.62-6.43-4.72,3.41-6.85,10.23-5.27,17,.66,1.54,1.69,3.8,3.14,6.44,1.36,2.47,2.05,3.72,2.81,4.35,1.84,1.53,3.6,1.32,10.1,2.05,2.28.26,4.12.52,5.28.69" style="fill: #afc8d8"/>
    <polyline points="226.88 134.51 225.6 129.01 206.46 129.01" style="fill: none;stroke: #231f20;stroke-miterlimit: 10;stroke-width: 0.5px"/>
    <polyline points="238.6 133.14 238.6 128.09 250.52 124.88" style="fill: none;stroke: #231f20;stroke-miterlimit: 10;stroke-width: 0.5px"/>
    <g>
      <path d="M233,50.17s-20.64-2.75-14.22,39c0,0,2.75,16.51,14.22,22,0,0,10.09-2.29,14.67-19.26,0,0,11.47-30.8-12.38-41.77" style="fill: #c49a6c;stroke: #000;stroke-miterlimit: 10;stroke-width: 0.25px"/>
      <line x1="232.09" y1="50.13" x2="235.81" y2="50.33" style="fill: #c49a6c;stroke: #000;stroke-miterlimit: 10;stroke-width: 0.25px"/>
    </g>
  </g>
  <g id="_1950" data-name="1950">
    <g>
      <path d="M230.13,662.06c-19.94-14.38-17.51-16.58-17.51-16.58,14.12-49.53,11.25-68.79,11.25-68.79-22.05-53.1-22.63-163-22.63-163-37.14-143.77-11.69-179.2-11.69-179.2a171,171,0,0,1,14.27,15.08c6,7.17,18.75,116.66,15.31,162.06,0,0,9.63,121.07,10.32,154.77,0,0,10.32,63.91,5.5,79.8Z" style="fill: #bb895b"/>
      <path d="M219.75,398.25c2-48.56-1.43-128.36-1.43-128.36a169.64,169.64,0,0,0-28.9-35.43s-23.48,32.79,7.69,163C204.66,397.69,212.2,398.16,219.75,398.25Z" style="fill: #231f20;stroke: #231f20;stroke-miterlimit: 10;stroke-width: 0.25px"/>
      <g>
        <path d="M240.51,256a10.88,10.88,0,0,0,6.59-2,12.12,12.12,0,0,0,2.58-3.07c1.49-1.95,5.08-3.65,14.51-2.18,0,0,17.43,46.53-22,145.25,0,0-4,8.84-3.37,34.52,0,0,4.29,56.87,5.2,69.71,0,0,6.42,24.76-.91,56.87,0,0-2.59,47.69,5.12,57.78,0,0,4.05,24.76,6.8,36.69,0,0,.92,4.58-11,12.84H228.42l-5.5-8.26,6.42-55.49.91-28C226,551.13,222.07,530,219,507.28A775.76,775.76,0,0,1,212.36,424q1.47-13.68,2.76-27.7c1.69-18.27,2.63-31.42,3.21-39.33C218.33,357,225.73,256.91,240.51,256Z" style="fill: #c49a6c"/>
        <path d="M242.26,394.8c.15-.42.24-.61.24-.61,39.44-98.73,22-145.25,22-145.25-9.43-1.47-13,.23-14.51,2.17a11.79,11.79,0,0,1-2.58,3.07,10.92,10.92,0,0,1-6.59,2c-14.78.94-22.18,101-22.18,101-.56,7.56-1.44,19.93-3,37C224.29,392.24,233.59,392.77,242.26,394.8Z" style="fill: #231f20;stroke: #231f20;stroke-miterlimit: 10;stroke-width: 0.25px"/>
      </g>
      <path d="M246.35,221.66s14.72,13.56,19.53,32.82c0,0-22.35,15.82-32.5,22H219.47s-16.19-17.2-27.88-32.34c0,0,3.78-14.44,20.46-26.14C212.05,218,244.26,224.68,246.35,221.66Z" style="fill: #231f20;stroke: #231f20;stroke-miterlimit: 10;stroke-width: 0.25px"/>
      <g>
        <path d="M259.76,144.79s-2.89-8.95-6.14-20.58a28,28,0,0,1-.62-2.84c-2.16-12.69.62-35.9.62-35.9,10.6-43.34-23.39-43.34-23.39-43.34C209.88,36.62,206,85.47,206,85.47s-7.26,44.35-2.64,59.32l60.66.58" style="fill: #231f20;stroke: #231f20;stroke-miterlimit: 10;stroke-width: 0.5px"/>
        <path d="M253.62,173.72c-2.57,28.87-12,44.41-12,44.41H220.6l-10.7-5.49-3.06-39.9" style="fill: #afc8d8"/>
        <polyline points="236.23 137.21 236.23 132.17 248.15 128.96" style="fill: none;stroke: #231f20;stroke-miterlimit: 10"/>
        <polyline points="226.37 137.21 225.09 131.71 205.96 131.71" style="fill: none;stroke: #231f20;stroke-miterlimit: 10"/>
        <g>
          <path d="M223,102.38s4.13,21.47-12.38,23.34c0,0-8.94,15.81-8.94,31.53l21.78,9.29L255.35,162s11-39.49,6.19-36.25l-11-4.33s-8.26,6.39-11-16.41c0,0-3.44,10.42-12.38,0" style="fill: #c49a6c"/>
          <line x1="227.85" y1="105.78" x2="223.63" y2="103.98" style="fill: #c49a6c"/>
        </g>
        <path d="M236.94,104.88q2.34,6.63,4.69,13.27c1.53,2.85,9.57,2.52,16.8,2.06a16.93,16.93,0,0,1,9.69,2.4s7,0,6.12,21.4c0,0,4.58,40.07,6.42,71.7,0,0,7.57,12.84,13.76,58.24s0,3.44,0,3.44,13.07,27.51,12.38,39.9c0,0,2.75,21.32-4.82,22a98.42,98.42,0,0,1-5.93-12.56q-.92-2.37-1.66-4.65c.38-2,.7-4.14.92-6.42a72.58,72.58,0,0,0-.09-14.9s-24.07-41.49-25.45-83c0,0-8.94-19.5-11.69-38.76s0-3.44,0-3.44l-1.23-19.26-5.76,2.22" style="fill: #c3996c"/>
        <path d="M223.68,100.23v13.64S220,126.41,204.42,125.8c0,0-18.65-4.59-17.43,8.56s-.06,1.52-.06,1.52,2.43,63.21,7.24,67.34c0,0-16.51,53.66-14.44,77.73,0,0-4.13,6.88-7.57,12.39a19.72,19.72,0,0,0,0,9.63s1.07,13.3,8.41,22.16a2.16,2.16,0,0,0,3.36,0s-.24-43.8-2.75-43.11l24.69-69.86s.69-42.64-4.13-57.09l58-1.32" style="fill: #c3996c"/>
        <path d="M246.4,176.3c9.92.14,13.16-2,14.15-4.09.62-.92,5.42-8.33,2.47-16.78-.34-1-2.2-6.25-6.87-8.73-6.59-3.5-17.38,0-25.24,9.65-5.76-9.12-17-11.15-23.61-6.42-4.73,3.41-6.86,10.22-5.28,17,.66,1.54,1.69,3.79,3.14,6.43,1.36,2.48,2.06,3.73,2.81,4.35,1.84,1.54,3.6,1.32,10.1,2.06,2.28.25,4.12.51,5.28.68" style="fill: #afc8d8"/>
        <polyline points="225.47 134.21 224.19 128.71 205.05 128.71" style="fill: none;stroke: #231f20;stroke-miterlimit: 10;stroke-width: 0.5px"/>
        <polyline points="237.19 132.84 237.19 127.79 249.12 124.58" style="fill: none;stroke: #231f20;stroke-miterlimit: 10;stroke-width: 0.5px"/>
        <g>
          <path d="M231.56,49.87s-20.64-2.75-14.22,39c0,0,2.76,16.51,14.22,22,0,0,10.09-2.29,14.68-19.26,0,0,11.46-30.8-12.39-41.77" style="fill: #c49a6c;stroke: #000;stroke-miterlimit: 10;stroke-width: 0.25px"/>
          <line x1="230.68" y1="49.83" x2="234.41" y2="50.04" style="fill: #c49a6c;stroke: #000;stroke-miterlimit: 10;stroke-width: 0.25px"/>
        </g>
        <path d="M187.57,129.75a152.5,152.5,0,0,1,16.54,5.86c4.94,2.07,9.43,4.25,13.45,6.42a54.29,54.29,0,0,0,21.27.55c18.19-3.21,29.26-15,32.85-19.2C306.62,242.3,304.76,274.21,294.91,279a10.5,10.5,0,0,1-7,.62C276,276.25,277,250.07,268,213.7a289.57,289.57,0,0,0-10.23-32.86c2-11.86,4-23.86,4-23.86l-.08.43c-.46,2.73-3,17.68-3.65,21.6-1.56,9.8-2.64,24.43-.16,45,13.29,28.38,12.26,38.5,8.25,42.19-2.27,2.1-6.23,2.8-14.21,8.26a85.17,85.17,0,0,0-8.26,6.42,38.08,38.08,0,0,0-13.3,6.42c-19.64,13.4-38.54,17.31-45.86,10.09-6.15-6.08-3.35-19.29-1.22-29.35,2.94-13.89,6.4-13.1,13.62-34a150.92,150.92,0,0,0,8.26-37.74,98.15,98.15,0,0,0,.34-10.74c-.21-12.51-3.27-27.79-3.31-27.78h0c0,.41,2.71,25.31,4,37.46a180.89,180.89,0,0,1-11.16,45.93c-5.15,13.14-13.45,29.52-13.3,29.59s1.54-2.75,1.53-2.75h0a8.74,8.74,0,0,1-3.4.61Z" style="fill: #fff;stroke: #231f20;stroke-miterlimit: 10;stroke-width: 0.5px"/>
      </g>
      <path d="M248.22,612.87c-7.71-10.09-5.12-57.78-5.12-57.78a140.29,140.29,0,0,0,2.48-14.26c-6.78,1.11-14.42.26-21.34-.35,1.87,10.45,3.89,20.54,6,30.2l-.91,28-6.42,55.49,5.5,8.26H244c11.93-8.26,11-12.84,11-12.84C252.27,637.63,248.22,612.87,248.22,612.87Z" style="fill: #fff;stroke: #231f20;stroke-miterlimit: 10;stroke-width: 0.25px"/>
      <path d="M228.05,535.64a152,152,0,0,1-15.55.75c2.95,15,6.69,28.93,11.41,40.3,0,0,2.87,19.26-11.25,68.79,0,0-2.43,2.2,17.52,16.58L235,646.17c4.82-15.89-5.5-79.8-5.5-79.8C229.34,559.32,228.81,548.44,228.05,535.64Z" style="fill: #fff;stroke: #231f20;stroke-miterlimit: 10;stroke-width: 0.25px"/>
      <line x1="242.69" y1="594" x2="256.84" y2="627.9" style="fill: none;stroke: #231f20;stroke-miterlimit: 10;stroke-width: 2px"/>
      <path d="M228.64,552.05a87.29,87.29,0,0,0-12.84.7A179.66,179.66,0,0,0,223.62,577s2.88,19.26-11.25,68.79c0,0-2.43,2.2,17.52,16.58l4.82-15.89c4.81-15.89-5.51-79.8-5.51-79.8C229.12,562.86,228.93,557.87,228.64,552.05Z" style="fill: #231f20;stroke-miterlimit: 10;stroke: url(#Brass_Radial)"/>
      <path d="M255.23,651.05c-2.75-11.93-6.79-36.69-6.79-36.69-5.37-7-5.75-32.25-5.48-47-4.48.35-9,0-13.52,0,.34,1.6.68,3.19,1,4.76l-.92,28-6.42,55.49,5.51,8.26h15.59C256.15,655.63,255.23,651.05,255.23,651.05Z" style="fill: #231f20;stroke-miterlimit: 10;stroke: url(#Brass_Radial-2)"/>
      <path d="M228.75,548.25a24.17,24.17,0,0,0,15.71.09" style="fill: none;stroke: #231f20;stroke-miterlimit: 10"/>
      <path d="M215.28,547.58a18.34,18.34,0,0,0,13.6.08" style="fill: none;stroke: #231f20;stroke-miterlimit: 10;stroke-width: 0.930604654528527px"/>
      <path d="M214.28,544.44a19.36,19.36,0,0,0,14,.09" style="fill: none;stroke: #231f20;stroke-miterlimit: 10;stroke-width: 0.944190842593238px"/>
      <path d="M228.42,551.37a24.19,24.19,0,0,0,15.7.08" style="fill: none;stroke: #231f20;stroke-miterlimit: 10"/>
      <path d="M234.16,74.88a8.79,8.79,0,1,1-8.82-8.79A8.79,8.79,0,0,1,234.16,74.88Z" style="fill: #231f20;stroke: #231f20;stroke-miterlimit: 10;stroke-width: 0.25px"/>
      <path d="M253.1,74.88a8.79,8.79,0,1,1-8.81-8.79A8.78,8.78,0,0,1,253.1,74.88Z" style="fill: #231f20;stroke: #231f20;stroke-miterlimit: 10;stroke-width: 0.25px"/>
      <path d="M240.39,78c-6.42-9.9-15.87,0-15.87,0" style="fill: none;stroke: #231f20;stroke-miterlimit: 10"/>
      <path d="M286.36,89.73C211.69,86.51,192,29,192,29a114.07,114.07,0,0,1,29.92,7.78h0l9.66-.89c29.72-5.87,33.53,24.86,33.53,24.86l2.76,7.1A142.67,142.67,0,0,1,286.36,89.73Z" style="fill: #010101"/>
      <path d="M308.69,345.57c34.82-10.66,34.21,90.76,34.21,90.76,6.72,15.65-37,14.91-37,14.91C269.28,454.9,270.2,440,270.2,440c-7.94-105.31,35.74-94,35.74-94Z" style="fill: #333232;stroke: #08743b;stroke-miterlimit: 10;stroke-width: 0.444073804821855px"/>
      <path d="M279.23,403s-3.67,37.44,4,36.44c0,0,47.34,2.64,54.37-4.83,0,0,1.89-38.26-2.56-37.83s.19,1.55.19,1.55-12-1.74-51.08,2.23C284.12,400.53,279.46,400.24,279.23,403Z" style="fill: #3cb76d;stroke: #08743b;stroke-miterlimit: 10;stroke-width: 0.444073804821855px"/>
      <path d="M294.6,347.12c-.39-7.38,4.81-12.25,8.58-11.92,3.28.29,6.88,4.67,6.91,10.59" style="fill: none;stroke: #08743b;stroke-miterlimit: 10;stroke-width: 3px"/>
      <path d="M308.35,383.38h0c-10.8,1-19.71.69-19.85-.6L286.82,367c-.14-1.29,8.55-3.17,19.35-4.18h0c10.83-1,19.84-.77,20,.53l1.69,15.94C328,380.54,319.19,382.41,308.35,383.38Z" style="fill: #3cb76d;stroke: #08743b;stroke-miterlimit: 10;stroke-width: 0.604731641052656px"/>
      <line x1="284.94" y1="410.07" x2="335.61" y2="405.16" style="fill: none;stroke: #231f20;stroke-miterlimit: 10"/>
    </g>
  </g>
</svg>
