<svg xmlns="http://www.w3.org/2000/svg" viewBox="0 0 465.02 725.83"><title>Artboard 7</title><g id="model"><path d="M231.54,662.36C211.59,648,214,645.78,214,645.78,228.15,596.25,225.27,577,225.27,577c-22-53.1-22.62-163-22.62-163C165.5,270.19,191,234.76,191,234.76a169.59,169.59,0,0,1,14.27,15.08,168.47,168.47,0,0,1,14.62,20.35s4.13,96.3.69,141.71c0,0,9.63,121.07,10.31,154.77,0,0,10.32,63.91,5.51,79.8Z" fill="#bb895b"/><path d="M241.92,256.26a10.84,10.84,0,0,0,6.59-2,11.79,11.79,0,0,0,2.58-3.07c1.49-1.94,5.08-3.64,14.51-2.17,0,0,17.43,46.52-22,145.25,0,0-4,8.84-3.38,34.52,0,0,4.29,56.87,5.21,69.71,0,0,6.42,24.76-.92,56.86,0,0-2.58,47.7,5.13,57.79,0,0,4.05,24.76,6.8,36.69,0,0,.91,4.58-11,12.84H229.83l-5.5-8.26L230.75,599l.91-28c-4.31-19.55-8.18-40.73-11.23-63.41a772.81,772.81,0,0,1-6.66-83.27q1.46-13.68,2.76-27.71c1.68-18.26,2.62-31.41,3.21-39.32C219.74,357.27,227.14,257.21,241.92,256.26Z" fill="#c49a6c"/><path d="M255,174c-2.58,28.87-12,44.41-12,44.41H222l-10.7-5.49L208.25,173" fill="#afc8d8"/><polyline points="237.64 137.51 237.64 132.47 249.56 129.26" fill="none" stroke="#231f20" stroke-miterlimit="10"/><polyline points="227.78 137.51 226.5 132.01 207.36 132.01" fill="none" stroke="#231f20" stroke-miterlimit="10"/><path d="M245.39,215.13s14.72,13.56,19.53,32.82c0,0-22.35,15.82-32.5,22H218.51s-16.18-17.2-27.88-32.33c0,0,3.78-14.45,20.46-26.14C211.09,211.49,243.3,218.15,245.39,215.13Z" fill="#afc8d8"/><path d="M224.43,102.68s4.13,21.47-12.38,23.33c0,0-8.94,15.81-8.94,31.54l21.78,9.29,31.87-4.57s11-39.49,6.19-36.26l-11-4.33s-8.26,6.4-11-16.4c0,0-3.44,10.42-12.38,0" fill="#c49a6c"/><line x1="229.26" y1="106.07" x2="225.04" y2="104.28" fill="#c49a6c"/><path d="M238.35,105.18,243,118.44c1.53,2.86,9.58,2.53,16.81,2.07a16.87,16.87,0,0,1,9.69,2.4s7,0,6.12,21.4c0,0,4.58,40.06,6.42,71.7,0,0,7.56,12.83,13.76,58.24s0,3.44,0,3.44,13.07,27.51,12.38,39.89c0,0,2.75,21.33-4.82,22A97.08,97.08,0,0,1,297.46,327q-.91-2.39-1.66-4.65.57-3,.92-6.42a73.29,73.29,0,0,0-.09-14.9s-24.08-41.49-25.45-83c0,0-8.94-19.5-11.7-38.76s0-3.44,0-3.44q-.6-9.63-1.22-19.26l-5.76,2.22" fill="#c3996c"/><path d="M225.09,100.53v13.64s-3.67,12.53-19.27,11.92c0,0-18.65-4.58-17.42,8.56s-.06,1.53-.06,1.53,2.43,63.21,7.24,67.34c0,0-16.51,53.66-14.44,77.73,0,0-4.13,6.88-7.57,12.38a19.6,19.6,0,0,0,0,9.63s1.07,13.3,8.41,22.17a2.17,2.17,0,0,0,3.36,0s-.24-43.8-2.75-43.11l24.69-69.86s.68-42.65-4.13-57.09l58-1.32" fill="#c3996c"/><path d="M247.81,176.59c9.92.15,13.16-2,14.15-4.08.62-.93,5.42-8.33,2.46-16.78-.33-.95-2.19-6.25-6.86-8.73-6.6-3.51-17.38,0-25.24,9.65-5.77-9.12-17.06-11.15-23.62-6.43-4.72,3.41-6.85,10.23-5.27,17,.66,1.54,1.69,3.8,3.14,6.44,1.36,2.47,2.05,3.72,2.81,4.35,1.84,1.53,3.6,1.32,10.1,2.05,2.28.26,4.12.52,5.28.69" fill="#afc8d8"/><polyline points="226.88 134.51 225.6 129.01 206.46 129.01" fill="none" stroke="#231f20" stroke-miterlimit="10" stroke-width="0.5"/><polyline points="238.6 133.14 238.6 128.09 250.52 124.88" fill="none" stroke="#231f20" stroke-miterlimit="10" stroke-width="0.5"/><path d="M233,50.17s-20.64-2.75-14.22,39c0,0,2.75,16.51,14.22,22,0,0,10.09-2.29,14.67-19.26,0,0,11.47-30.8-12.38-41.77" fill="#c49a6c" stroke="#000" stroke-miterlimit="10" stroke-width="0.25"/><line x1="232.09" y1="50.13" x2="235.81" y2="50.33" fill="#c49a6c" stroke="#000" stroke-miterlimit="10" stroke-width="0.25"/></g><g id="_1930" data-name="1930"><path d="M250.37,617.87c.35,0,1,10.2,3.37,19.06q.75,2.79,1.38,5.93c.59,2.94,1,5.72,1.29,8.31a32.34,32.34,0,0,1-11.05,11.53H229.77l-5.5-8.26,2-17.52a14.83,14.83,0,0,0,7.25,8.67c4.16,2.07,9.69,2.16,13.14-.34C255.25,639.06,249.86,617.91,250.37,617.87Z"/><path d="M218.26,629.63c.57.1-1.23,6.67,2.34,9.8a8.48,8.48,0,0,0,5.08,2,30,30,0,0,1-1.41,13l3.33,5.11c-2.27-1.5-7.19-5.85-7.62-6.16-2.82-1.74-5.81-5.44-6.18-7.29C216.79,632.54,217.86,629.56,218.26,629.63Z"/><path d="M221.14,120.49l10.41,9.92,13.64-10.33a47.38,47.38,0,0,0,7.59.85c3.05.1,16.69-2.69,20.65.38a7.59,7.59,0,0,1,.67.58,2.34,2.34,0,0,1,.17.17c.3.3,5,7.54,5.39,11.33a102.81,102.81,0,0,1,1.76,10.48c.37,3.24,1.23,9.53-.86,10.47-1,1-2.05,1.92-3,2.88a8.52,8.52,0,0,0-.07,4.85l-11.64,1.43a22.53,22.53,0,0,1-2,6.84,13,13,0,0,1-2,3.13,6.91,6.91,0,0,1-1.83,1.47c-1.48.93-3.41,10.62-5.92,39a269.13,269.13,0,0,1,12.53,33.6c3.48,11.63,9.25,31.4,10.5,57.33,1.16,24.13-3.57,24.3-7.14,65.76a536.79,536.79,0,0,0-1.82,62.56c.64,20.19,2.27,31.62,5.08,57.19,2.23,20.27,5.19,49.35,8,85.22a16.18,16.18,0,0,1-6.78.83c-5.05-.49-6-3.18-10.31-3.67-5.08-.57-5.71,3-11.8,3.08-5.36.1-5.79-2.61-10.91-2.29s-5.76,3.25-10.91,3.38c-4.67.11-4.91-2.25-9.72-2.38-6-.17-6.74,3.49-12.7,3.47-5.6,0-6.08-3.25-11.3-2.58-3.6.46-5,2.19-8.77,1.94a13.19,13.19,0,0,1-5.7-1.78q4.09-44,8.18-87.92C192.14,471,193.19,453,193.4,434a639.12,639.12,0,0,0-4.35-81.71c-4.31-13.69-14.62-39.75-6.4-70.32,1-3.7,15.81-44.75,23.72-67.13.73-12.14,2.38-35.12,2.2-36.4s-2.64-5.6-4-8.39l-14.44.19c-.51-1.76-1-3.53-1.52-5.29a9.77,9.77,0,0,1-3.27-2.05c-4.84-4.67-2.41-13.72-1.35-23.72a43.64,43.64,0,0,1,3.14-12.23c3.9-3.65,9.51-2.1,9.85-2l11.14,1.19,7.48-1.73Z" fill="#4b3494"/><path d="M221.14,120.44l10.41,9.92-4.6,5.58-7.35-14.41Z" fill="#3e8aa5"/><path d="M245.19,120l-13.64,10.33,3.72,5.8L248.1,120.5Z" fill="#3e8aa5"/><path d="M204.59,170a34.5,34.5,0,0,1-1.47-7.31c-.19-3.36,2.73-9.31,2.73-9.31" fill="none" stroke="#231f5f" stroke-miterlimit="10" stroke-width="0.75"/><path d="M266.19,163.32A13.52,13.52,0,0,0,260.1,149" fill="none" stroke="#231f5f" stroke-miterlimit="10" stroke-width="0.75"/><path d="M188.65,164.93l1.52,5.29,14.07-.22-1.2-5.15Z" fill="#231f5f"/><polygon points="277.45 161.99 277.54 157.22 266.1 158.02 265.78 163.37 277.45 161.99" fill="#231f5f"/><polygon points="206.65 210.39 254.39 210.39 254.9 215.75 205.92 216.09 206.65 210.39" fill="#3e8aa5"/><path d="M208.68,409.27,198,575.56l8.67-92.06Q207.65,446.38,208.68,409.27Z" fill="#231f5f"/><path d="M256.63,453l7.7,119.36-6.22-66.08Q257.36,479.62,256.63,453Z" fill="#231f5f"/><path d="M229.07,437.36q-4.8,68.67-9.61,137.35,1.51-15.08,2.84-30.4Q227.06,489.53,229.07,437.36Z" fill="#231f5f"/><path d="M241,498.37l1.77,75.43-2.56-41.87Z" fill="#231f5f"/><path d="M219.6,93.11q5.4-16.27,10.79-32.56L250,80.65s.92-9.39-.56-14.22a22.18,22.18,0,0,0-5.58-10c-2-2.66-5.63-5.66-9.25-6.31-3.16,0-6.86.36-9,2-4,1.85-5.84,7.89-6.48,9.41-1.21,2.58-2,9.08-1.71,11.95C216.27,79.21,219.6,93.11,219.6,93.11Z" fill="#7a3d1a"/><path d="M218.78,89.93c-.28.13-6,2.84-6.22,8a6.4,6.4,0,0,0,1,4c1.88,2.69,6.35,3.57,11,1.9a40.13,40.13,0,0,1-5.82-13.89Z" fill="#7a3d1a"/><path d="M282.92,47.45a290.08,290.08,0,0,1-51.25,31.47A290.5,290.5,0,0,1,185,96.48a112.22,112.22,0,0,1,21.24-21.82l1.79-.88L210.23,66c9.45-28.29,37.6-16.58,37.6-16.58l3.78,2.3a93.83,93.83,0,0,1,31.31-4.22Z" fill="#4b3494"/><path d="M208.07,73.78q11.19-5.37,22.7-11.22,10.68-5.43,20.84-10.89l-3.78-2.3L209.41,67.75Z" fill="#231f5f"/></g></svg>