<svg xmlns="http://www.w3.org/2000/svg" viewBox="0 0 465.02 725.83"><title>Artboard 8</title><g id="model"><path d="M231.54,662.36C211.59,648,214,645.78,214,645.78,228.15,596.25,225.27,577,225.27,577c-22-53.1-22.62-163-22.62-163C165.5,270.19,191,234.76,191,234.76a169.59,169.59,0,0,1,14.27,15.08,168.47,168.47,0,0,1,14.62,20.35s4.13,96.3.69,141.71c0,0,9.63,121.07,10.31,154.77,0,0,10.32,63.91,5.51,79.8Z" fill="#bb895b"/><path d="M241.92,256.26a10.84,10.84,0,0,0,6.59-2,11.79,11.79,0,0,0,2.58-3.07c1.49-1.94,5.08-3.64,14.51-2.17,0,0,17.43,46.52-22,145.25,0,0-4,8.84-3.38,34.52,0,0,4.29,56.87,5.21,69.71,0,0,6.42,24.76-.92,56.86,0,0-2.58,47.7,5.13,57.79,0,0,4.05,24.76,6.8,36.69,0,0,.91,4.58-11,12.84H229.83l-5.5-8.26L230.75,599l.91-28c-4.31-19.55-8.18-40.73-11.23-63.41a772.81,772.81,0,0,1-6.66-83.27q1.46-13.68,2.76-27.71c1.68-18.26,2.62-31.41,3.21-39.32C219.74,357.27,227.14,257.21,241.92,256.26Z" fill="#c49a6c"/><path d="M255,174c-2.58,28.87-12,44.41-12,44.41H222l-10.7-5.49L208.25,173" fill="#afc8d8"/><polyline points="237.64 137.51 237.64 132.47 249.56 129.26" fill="none" stroke="#231f20" stroke-miterlimit="10"/><polyline points="227.78 137.51 226.5 132.01 207.36 132.01" fill="none" stroke="#231f20" stroke-miterlimit="10"/><path d="M245.39,215.13s14.72,13.56,19.53,32.82c0,0-22.35,15.82-32.5,22H218.51s-16.18-17.2-27.88-32.33c0,0,3.78-14.45,20.46-26.14C211.09,211.49,243.3,218.15,245.39,215.13Z" fill="#afc8d8"/><path d="M224.43,102.68s4.13,21.47-12.38,23.33c0,0-8.94,15.81-8.94,31.54l21.78,9.29,31.87-4.57s11-39.49,6.19-36.26l-11-4.33s-8.26,6.4-11-16.4c0,0-3.44,10.42-12.38,0" fill="#c49a6c"/><line x1="229.26" y1="106.07" x2="225.04" y2="104.28" fill="#c49a6c"/><path d="M238.35,105.18,243,118.44c1.53,2.86,9.58,2.53,16.81,2.07a16.87,16.87,0,0,1,9.69,2.4s7,0,6.12,21.4c0,0,4.58,40.06,6.42,71.7,0,0,7.56,12.83,13.76,58.24s0,3.44,0,3.44,13.07,27.51,12.38,39.89c0,0,2.75,21.33-4.82,22A97.08,97.08,0,0,1,297.46,327q-.91-2.39-1.66-4.65.57-3,.92-6.42a73.29,73.29,0,0,0-.09-14.9s-24.08-41.49-25.45-83c0,0-8.94-19.5-11.7-38.76s0-3.44,0-3.44q-.6-9.63-1.22-19.26l-5.76,2.22" fill="#c3996c"/><path d="M225.09,100.53v13.64s-3.67,12.53-19.27,11.92c0,0-18.65-4.58-17.42,8.56s-.06,1.53-.06,1.53,2.43,63.21,7.24,67.34c0,0-16.51,53.66-14.44,77.73,0,0-4.13,6.88-7.57,12.38a19.6,19.6,0,0,0,0,9.63s1.07,13.3,8.41,22.17a2.17,2.17,0,0,0,3.36,0s-.24-43.8-2.75-43.11l24.69-69.86s.68-42.65-4.13-57.09l58-1.32" fill="#c3996c"/><path d="M247.81,176.59c9.92.15,13.16-2,14.15-4.08.62-.93,5.42-8.33,2.46-16.78-.33-.95-2.19-6.25-6.86-8.73-6.6-3.51-17.38,0-25.24,9.65-5.77-9.12-17.06-11.15-23.62-6.43-4.72,3.41-6.85,10.23-5.27,17,.66,1.54,1.69,3.8,3.14,6.44,1.36,2.47,2.05,3.72,2.81,4.35,1.84,1.53,3.6,1.32,10.1,2.05,2.28.26,4.12.52,5.28.69" fill="#afc8d8"/><polyline points="226.88 134.51 225.6 129.01 206.46 129.01" fill="none" stroke="#231f20" stroke-miterlimit="10" stroke-width="0.5"/><polyline points="238.6 133.14 238.6 128.09 250.52 124.88" fill="none" stroke="#231f20" stroke-miterlimit="10" stroke-width="0.5"/><path d="M233,50.17s-20.64-2.75-14.22,39c0,0,2.75,16.51,14.22,22,0,0,10.09-2.29,14.67-19.26,0,0,11.47-30.8-12.38-41.77" fill="#c49a6c" stroke="#000" stroke-miterlimit="10" stroke-width="0.25"/><line x1="232.09" y1="50.13" x2="235.81" y2="50.33" fill="#c49a6c" stroke="#000" stroke-miterlimit="10" stroke-width="0.25"/></g><g id="_1940" data-name="1940"><path d="M217.06,123.68l-6.39,2.15-4.85.26s-.67,27.11-1,28.77a18.43,18.43,0,0,0-1.78,5.81,18.79,18.79,0,0,0-.13,3.35l.69,3.81q1.78,3.43,3.59,6.85c.81,5.57,1.47,11.67,1.83,18.23s.4,12.65.21,18.26a5,5,0,0,1-2.88,4,281.58,281.58,0,0,0-13.66,29c-2.58,6.42-4.81,12.63-6.72,18.56q-7.73,49.07-15.24,98.16-9.23,60.3-18.12,120.63c.27,3.72,1.28,8.76,5,11.93,7.65,6.47,18.26-2,34.48-.94,21.08,1.4,22.74,17,39.49,16,16.28-1,17.75-16,36.64-17,11.13-.6,15.72,4.31,25.82,1.3,8.48-2.53,14.26-8.7,17.9-13.75-9-52.83-15.45-92.19-19.82-119.24-4.43-27.36-9.25-57.77-18.59-99.24-2.67-11.86-5.06-21.73-6.78-28.69q-4.41-10.27-8.83-20.54L259,175.78a18.15,18.15,0,0,0,5.18-6,19.22,19.22,0,0,0,1.54-13.3,50.71,50.71,0,0,1-3.07-18c-.74-6.31-1.21-12.31-1.48-18l-10.64.3a30.29,30.29,0,0,1-16.37,6.58A31,31,0,0,1,217.06,123.68Z" fill="#dcc029"/><path d="M218.32,127.78l-6.9,2.46s-4.43.29-4.85.26a23,23,0,0,0-5.34-.68c-1.17,0-2.44-.07-3.28,0a19.73,19.73,0,0,0-9.33,3.42c-6.14,4.51-8.49,14.09-6.25,15.79,1.7,1.3,4.51-3.17,10.64-3.11,5.51,0,6.28,3.7,11.67,3.76,5.75.08,6.72-4,12.2-3.76,5.66.28,7.43,4.82,10.76,4.15,2.47-.49,5.39-3.76,7.23-16.15,3.25,13,6.79,16.3,9.6,16.61,3.5.39,4.57-4,10.35-5,6.92-1.21,10.35,4.24,15.51,1.93,3.22-1.45,2.81-4,6.46-5.23,4.35-1.48,7.75,1.14,8.74-.26,1.14-1.6-2.61-6.07-4.39-8a26.26,26.26,0,0,0-8.82-6.09,37.88,37.88,0,0,0-6.55-2.41,26.31,26.31,0,0,0-4.16-.47,26.89,26.89,0,0,0-3.18.08l-7.16.21-8.21,4.71-8.17,1.87-9.69-.83Z" fill="#d9d434"/><path d="M217.57,124.08l-6.9,2.45s-4.43.3-4.85.26a23.5,23.5,0,0,0-5.34-.67c-1.17,0-2.43-.07-3.28,0a19.73,19.73,0,0,0-9.33,3.41c-6.14,4.52-8.49,14.1-6.25,15.8,1.71,1.3,4.51-3.17,10.64-3.11,5.51.05,6.28,3.69,11.68,3.76,5.74.07,6.72-4,12.19-3.76,5.66.28,7.44,4.81,10.77,4.15,2.47-.49,5.38-3.77,7.22-16.15,3.25,13,6.79,16.3,9.6,16.61,3.51.38,4.57-4,10.35-5,6.92-1.2,10.35,4.25,15.51,1.93,3.23-1.44,2.81-4,6.47-5.23,4.34-1.48,7.74,1.14,8.73-.25,1.14-1.61-2.61-6.08-4.39-8.05a26.16,26.16,0,0,0-8.82-6.09,36,36,0,0,0-6.55-2.41,25.1,25.1,0,0,0-4.16-.48,24.79,24.79,0,0,0-3.18.09l-7.16.2-8.21,4.71-8.16,1.87-9.69-.82Z" fill="#a48b30"/><path d="M217.57,123.38l-6.9,2.45s-4.43.3-4.85.26a23.5,23.5,0,0,0-5.34-.67c-1.17,0-2.43-.07-3.28,0a19.77,19.77,0,0,0-9.33,3.42c-6.14,4.52-8.49,14.09-6.25,15.8,1.71,1.29,4.51-3.17,10.64-3.11,5.51.05,6.28,3.69,11.68,3.76,5.74.07,6.72-4,12.19-3.76,5.66.28,7.44,4.81,10.77,4.15,2.47-.5,5.38-3.77,7.22-16.16,3.25,13,6.79,16.31,9.6,16.62,3.51.38,4.57-4,10.35-5,6.92-1.2,10.35,4.24,15.51,1.93,3.23-1.44,2.81-4,6.47-5.23,4.34-1.48,7.74,1.14,8.73-.26,1.14-1.6-2.61-6.07-4.39-8a26.16,26.16,0,0,0-8.82-6.09A36,36,0,0,0,265,121a25.1,25.1,0,0,0-4.16-.48,24.79,24.79,0,0,0-3.18.09l-7.16.2-8.21,4.71-8.16,1.87-9.69-.82Z" fill="#d9d434"/><polygon points="234.87 133.9 231.04 216.12 234.15 172.41 234.87 133.9" fill="#a48b30"/><circle cx="233.64" cy="168.36" r="1.58" fill="#d9d434"/><circle cx="232.89" cy="187.02" r="1.58" fill="#d9d434"/><circle cx="231.64" cy="207.1" r="1.58" fill="#d9d434"/><circle cx="234.53" cy="148.41" r="1.58" fill="#d9d434"/><path d="M199.49,493.82q7.31-82.08,14.62-164.15-13.83,81.45-27.65,162.9Z" fill="#a48b30"/><path d="M260.15,492.85q-8.82-118.3-17.62-236.61,15.5,117.42,31,234.83Z" fill="#a48b30"/><path d="M215.12,228.32l-19.71,91.45,14.1-58.62Z" fill="#a48b30"/><path d="M209.22,216.11c-5.25,3.28-9.47,6.33-12.58,8.72-7.28,5.59-9.3,8.16-10.45,11.23-1,2.7-1.92,7.26-.05,8.64,2.1,1.55,5.42-2.56,9.79-1.26,3.79,1.13,3.56,4.9,6.73,5.53,4.44.87,7.05-6.07,11.92-5.58,4.3.44,5.4,6.2,7.86,6.12s5.49-5.36,8.81-29.35c2.13,23.14,6.12,28.54,9.42,29.1,3.58.6,6.14-4.55,12.19-3.91,5.4.57,7.19,5.06,11,4.06,3.31-.86,3-4.47,7-5.9s6.66,1.25,8.29-.36c2.15-2.12-.87-8.43-1.62-10a28.9,28.9,0,0,0-6.22-8.34,47.17,47.17,0,0,0-13.1-9l-19.85,4-8.54.42-10-1.44Z" fill="#d9d434"/><path d="M209.39,212.74c-5.27,3.24-9.52,6.27-12.64,8.63-7.32,5.55-9.35,8.1-10.53,11.17-1,2.69-2,7.24-.1,8.64,2.09,1.56,5.44-2.53,9.8-1.2,3.78,1.16,3.52,4.93,6.69,5.57,4.43.91,7.09-6,11.95-5.49,4.31.47,5.36,6.23,7.83,6.17s5.52-5.33,9-29.29c2,23.15,5.93,28.58,9.22,29.16,3.58.63,6.17-4.5,12.23-3.83,5.39.61,7.15,5.11,11,4.14,3.32-.84,3.05-4.45,7.07-5.86s6.64,1.29,8.28-.3c2.17-2.11-.81-8.44-1.54-10a29.35,29.35,0,0,0-6.18-8.38,47.16,47.16,0,0,0-13-9.1l-19.88,3.87L230,217l-10-1.5Z" fill="#a48b30"/><path d="M209,212.07c-5.26,3.27-9.48,6.33-12.59,8.71-7.28,5.59-9.29,8.16-10.45,11.23-1,2.71-1.92,7.26,0,8.64,2.1,1.55,5.42-2.56,9.79-1.26,3.79,1.13,3.56,4.91,6.74,5.53,4.43.87,7-6.07,11.91-5.57,4.3.44,5.4,6.19,7.87,6.12s5.48-5.37,8.8-29.35c2.13,23.13,6.12,28.54,9.42,29.09,3.58.61,6.14-4.54,12.2-3.9,5.39.57,7.18,5.06,11,4.06,3.31-.87,3-4.47,7-5.91s6.66,1.25,8.29-.36c2.15-2.12-.87-8.43-1.62-10a28.9,28.9,0,0,0-6.22-8.34,47.1,47.1,0,0,0-13.09-9l-19.86,4-8.54.41-10-1.43Z" fill="#d9d434"/><polygon points="226.16 638.54 253.49 635.28 255 643.15 225.29 646.06 226.16 638.54" fill="#7f5a23"/><polygon points="217.1 634.45 226.5 635.6 225.69 642.53 215.45 640.67 217.1 634.45" fill="#7f5a23"/><path d="M224.33,654.44l5.5,8.26h15.59a22.65,22.65,0,0,0,9.39-8.6,20.58,20.58,0,0,0,1.77-3.86L244.47,659l-12.87.42Z" fill="#7f5a23"/><path d="M214,645.78l10.31,8.66,3.28,5s-10.24-8.19-11.7-10.09a4.87,4.87,0,0,1-1.89-3.34" fill="#7f5a23"/><path d="M234.33,47.63c-9.85.12-20.09,6.77-20.89,13.66-.27,2.3.65,3.46.92,5.72a14,14,0,0,1,0,2.74c-.15,1.69-.61,3.51-3.64,9.67-1.35,2.77-1.31,2.5-1.51,3.08a13.32,13.32,0,0,0-.35,8.21A12.86,12.86,0,0,0,213.09,97a20.71,20.71,0,0,0,4.24,2.35l6.61,3.28c-4.26-15.41-5.49-21.9-5.28-23.86,0,0,0-.28.07-.63.11-1.07.32-3.31.47-6.14.17-3.15,0-3,.16-4.72.25-2.07.45-3.75,1.16-3.93,1-.27,1.68,3.12,4.33,5.45,3.46,3,8.54,2.66,15.45,2.13,2.38-.18,8.67-1.83,9.44-1.52,1.62,2.64.29,11.9.3,11.95v0h0c-.26,1.2-.55,2.41-.86,3.65a109.67,109.67,0,0,1-6.26,17.82,18.74,18.74,0,0,0,9.63-4.39c5.23-4.6,8.18-12.73,5.91-17.86-.49-1.12-1.93-4-3.31-7.48a14.1,14.1,0,0,1-.84-3.2c-.88-5.82,1.09-7.35.19-10.86C252.77,52.35,242.9,47.53,234.33,47.63Z" fill="#7f5a23"/><path d="M214.32,66.73l5,.94c0,1.51-.11,3-.16,4.53l-5.25-.34.44-2.61Z" fill="#d577b0"/><polygon points="254.15 65.41 249.86 69.2 250.4 72.87 254.8 72.16 254.26 68.8 254.15 65.41" fill="#d577b0"/></g></svg>