<svg xmlns="http://www.w3.org/2000/svg" viewBox="0 0 465.02 725.83"><title>Artboard 9</title><g id="_1950" data-name="1950"><path d="M231.54,662.36C211.59,648,214,645.78,214,645.78,228.15,596.25,225.27,577,225.27,577c-22-53.1-22.62-163-22.62-163C165.5,270.19,191,234.76,191,234.76a169.59,169.59,0,0,1,14.27,15.08,168.47,168.47,0,0,1,14.62,20.35s4.13,96.3.69,141.71c0,0,9.63,121.07,10.31,154.77,0,0,10.32,63.91,5.51,79.8Z" fill="#bb895b"/><path d="M241.92,256.26a10.84,10.84,0,0,0,6.59-2,11.79,11.79,0,0,0,2.58-3.07c1.49-1.94,5.08-3.64,14.51-2.17,0,0,17.43,46.52-22,145.25,0,0-4,8.84-3.38,34.52,0,0,4.29,56.87,5.21,69.71,0,0,6.42,24.76-.92,56.86,0,0-2.58,47.7,5.13,57.79,0,0,4.05,24.76,6.8,36.69,0,0,.91,4.58-11,12.84H229.83l-5.5-8.26L230.75,599l.91-28c-4.31-19.55-8.18-40.73-11.23-63.41a772.81,772.81,0,0,1-6.66-83.27q1.46-13.68,2.76-27.71c1.68-18.26,2.62-31.41,3.21-39.32C219.74,357.27,227.14,257.21,241.92,256.26Z" fill="#c49a6c"/><path d="M255,174c-2.58,28.87-12,44.41-12,44.41H222l-10.7-5.49L208.25,173" fill="#afc8d8"/><polyline points="237.64 137.51 237.64 132.47 249.56 129.26" fill="none" stroke="#231f20" stroke-miterlimit="10"/><polyline points="227.78 137.51 226.5 132.01 207.36 132.01" fill="none" stroke="#231f20" stroke-miterlimit="10"/><path d="M245.39,215.13s14.72,13.56,19.53,32.82c0,0-22.35,15.82-32.5,22H218.51s-16.18-17.2-27.88-32.33c0,0,3.78-14.45,20.46-26.14C211.09,211.49,243.3,218.15,245.39,215.13Z" fill="#afc8d8"/><path d="M224.43,102.68s4.13,21.47-12.38,23.33c0,0-8.94,15.81-8.94,31.54l21.78,9.29,31.87-4.57s11-39.49,6.19-36.26l-11-4.33s-8.26,6.4-11-16.4c0,0-3.44,10.42-12.38,0" fill="#c49a6c"/><line x1="229.26" y1="106.07" x2="225.04" y2="104.28" fill="#c49a6c"/><path d="M238.35,105.18,243,118.44c1.53,2.86,9.58,2.53,16.81,2.07a16.87,16.87,0,0,1,9.69,2.4s7,0,6.12,21.4c0,0,4.58,40.06,6.42,71.7,0,0,7.56,12.83,13.76,58.24s0,3.44,0,3.44,13.07,27.51,12.38,39.89c0,0,2.75,21.33-4.82,22A97.08,97.08,0,0,1,297.46,327q-.91-2.39-1.66-4.65.57-3,.92-6.42a73.29,73.29,0,0,0-.09-14.9s-24.08-41.49-25.45-83c0,0-8.94-19.5-11.7-38.76s0-3.44,0-3.44q-.6-9.63-1.22-19.26l-5.76,2.22" fill="#c3996c"/><path d="M225.09,100.53v13.64s-3.67,12.53-19.27,11.92c0,0-18.65-4.58-17.42,8.56s-.06,1.53-.06,1.53,2.43,63.21,7.24,67.34c0,0-16.51,53.66-14.44,77.73,0,0-4.13,6.88-7.57,12.38a19.6,19.6,0,0,0,0,9.63s1.07,13.3,8.41,22.17a2.17,2.17,0,0,0,3.36,0s-.24-43.8-2.75-43.11l24.69-69.86s.68-42.65-4.13-57.09l58-1.32" fill="#c3996c"/><path d="M247.81,176.59c9.92.15,13.16-2,14.15-4.08.62-.93,5.42-8.33,2.46-16.78-.33-.95-2.19-6.25-6.86-8.73-6.6-3.51-17.38,0-25.24,9.65-5.77-9.12-17.06-11.15-23.62-6.43-4.72,3.41-6.85,10.23-5.27,17,.66,1.54,1.69,3.8,3.14,6.44,1.36,2.47,2.05,3.72,2.81,4.35,1.84,1.53,3.6,1.32,10.1,2.05,2.28.26,4.12.52,5.28.69" fill="#afc8d8"/><polyline points="226.88 134.51 225.6 129.01 206.46 129.01" fill="none" stroke="#231f20" stroke-miterlimit="10" stroke-width="0.5"/><polyline points="238.6 133.14 238.6 128.09 250.52 124.88" fill="none" stroke="#231f20" stroke-miterlimit="10" stroke-width="0.5"/><path d="M233,50.17s-20.64-2.75-14.22,39c0,0,2.75,16.51,14.22,22,0,0,10.09-2.29,14.67-19.26,0,0,11.47-30.8-12.38-41.77" fill="#c49a6c" stroke="#000" stroke-miterlimit="10" stroke-width="0.25"/><line x1="232.09" y1="50.13" x2="235.81" y2="50.33" fill="#c49a6c" stroke="#000" stroke-miterlimit="10" stroke-width="0.25"/><path d="M196.34,125.49a24.06,24.06,0,0,1,6.36.05c1.46.22,2.17.38,3.62.58a12.86,12.86,0,0,0,5.34-.45,67,67,0,0,0,20.06.82c7.84-.62,21.73-5.69,21.73-5.69a42.83,42.83,0,0,1,4.55-.23,42.14,42.14,0,0,1,8.71,1l.45,19.54q-.07,8.82-.13,17.64-1.18,5-2.38,10l-6.37,12.18q-6.4,17.12-12.8,34.24s10,10.91,12,15.27c3.8,8.25,11.85,21.27,14.22,27.09,5.88,14.42,24.22,78.88,45.07,167.89,0,2.89-.56,5.53-2.3,6.48-2.42,1.32-4.72-2.08-9.13-1.49-4,.54-4.45,3.65-8.27,3.69-3.37,0-3.68-2.37-6.5-1.92-3,.49-4.82,3.54-8,3.75a6.85,6.85,0,0,1-1.64-.08c-1.64-.36-2.34-1.51-5-1.42-4.18.15-5.11,3.13-8.58,2.7-2.8-.34-2.69-2.36-5.4-2.7-3.95-.49-5.49,3.62-9.5,3.08-2.46-.34-2.47-2-4.9-2.2-3.49-.34-4.42,2.91-8.13,3.64-5,1-6.69-4.38-12.26-3.83-4.5.46-5.37,4.06-9.52,3.66-3.3-.31-3.33-2.65-6.55-3.13-5-.74-6.86,4.57-12.26,4.22-3.79-.25-3.71-2.92-7.91-3.44-5.42-.68-7,3.56-11.85,2.7-4.11-.73-4.12-3.56-8.58-4.18-4.82-.67-6.14,2.6-9.27,1.2-3.7-1.65-3.89-5-7.79-5.58s-5.64,3.73-9.25,2.92c-3.24-.73-2.78-4.44-6.49-6-4.36-1.87-8.19,1.91-10.73-.07-1-.79-1.9-2.58-1.25-6.9,3.49-14.56,8.45-33.75,15.23-56.07,4.6-15.12,11.25-37.21,21.08-61.71a571.17,571.17,0,0,1,44.27-87.48l4.79-3.71-4.59-34.08c-1.84-6-3.6-12.48-5.18-19.34q-1.75-7.57-3-14.63Q197.39,134.47,196.34,125.49Z" fill="#e088b7"/><path d="M213.85,212.84c-.1,0-7.39,17-38.81,91.53C156.1,362.93,136,425.1,135.87,425.07S143.7,399.63,152.3,374C183.22,281.58,214.06,212.93,213.85,212.84Z" fill="#b67b8d"/><path d="M217.15,213.39c-.11,0-6.25,17.41-32.61,93.91-15,59.69-30.91,123.07-31,123.05s6.12-25.91,13-52.1C191.17,284,217.36,213.46,217.15,213.39Z" fill="#b67b8d"/><path d="M220.45,213.39c-.11,0-5.18,17.75-26.87,95.71-11.35,60.49-23.43,124.71-23.53,124.69s4.54-26.22,9.8-52.78C198.79,285.46,220.67,213.45,220.45,213.39Z" fill="#b67b8d"/><path d="M227.06,212.93c-.11,0-4.13,18-21.24,97.12-7.8,61-16.1,125.86-16.21,125.85s3-26.45,6.71-53.27C209.64,286.14,227.28,213,227.06,212.93Z" fill="#b67b8d"/><path d="M243.34,213.47c.11,0,6.29,17.4,32.87,93.83,15.15,59.65,31.26,123,31.36,123s-6.19-25.89-13.12-52.07C269.51,284,243.13,213.55,243.34,213.47Z" fill="#b67b8d"/><path d="M239.86,215.17c.1,0,5.33,17.46,27.71,94.14C279.45,368.83,292.09,432,292.2,432s-4.77-25.81-10.27-51.95C262.15,286.05,239.63,215.23,239.86,215.17Z" fill="#b67b8d"/><path d="M234.46,214.81c.11,0,4.44,17.71,22.92,95.42,8.85,60,18.28,123.8,18.39,123.79s-3.46-26-7.63-52.4C253.14,286.72,234.24,214.86,234.46,214.81Z" fill="#b67b8d"/><path d="M228.36,219c.11,0,1.18,17.51,5.41,94.2-1.86,58.33-3.82,120.27-3.72,120.27s1.17-25.21,1.72-50.88C233.77,290.24,228.14,219,228.36,219Z" fill="#b67b8d"/><path d="M234.93,255.4c.09,0,3,14.47,15.45,77.91C255.6,382.16,261.16,434,261.25,434s-2-21.15-4.48-42.62C247.71,314.16,234.74,255.43,234.93,255.4Z" fill="#b67b8d"/><path d="M222.43,258.34c-.09,0-2,14.33-9.74,77.11-1.76,48-3.63,99-3.72,99s.46-20.78,1.45-41.91C214,316.57,222.61,258.36,222.43,258.34Z" fill="#b67b8d"/><path d="M238.85,323.59c.06,0,1.32,9.15,6.56,49.2,1.14,30.51,2.37,62.9,2.43,62.91s-.29-13.19-1-26.62C244.55,360.78,238.72,323.6,238.85,323.59Z" fill="#b67b8d"/><polygon points="210.94 209.68 246.12 213.39 245.48 215.13 246.28 216.01 209.68 212.66 211.18 211.49 210.94 209.68"/><path d="M220.84,126.81l-1.29,33.55,1.8,50.42Z" fill="#e4b0d1"/><path d="M238,125.72c.71,10.69,1.17,21.88,1.29,33.54.2,18.93-.51,36.72-1.8,53.22Z" fill="#e4b0d1"/><circle cx="225.02" cy="138.86" r="1.35" fill="#e4b0d1"/><circle cx="233.86" cy="138.89" r="1.35" fill="#e4b0d1"/><circle cx="225.02" cy="157.38" r="1.35" fill="#e4b0d1"/><circle cx="233.86" cy="157.41" r="1.35" fill="#e4b0d1"/><circle cx="225.51" cy="174.39" r="1.35" fill="#e4b0d1"/><circle cx="234.35" cy="174.42" r="1.35" fill="#e4b0d1"/><circle cx="225.02" cy="195.19" r="1.35" fill="#e4b0d1"/><circle cx="233.86" cy="195.22" r="1.35" fill="#e4b0d1"/><path d="M250.45,617.87c.13,0,.4.83,2.13,12,.4,2.58.68,4.43,1.24,7.1.49,2.32.76,3.19,1.39,5.93.4,1.74,1,4.33,1.55,7.55a25.34,25.34,0,0,1-3.47,5.74,25.87,25.87,0,0,1-7.84,6.55H229.86l-5.51-8.26,2-17.52a14.87,14.87,0,0,0,7.25,8.67c4.17,2.07,9.7,2.16,13.15-.34C255.32,639.07,249.85,617.92,250.45,617.87Z" fill="#f6e1ee"/><path d="M218.34,629.63c.57.1-1.22,6.67,2.34,9.8a8.52,8.52,0,0,0,5.09,2,30.39,30.39,0,0,1,0,6.88,29.78,29.78,0,0,1-1.39,6.13l3.33,5.11c-2.27-1.5-7.18-5.85-7.62-6.16-2.81-1.74-5.81-5.44-6.17-7.29C216.88,632.54,218,629.56,218.34,629.63Z" fill="#f6e1ee"/><path d="M303.48,339.6c-.73-.71-6.43-12.29-7.6-17.21,0-2,.88-20.91.88-20.91l8-1.59a84.27,84.27,0,0,1,3.41,14.5c.14,1,.35,4.27.77,10.82.11,1.72.51,8.58-1.41,11.52a7.25,7.25,0,0,1-2.44,2.31A6.26,6.26,0,0,1,303.48,339.6Z" fill="#f6e1ee"/><path d="M231.35,49.18c-6.94.77-12.83.91-16.86,5.65-4.21,5-3.7,11.49-3.46,13.51a11,11,0,0,0-5,5.8c-2,5.78,2.15,10.77,2.34,11a9.1,9.1,0,0,0-.46,16.43l7.69-.8a8.13,8.13,0,0,0,4.64,3.66,8,8,0,0,0,4.87-.14,56.71,56.71,0,0,1-7.46-30.67c.16-3.84,1.45-10.19,5.69-12.17a4.37,4.37,0,0,1,1.25-.39c3.63-.54,5.9.63,8.64,1.25,6.11,1.38,8.74-2.8,12.73-.49a6.31,6.31,0,0,1,2.95,3.26c.26,1.08,2.19,10.69,1.69,13a50,50,0,0,1-9.12,26.9,12.14,12.14,0,0,0,7-2.5c1.92-1.55,2.1-2.88,4.36-4,2-1,2.63-.41,4.88-1.43a10.16,10.16,0,0,0,4.37-3.51c2.44-4-.59-9.3-.79-9.63a12.63,12.63,0,0,0,1.41-10.68,12.34,12.34,0,0,0-6.13-6.82A15,15,0,0,0,255,58.52a25.71,25.71,0,0,0-4.89-5.4C247.56,50.88,239.88,48.22,231.35,49.18Z" fill="#f4d598"/></g></svg>