<svg xmlns="http://www.w3.org/2000/svg" width="465.02" height="725.83" viewBox="0 0 465.02 725.83">
  <title>Artboard 4</title>
  <g id="model">
    <path d="M231.54,662.36C211.59,648,214,645.78,214,645.78,228.15,596.25,225.27,577,225.27,577c-22-53.1-22.62-163-22.62-163C165.5,270.19,191,234.76,191,234.76a169.59,169.59,0,0,1,14.27,15.08,168.47,168.47,0,0,1,14.62,20.35s4.13,96.3.69,141.71c0,0,9.63,121.07,10.31,154.77,0,0,10.32,63.91,5.51,79.8Z" style="fill: #bb895b"/>
    <path d="M241.92,256.26a10.84,10.84,0,0,0,6.59-2,11.79,11.79,0,0,0,2.58-3.07c1.49-1.94,5.08-3.64,14.51-2.17,0,0,17.43,46.52-22,145.25,0,0-4,8.84-3.38,34.52,0,0,4.29,56.87,5.21,69.71,0,0,6.42,24.76-.92,56.86,0,0-2.58,47.7,5.13,57.79,0,0,4.05,24.76,6.8,36.69,0,0,.91,4.58-11,12.84H229.83l-5.5-8.26L230.75,599l.91-28c-4.31-19.55-8.18-40.73-11.23-63.41a772.81,772.81,0,0,1-6.66-83.27q1.46-13.68,2.76-27.71c1.68-18.26,2.62-31.41,3.21-39.32C219.74,357.27,227.14,257.21,241.92,256.26Z" style="fill: #c49a6c"/>
    <path d="M255,174c-2.58,28.87-12,44.41-12,44.41H222l-10.7-5.49L208.25,173" style="fill: #afc8d8"/>
    <polyline points="237.64 137.51 237.64 132.47 249.56 129.26" style="fill: none;stroke: #231f20;stroke-miterlimit: 10"/>
    <polyline points="227.78 137.51 226.5 132.01 207.36 132.01" style="fill: none;stroke: #231f20;stroke-miterlimit: 10"/>
    <path d="M245.39,215.13s14.72,13.56,19.53,32.82c0,0-22.35,15.82-32.5,22H218.51s-16.18-17.2-27.88-32.33c0,0,3.78-14.45,20.46-26.14C211.09,211.49,243.3,218.15,245.39,215.13Z" style="fill: #afc8d8"/>
    <g>
      <path d="M224.43,102.68s4.13,21.47-12.38,23.33c0,0-8.94,15.81-8.94,31.54l21.78,9.29,31.87-4.57s11-39.49,6.19-36.26l-11-4.33s-8.26,6.4-11-16.4c0,0-3.44,10.42-12.38,0" style="fill: #c49a6c"/>
      <line x1="229.26" y1="106.07" x2="225.04" y2="104.28" style="fill: #c49a6c"/>
    </g>
    <path d="M238.35,105.18,243,118.44c1.53,2.86,9.58,2.53,16.81,2.07a16.87,16.87,0,0,1,9.69,2.4s7,0,6.12,21.4c0,0,4.58,40.06,6.42,71.7,0,0,7.56,12.83,13.76,58.24s0,3.44,0,3.44,13.07,27.51,12.38,39.89c0,0,2.75,21.33-4.82,22A97.08,97.08,0,0,1,297.46,327q-.91-2.39-1.66-4.65.57-3,.92-6.42a73.29,73.29,0,0,0-.09-14.9s-24.08-41.49-25.45-83c0,0-8.94-19.5-11.7-38.76s0-3.44,0-3.44q-.6-9.63-1.22-19.26l-5.76,2.22" style="fill: #c3996c"/>
    <path d="M225.09,100.53v13.64s-3.67,12.53-19.27,11.92c0,0-18.65-4.58-17.42,8.56s-.06,1.53-.06,1.53,2.43,63.21,7.24,67.34c0,0-16.51,53.66-14.44,77.73,0,0-4.13,6.88-7.57,12.38a19.6,19.6,0,0,0,0,9.63s1.07,13.3,8.41,22.17a2.17,2.17,0,0,0,3.36,0s-.24-43.8-2.75-43.11l24.69-69.86s.68-42.65-4.13-57.09l58-1.32" style="fill: #c3996c"/>
    <path d="M247.81,176.59c9.92.15,13.16-2,14.15-4.08.62-.93,5.42-8.33,2.46-16.78-.33-.95-2.19-6.25-6.86-8.73-6.6-3.51-17.38,0-25.24,9.65-5.77-9.12-17.06-11.15-23.62-6.43-4.72,3.41-6.85,10.23-5.27,17,.66,1.54,1.69,3.8,3.14,6.44,1.36,2.47,2.05,3.72,2.81,4.35,1.84,1.53,3.6,1.32,10.1,2.05,2.28.26,4.12.52,5.28.69" style="fill: #afc8d8"/>
    <polyline points="226.88 134.51 225.6 129.01 206.46 129.01" style="fill: none;stroke: #231f20;stroke-miterlimit: 10;stroke-width: 0.5px"/>
    <polyline points="238.6 133.14 238.6 128.09 250.52 124.88" style="fill: none;stroke: #231f20;stroke-miterlimit: 10;stroke-width: 0.5px"/>
    <g>
      <path d="M233,50.17s-20.64-2.75-14.22,39c0,0,2.75,16.51,14.22,22,0,0,10.09-2.29,14.67-19.26,0,0,11.47-30.8-12.38-41.77" style="fill: #c49a6c;stroke: #000;stroke-miterlimit: 10;stroke-width: 0.25px"/>
      <line x1="232.09" y1="50.13" x2="235.81" y2="50.33" style="fill: #c49a6c;stroke: #000;stroke-miterlimit: 10;stroke-width: 0.25px"/>
    </g>
  </g>
  <g id="_2010" data-name="2010">
    <g>
      <path d="M244.05,605.31a17.1,17.1,0,0,0,1.57,2.66l3.32-.9,4.66-4.91-8-23.28q-.92,6-1.82,12C242.79,593.56,241.25,599.39,244.05,605.31Z" style="fill: #0c0c0c;stroke: #0c0c0c;stroke-miterlimit: 10;stroke-width: 1.09563261556404px"/>
      <path d="M232.67,43.24a21.45,21.45,0,0,1,8.86,1.91c6.66,3.08,12.33,24.7,12.51,54.27l8,29.35h0l2.44,13.75-61.75-10.39,11.92-25.38,1.83-9.17c-2.35-27.61,1.45-48.41,7.86-51.91A21.29,21.29,0,0,1,232.67,43.24Z" style="fill: #341514"/>
      <path d="M230.87,659.74c-20-14.38-17.52-16.58-17.52-16.58,14.12-49.53,11.25-68.79,11.25-68.79-22-53.1-22.62-163-22.62-163-37.15-143.77-11.7-179.2-11.7-179.2,10.51,9.18,31.87,36.4,29,37.3,1.29,8.8,2.76,126.39.76,141.78C232.5,598.7,242.47,640.7,230.87,659.74Z" style="fill: #bb895b"/>
      <path d="M241.24,253.64c9.64,0,7.87-10.67,23.69-7.22,0,0,2.54,6.79,3.49,20.79,3.8,43.29-14.23,92.29-27.55,132.81-3.83,32,3.9,87.56,4.52,98.9,4.93,63.82-10.28,73.45,5.94,125.5,2.25,23,11.49,21.77-6.58,35.66h-15.6l-5.5-8.26c2.21-19.89,7.48-57.3,7.28-81.55-10.1-55.71-23.3-122.48-14-188.34C220.41,343.39,224.86,260.59,241.24,253.64Z" style="fill: #c49a6c"/>
      <path d="M219.61,310.94c-.66.23-1.32.47-2,.69a4.89,4.89,0,0,1-1.4,7.16c-6.89,4.43-19.41,7.67-26.75,3.37-1.58,2.64-3.18,5.27-4.75,7.9,3.05,21.83,8.18,48.07,16.3,79.48,0,0,.57,109.93,22.62,163,0,0,2.87,19.27-11.25,68.79,0,0-2.43,2.2,17.52,16.58,11.6-19,1.63-61-10.86-248.52C220.33,399.69,220.2,349.06,219.61,310.94Z" style="fill: #b53828;stroke: #000;stroke-miterlimit: 10;stroke-width: 0.25px"/>
      <path d="M253.27,626.58c-16.22-52-1-61.67-5.94-125.49-.62-11.35-8.35-66.93-4.52-98.9,2.73-8.32,5.65-17,8.55-25.92a25.16,25.16,0,0,1-6.66,0,4.81,4.81,0,0,1-2.92.91,4.66,4.66,0,0,1-3.29-1.22,5.3,5.3,0,0,1-1.75.3,5.79,5.79,0,0,1-.75-.07,4.82,4.82,0,0,1-2.69.76,4.55,4.55,0,0,1-3.82-1.82,29.08,29.08,0,0,1-5.35-.32,5,5,0,0,1-2.3.53,5.11,5.11,0,0,1-2.18-.46c-.27,3.26-.53,6.36-.79,9.18-9.29,65.86,3.91,132.64,14,188.35.2,24.24-5.06,61.65-7.27,81.54l5.5,8.26h15.59C264.76,648.36,255.52,649.61,253.27,626.58Z" style="fill: #b53828;stroke: #000;stroke-miterlimit: 10;stroke-width: 0.25px"/>
      <path d="M255.05,173.06c-2.57,28.87-12,44.41-12,44.41-9.3.18-23.49,1.27-31.76-5.49q-1.53-19.95-3.05-39.9" style="fill: #afc8d8"/>
      <polyline points="237.66 136.55 237.66 131.51 249.59 128.3" style="fill: none;stroke: #231f20;stroke-miterlimit: 10"/>
      <polyline points="227.81 136.55 226.52 131.05 207.39 131.05" style="fill: none;stroke: #231f20;stroke-miterlimit: 10"/>
      <path d="M245.42,214.17S260.14,227.73,265,247c0,0-22.36,15.82-32.5,22H218.54s-16.19-17.2-27.88-32.33c0,0,3.78-14.45,20.46-26.14C211.12,210.53,243.33,217.19,245.42,214.17Z" style="fill: #afc8d8"/>
      <g>
        <path d="M224.46,101.72s4.12,21.47-12.39,23.33c0,0-8.94,15.81-8.94,31.54l21.78,9.29,31.88-4.57s11-39.49,6.19-36.26l-11-4.32s-8.25,6.39-11-16.41c0,0-3.44,10.42-12.39,0" style="fill: #c49a6c"/>
        <line x1="229.28" y1="105.12" x2="225.06" y2="103.32" style="fill: #c49a6c"/>
      </g>
      <path d="M238.37,104.22c5.53,26,16,9.92,31.19,17.73,8.14-2.84,9.55,67.46,12.55,93.12,1.76-.76,12.38,37.54,16.49,79.32-.05.63-2.73-17.56-2.75-17.66,3.48,5.09,22.52,54.43,7.57,61.91-10.3-11-4.88-39.75-7.71-40.23-15.07-24.23-27.47-81.08-37.4-129.61.19.2,1.15,5.85,1.2,6.11q-.61-9.63-1.22-19.26l-5.76,2.22" style="fill: #c3996c"/>
      <path d="M225.11,99.57c4.13,44.16-38.77,10.75-36.74,35.65,0,0,2.42,63.21,7.24,67.34,0,0-16.51,53.66-14.45,77.73-15.65,16.37-3.21,46.78,4.21,44.18,0,0-.24-43.8-2.76-43.11,22.26-62.38,31.3-75.26,20.57-127l58-1.32" style="fill: #c3996c"/>
      <path d="M247.83,175.64c36.39-.51,10.44-53-15.48-19.95-27.39-30.69-45.75,26-7.57,24.07" style="fill: #c3996c"/>
      <polyline points="226.9 133.55 225.62 128.05 206.49 128.05" style="fill: none;stroke: #231f20;stroke-miterlimit: 10;stroke-width: 0.5px"/>
      <polyline points="238.63 132.18 238.63 127.13 250.55 123.92" style="fill: none;stroke: #231f20;stroke-miterlimit: 10;stroke-width: 0.5px"/>
      <g>
        <path d="M233,49.21c-19-3.24-22.64,48.23,0,61,11.15-.81,31.94-46.27,2.29-61" style="fill: #c49a6c;stroke: #000;stroke-miterlimit: 10;stroke-width: 0.25px"/>
        <line x1="232.11" y1="49.17" x2="235.84" y2="49.38" style="fill: #c49a6c;stroke: #000;stroke-miterlimit: 10;stroke-width: 0.25px"/>
      </g>
      <path d="M267,121A59.07,59.07,0,0,0,262.08,135a59.75,59.75,0,0,0-.31,22.93,230.16,230.16,0,0,0,3.06,60.23q3.85,13.19,7.64,26.6,3.91,13.85,7.65,27.52a406.87,406.87,0,0,1,8.25,44.94,409.09,409.09,0,0,1,3.21,49.53A130.43,130.43,0,0,1,254,377.64c-33.7,4.43-60.67-5.61-73.57-11.49-.4-23.29.17-43,.92-58.09,1.42-28.94,2.43-42.61,6.91-55.87a206.84,206.84,0,0,1,12-27.6c2.33-4.33,4.46-7.86,6-10.34a139.57,139.57,0,0,0,1-15c0-3.09,0-6-.18-8.85a49.82,49.82,0,0,0-1.9-20.35,47.28,47.28,0,0,0-2.05-5.36c0-1.3-.1-2.61-.18-3.95-.19-3.29-.47-6.46-.83-9.49a75.61,75.61,0,0,0-.91-11.62c-1.31-8.36-3.57-13.77-1.51-15.23.91-.64,2,0,4.19.39a21.3,21.3,0,0,0,11.59-1.27c-.14.72-1.6,8.71,3.17,12.55,2.16,1.74,4.68,1.85,7.57,2.07a24.9,24.9,0,0,0,13.33-2.62A26,26,0,0,0,252,120.73Z" style="fill: #f9cc40"/>
      <path d="M262.68,204a66.23,66.23,0,0,1-27.84,5.73,69.32,69.32,0,0,1-25.57-5.58c-.59-.25-1.11-.49-1.57-.7,0,0,0,0-.08,0,0,.9,0,1.95,0,2.73a34.69,34.69,0,0,1-.86,6.85A59.09,59.09,0,0,0,220.75,219c17.61,4.86,32.62-.73,42.69-6.53Z" style="fill: #231f20;stroke: #231f20;stroke-miterlimit: 10;stroke-width: 0.726210757813941px"/>
      <path d="M206.82,208.26h0c0,.63-.07,1.33-.07,1.59a9.28,9.28,0,0,0,.15,1.76c1.25.57,2.91,1.29,4.86,2a65.21,65.21,0,0,0,10.31,2.75,75.18,75.18,0,0,0,11.13,1.06c12.82.15,26.69-4.94,30.06-6.22a2.52,2.52,0,0,1-.13-.33,5,5,0,0,1-.13-1.95,138.63,138.63,0,0,1-28.18,2.57,123.42,123.42,0,0,1-27.2-3.05Z" style="fill: #ee332a"/>
      <g>
        <path d="M206,171.24h0s-.06,1.54-.07,1.9a24.85,24.85,0,0,0,.2,3.85,83.17,83.17,0,0,0,13.6,3.38,86.87,86.87,0,0,0,41.62-3.71c-.08-1.54-.16-3.08-.25-4.62a113.77,113.77,0,0,1-27.63,3.05s-14.31-.2-26.69-3.63Z" style="fill: #231f20;stroke: #231f20;stroke-miterlimit: 10;stroke-width: 0.540834527837955px"/>
        <path d="M206.18,174.29h0c0,.36-.07.76-.07.9a3.23,3.23,0,0,0,.14,1c1.23.33,2.84.73,4.75,1.14a99.64,99.64,0,0,0,10.05,1.56s5.35.57,10.85.61c12.5.09,26-2.81,29.31-3.54a.91.91,0,0,1-.13-.19,1.7,1.7,0,0,1-.12-1.11,229.38,229.38,0,0,1-27.47,1.47A204.77,204.77,0,0,1,207,174.4Z" style="fill: #ee332a"/>
      </g>
      <g>
        <path d="M207.48,179.61h0s-.06,1.54-.07,1.89a25,25,0,0,0,.2,3.86,85.26,85.26,0,0,0,13.6,3.38A87,87,0,0,0,262.83,185c-.08-1.54-.16-3.08-.25-4.62a113.28,113.28,0,0,1-27.63,3s-14.31-.19-26.69-3.63Z" style="fill: #231f20;stroke: #231f20;stroke-miterlimit: 10;stroke-width: 0.540834527837955px"/>
        <path d="M207.63,182.66h0c0,.36-.06.76-.06.91a3,3,0,0,0,.14,1c1.23.32,2.84.73,4.75,1.13a98.4,98.4,0,0,0,10,1.57s5.34.57,10.85.61c12.5.08,26-2.82,29.31-3.55a.7.7,0,0,1-.13-.19,1.67,1.67,0,0,1-.12-1.1,231.79,231.79,0,0,1-27.48,1.46,203.13,203.13,0,0,1-26.53-1.74Z" style="fill: #ee332a"/>
      </g>
      <g>
        <path d="M207.48,188.82h0s-.06,1.54-.07,1.89a25,25,0,0,0,.2,3.86,84.23,84.23,0,0,0,13.6,3.37,86.87,86.87,0,0,0,41.62-3.71c-.08-1.54-.16-3.08-.25-4.62a113.28,113.28,0,0,1-27.63,3s-14.31-.19-26.69-3.63Z" style="fill: #231f20;stroke: #231f20;stroke-miterlimit: 10;stroke-width: 0.540834527837955px"/>
        <path d="M207.63,191.87h0c0,.36-.06.76-.06.9a2.94,2.94,0,0,0,.14,1c1.23.33,2.84.74,4.75,1.14a101.55,101.55,0,0,0,10,1.57s5.34.57,10.85.6c12.5.09,26-2.81,29.31-3.54a.7.7,0,0,1-.13-.19,1.67,1.67,0,0,1-.12-1.1,231.79,231.79,0,0,1-27.48,1.46A203.13,203.13,0,0,1,208.41,192Z" style="fill: #ee332a"/>
      </g>
      <g>
        <path d="M181.36,313.05h0s-.11,2.71-.13,3.32a40.44,40.44,0,0,0,.39,6.78,177.75,177.75,0,0,0,26.45,5.94A185.89,185.89,0,0,0,289,322.56l-.48-8.12a243.61,243.61,0,0,1-53.74,5.37s-27.83-.35-51.9-6.38Z" style="fill: #231f20;stroke: #231f20;stroke-miterlimit: 10"/>
        <path d="M180.91,317.9h0c-.06.64-.12,1.33-.13,1.59a5.2,5.2,0,0,0,.29,1.76c2.41.57,5.6,1.29,9.36,2,2.06.39,9.56,1.78,19.83,2.75,0,0,10.55,1,21.41,1.07,24.67.15,51.33-4.95,57.81-6.23a1.76,1.76,0,0,1-.24-.33,2.67,2.67,0,0,1-.25-1.95,509.21,509.21,0,0,1-54.2,2.58,452.06,452.06,0,0,1-52.34-3.06Z" style="fill: #ee332a"/>
        <path d="M182.92,285.93s-.11,2.71-.13,3.33a43.44,43.44,0,0,0,.37,6.78,165.87,165.87,0,0,0,25.3,5.94c31.93,4.86,59.15-.73,77.4-6.54l-1.71-7.84A224.21,224.21,0,0,1,262,291.27a222.29,222.29,0,0,1-28,1.42,203,203,0,0,1-49.62-6.38Z" style="fill: #231f20;stroke: #231f20;stroke-miterlimit: 10;stroke-width: 0.977859497070313px"/>
        <path d="M182.83,290h0c-.07.6-.13,1.25-.14,1.49a4.73,4.73,0,0,0,.25,1.65c2.26.57,5.23,1.27,8.75,2,1.93.39,8.94,1.77,18.56,2.79,0,0,9.87,1.05,20.06,1.22,23.11.4,48.16-4.1,54.25-5.23a2.62,2.62,0,0,1-.23-.32,2.48,2.48,0,0,1-.21-1.82,476.81,476.81,0,0,1-50.83,1.84,422.68,422.68,0,0,1-49-3.4Z" style="fill: #ee332a"/>
        <path d="M181.37,340.16h0s-.12,2.71-.14,3.33a40.48,40.48,0,0,0,.39,6.78,182.83,182.83,0,0,0,26.84,5.94,191.39,191.39,0,0,0,82.12-6.53c-.17-2.71-.33-5.42-.5-8.12a250.55,250.55,0,0,1-54.52,5.37s-28.22-.35-52.65-6.39Z" style="fill: #231f20;stroke: #231f20;stroke-miterlimit: 10;stroke-width: 1.00722193717957px"/>
        <path d="M181.91,344.53h0c-.06.64-.12,1.33-.13,1.59a5.2,5.2,0,0,0,.29,1.76c2.41.58,5.6,1.29,9.36,2,2.06.39,9.56,1.78,19.83,2.75,0,0,10.55,1,21.41,1.07,24.67.15,51.33-4.95,57.81-6.23a1.76,1.76,0,0,1-.24-.33,2.67,2.67,0,0,1-.25-1.95,509.21,509.21,0,0,1-54.2,2.58,452.06,452.06,0,0,1-52.34-3.06Z" style="fill: #ee332a"/>
      </g>
      <path d="M258.78,651.72a22.93,22.93,0,0,0-.92-6.19,23.17,23.17,0,0,0-2.41-5.48,3.49,3.49,0,0,1,1-.25,17.13,17.13,0,0,1-3.3,1.49,26.07,26.07,0,0,1-6.38,1.27,37.39,37.39,0,0,1-11.4-.59,6.08,6.08,0,0,1-1.7-.07c1.14.21-.16,0-.44,0h-1.44c-.8,0-1.6,0-2.4,0a13.86,13.86,0,0,1-2.39-.41l-.3,0L225.29,654l5.51,8.26,17.89,0Z" style="fill: #0c0c0c"/>
      <path d="M227.14,654.93c-1.85.69-4.69-1.78-7.95-4.58a37,37,0,0,1-7-8.05q1.78-5.5,3.58-11a8,8,0,0,0,1.81,1.8,8.69,8.69,0,0,0,1.23.73c1.32.63,4.83,1,9.45.7C230.42,649.86,229.07,654.21,227.14,654.93Z" style="fill: #231f20;stroke: #231f20;stroke-miterlimit: 10;stroke-width: 0.263919502496719px"/>
      <path d="M256.49,642.78q-1.62-8.1-3.23-16.2l-6.74-29.68" style="fill: none;stroke: #0c0c0c;stroke-miterlimit: 10"/>
      <path d="M232.86,572.44s5.39,4.95,13.66,0" style="fill: none;stroke: #231f20;stroke-miterlimit: 10;stroke-width: 2.23809027671814px"/>
      <line x1="242.04" y1="642.78" x2="239.69" y2="575.59" style="fill: none;stroke: #231f20;stroke-miterlimit: 10"/>
      <line x1="224.11" y1="637.93" x2="228.82" y2="570.87" style="fill: none;stroke: #231f20;stroke-miterlimit: 10"/>
      <path d="M223.15,570.32s3.46,2.62,8.78,0" style="fill: none;stroke: #231f20;stroke-miterlimit: 10;stroke-width: 1.30580767885321px"/>
      <path d="M223.6,51.89q-1.08,2.38-2.17,4.77c-.81,2.52-1.59,5.16-2.33,7.9q-.57,2.16-1.08,4.26a129.32,129.32,0,0,0,24.85.2c1.87-.17,3.71-.38,5.5-.62A15.41,15.41,0,0,0,223.6,51.89Z" style="fill: #341514"/>
    </g>
  </g>
</svg>
