<svg id="Layer_1" data-name="Layer 1" xmlns="http://www.w3.org/2000/svg" width="465.02" height="725.83" viewBox="0 0 465.02 725.83">
  <title>Artboard 8</title>
  <path d="M203.11,644.85a17.43,17.43,0,0,0,1.57,2.66l3.32-.9,4.67-4.91-8-23.28q-.9,6-1.81,12C201.85,633.11,200.31,638.93,203.11,644.85Z" style="fill: #0c0c0c;stroke: #0c0c0c;stroke-miterlimit: 10;stroke-width: 1.09563261556404px"/>
  <path d="M191.74,82.78a21.47,21.47,0,0,1,8.86,1.91c6.65,3.08,12.33,24.7,12.5,54.27l8,29.35h0s.85,4.79,2.45,13.75l-61.76-10.39,11.92-25.38c.61-3,1.23-6.11,1.84-9.17-2.36-27.61,1.44-48.41,7.85-51.91A21.32,21.32,0,0,1,191.74,82.78Z" style="fill: #341514"/>
  <path d="M189.93,699.28c-20-14.38-17.52-16.58-17.52-16.58,14.13-49.53,11.25-68.79,11.25-68.79-22-53.1-22.62-163-22.62-163-37.15-143.77-11.7-179.2-11.7-179.2,10.51,9.18,31.88,36.4,29,37.3,1.29,8.8,2.77,126.39.77,141.78C191.56,638.24,201.53,680.24,189.93,699.28Z" style="fill: #bb895b"/>
  <path d="M200.31,293.18c9.63,0,7.86-10.67,23.68-7.22,0,0,2.54,6.79,3.49,20.79,3.8,43.29-14.23,92.29-27.55,132.81-3.83,32,3.9,87.56,4.52,98.9,4.93,63.82-10.28,73.45,5.94,125.5,2.25,23,11.49,21.77-6.58,35.66H188.22l-5.51-8.26c2.22-19.89,7.48-57.3,7.28-81.54-10.1-55.71-23.29-122.49-14-188.35C179.47,382.93,183.92,300.13,200.31,293.18Z" style="fill: #c49a6c"/>
  <path d="M178.68,350.49l-2,.68a4.89,4.89,0,0,1-1.4,7.16c-6.89,4.43-19.41,7.67-26.75,3.37l-4.75,7.91c3.06,21.82,8.18,48.06,16.3,79.47,0,0,.57,109.93,22.62,163,0,0,2.88,19.26-11.25,68.79,0,0-2.43,2.19,17.52,16.57,11.6-19,1.63-61-10.85-248.52C179.39,439.23,179.27,388.6,178.68,350.49Z" style="fill: #b53828;stroke: #000;stroke-miterlimit: 10;stroke-width: 0.25px"/>
  <path d="M212.33,666.12c-16.22-52-1-61.67-5.94-125.49-.62-11.35-8.35-66.93-4.52-98.9,2.73-8.31,5.65-17,8.55-25.92a25.16,25.16,0,0,1-6.66,0,4.77,4.77,0,0,1-2.92.91,4.68,4.68,0,0,1-3.29-1.22,5.3,5.3,0,0,1-1.75.3,5.79,5.79,0,0,1-.75-.07,4.82,4.82,0,0,1-2.69.76,4.57,4.57,0,0,1-3.82-1.81,29.88,29.88,0,0,1-5.34-.33,5,5,0,0,1-2.31.53,5.11,5.11,0,0,1-2.18-.46c-.27,3.26-.53,6.36-.78,9.18-9.3,65.86,3.9,132.64,14,188.35.21,24.24-5.06,61.65-7.27,81.55l5.5,8.25h15.59C223.82,687.9,214.58,689.15,212.33,666.12Z" style="fill: #b53828;stroke: #000;stroke-miterlimit: 10;stroke-width: 0.25px"/>
  <g>
    <path d="M214.12,212.6c-2.58,28.87-12,44.41-12,44.41-9.3.18-23.49,1.27-31.75-5.49l-3.06-39.9" style="fill: #afc8d8"/>
    <polyline points="196.73 176.09 196.73 171.05 208.65 167.84" style="fill: none;stroke: #231f20;stroke-miterlimit: 10"/>
    <polyline points="186.87 176.09 185.59 170.59 166.45 170.59" style="fill: none;stroke: #231f20;stroke-miterlimit: 10"/>
    <path d="M204.48,253.71S219.2,267.27,224,286.53c0,0-22.35,15.82-32.5,22H177.6s-16.19-17.19-27.88-32.33c0,0,3.78-14.44,20.46-26.14C170.18,250.07,202.39,256.73,204.48,253.71Z" style="fill: #afc8d8"/>
    <g>
      <path d="M183.52,141.26s4.13,21.47-12.38,23.34c0,0-8.95,15.8-8.95,31.53L184,205.42l31.87-4.57s11-39.49,6.19-36.25l-11-4.33s-8.25,6.39-11-16.41c0,0-3.44,10.42-12.38,0" style="fill: #c49a6c"/>
      <line x1="188.34" y1="144.66" x2="184.12" y2="142.86" style="fill: #c49a6c"/>
    </g>
    <path d="M197.44,143.76c5.52,26,16,9.92,31.18,17.73,8.15-2.84,9.55,67.46,12.55,93.12,1.77-.76,12.38,37.54,16.49,79.32-.05.63-2.73-17.56-2.75-17.66,3.49,5.09,22.52,54.43,7.57,61.91-10.29-11-4.88-39.75-7.7-40.23-15.08-24.23-27.48-81.08-37.41-129.61.19.2,1.15,5.86,1.2,6.11q-.6-9.63-1.22-19.26l-5.76,2.22" style="fill: #c3996c"/>
    <path d="M184.17,139.11c4.13,44.16-38.76,10.75-36.74,35.65,0,0,2.43,63.21,7.24,67.34,0,0-16.51,53.66-14.44,77.73-15.66,16.38-3.22,46.78,4.2,44.18,0,0-.24-43.8-2.75-43.11C163.93,258.52,173,245.64,162.24,194l58-1.32" style="fill: #c3996c"/>
    <path d="M206.89,215.18c36.39-.51,10.45-53-15.48-20-27.39-30.69-45.75,26.05-7.57,24.07" style="fill: #c3996c"/>
    <polyline points="185.97 173.09 184.68 167.59 165.55 167.59" style="fill: none;stroke: #231f20;stroke-miterlimit: 10;stroke-width: 0.5px"/>
    <polyline points="197.69 171.72 197.69 166.67 209.61 163.46" style="fill: none;stroke: #231f20;stroke-miterlimit: 10;stroke-width: 0.5px"/>
    <g>
      <path d="M192.06,88.75c-19-3.24-22.63,48.23,0,61,11.15-.81,31.95-46.27,2.29-61" style="fill: #c49a6c;stroke: #000;stroke-miterlimit: 10;stroke-width: 0.25px"/>
      <line x1="191.18" y1="88.71" x2="194.9" y2="88.92" style="fill: #c49a6c;stroke: #000;stroke-miterlimit: 10;stroke-width: 0.25px"/>
    </g>
    <path d="M226,160.49a59.07,59.07,0,0,0-4.89,14.06,59.75,59.75,0,0,0-.31,22.93,232.54,232.54,0,0,0-.46,29.84,229.41,229.41,0,0,0,3.52,30.39q3.86,13.19,7.65,26.6,3.9,13.85,7.64,27.52a406.87,406.87,0,0,1,8.25,44.94,405.06,405.06,0,0,1,3.21,49.53,130.43,130.43,0,0,1-37.56,10.88c-33.69,4.43-60.67-5.61-73.57-11.49-.4-23.29.17-43,.92-58.09,1.42-28.94,2.43-42.6,6.91-55.87a206.84,206.84,0,0,1,12-27.6c2.33-4.33,4.46-7.86,6-10.34a139.45,139.45,0,0,0,1-15c0-3.09,0-6-.19-8.85a49.82,49.82,0,0,0-1.9-20.35,47.28,47.28,0,0,0-2.05-5.36c0-1.3-.1-2.61-.18-3.95-.19-3.29-.47-6.46-.82-9.49a77.2,77.2,0,0,0-.92-11.62c-1.3-8.35-3.56-13.77-1.51-15.23.91-.64,2,0,4.19.39A21.38,21.38,0,0,0,174.57,163c-.14.71-1.6,8.7,3.17,12.54,2.16,1.74,4.68,1.85,7.57,2.07A24.9,24.9,0,0,0,198.64,175,26,26,0,0,0,211,160.27Z" style="fill: #f9cc40"/>
    <path d="M221.74,243.57a66.16,66.16,0,0,1-27.84,5.73,69.32,69.32,0,0,1-25.57-5.58c-.59-.25-1.11-.48-1.57-.7l-.08,0c0,.9.06,1.95,0,2.73a34,34,0,0,1-.86,6.85,59.09,59.09,0,0,0,13.95,5.94c17.61,4.87,32.63-.73,42.69-6.53Z" style="fill: #231f20;stroke: #231f20;stroke-miterlimit: 10;stroke-width: 0.726210757813941px"/>
    <path d="M165.88,247.8h0c0,.63-.06,1.33-.07,1.59a9.28,9.28,0,0,0,.15,1.76c1.25.57,2.91,1.29,4.86,2a65.21,65.21,0,0,0,10.31,2.75A76.17,76.17,0,0,0,192.26,257c12.83.15,26.69-5,30.06-6.23a2.52,2.52,0,0,1-.13-.33,5,5,0,0,1-.13-1.95A138.6,138.6,0,0,1,193.89,251a123.44,123.44,0,0,1-27.21-3Z" style="fill: #ee332a"/>
    <g>
      <path d="M165.08,210.78h0s-.06,1.55-.07,1.9a26.2,26.2,0,0,0,.2,3.85,83.43,83.43,0,0,0,13.6,3.38,86.92,86.92,0,0,0,41.63-3.71c-.09-1.54-.17-3.08-.25-4.62a113.86,113.86,0,0,1-27.64,3s-14.31-.2-26.69-3.63Z" style="fill: #231f20;stroke: #231f20;stroke-miterlimit: 10;stroke-width: 0.540834527837955px"/>
      <path d="M165.24,213.83h0c0,.36-.06.76-.07.9a3,3,0,0,0,.15,1c1.22.33,2.83.74,4.74,1.14a101.55,101.55,0,0,0,10.05,1.57s5.35.56,10.86.6c12.5.09,26-2.81,29.3-3.54a1.56,1.56,0,0,1-.13-.19,1.7,1.7,0,0,1-.12-1.11,229.38,229.38,0,0,1-27.47,1.47A203,203,0,0,1,166,213.94Z" style="fill: #ee332a"/>
    </g>
    <g>
      <path d="M166.54,219.15h0s-.06,1.54-.07,1.89a25,25,0,0,0,.2,3.86,85.53,85.53,0,0,0,13.6,3.38,87,87,0,0,0,41.63-3.72c-.09-1.54-.17-3.08-.26-4.62A113.73,113.73,0,0,1,194,223s-14.31-.2-26.69-3.63Z" style="fill: #231f20;stroke: #231f20;stroke-miterlimit: 10;stroke-width: 0.540834527837955px"/>
      <path d="M166.7,222.2h0c0,.36-.07.76-.07.91a3.09,3.09,0,0,0,.15,1c1.22.32,2.83.73,4.74,1.13a98.4,98.4,0,0,0,10,1.57s5.35.57,10.85.61c12.51.08,26-2.82,29.31-3.55a.83.83,0,0,1-.13-.18,1.7,1.7,0,0,1-.12-1.11A231.73,231.73,0,0,1,194,224a203,203,0,0,1-26.53-1.74Z" style="fill: #ee332a"/>
    </g>
    <g>
      <path d="M166.54,228.36h0s-.06,1.54-.07,1.89a25,25,0,0,0,.2,3.86,85.53,85.53,0,0,0,13.6,3.38,87,87,0,0,0,41.63-3.72c-.09-1.54-.17-3.08-.26-4.62a113.28,113.28,0,0,1-27.63,3s-14.31-.19-26.69-3.63Z" style="fill: #231f20;stroke: #231f20;stroke-miterlimit: 10;stroke-width: 0.540834527837955px"/>
      <path d="M166.7,231.41h0c0,.36-.07.76-.07.91a3.09,3.09,0,0,0,.15,1c1.22.32,2.83.73,4.74,1.13a98.4,98.4,0,0,0,10,1.57s5.35.57,10.85.61c12.51.08,26-2.82,29.31-3.55a.7.7,0,0,1-.13-.19,1.67,1.67,0,0,1-.12-1.1A231.73,231.73,0,0,1,194,233.25a203,203,0,0,1-26.53-1.74Z" style="fill: #ee332a"/>
    </g>
  </g>
  <g>
    <path d="M140.43,352.59h0s-.12,2.71-.14,3.33a41.45,41.45,0,0,0,.39,6.77,177.75,177.75,0,0,0,26.45,5.94,185.78,185.78,0,0,0,81-6.53q-.26-4.05-.49-8.12a243,243,0,0,1-53.74,5.37S166,359,142,353Z" style="fill: #231f20;stroke: #231f20;stroke-miterlimit: 10"/>
    <path d="M140,357.44h0c-.07.64-.13,1.34-.14,1.59a5.2,5.2,0,0,0,.29,1.76c2.42.58,5.6,1.29,9.36,2,2.06.39,9.56,1.78,19.83,2.75,0,0,10.55,1,21.41,1.07,24.67.15,51.33-4.95,57.82-6.23a1.78,1.78,0,0,1-.25-.33,2.72,2.72,0,0,1-.25-1.95,509.21,509.21,0,0,1-54.2,2.58,451.89,451.89,0,0,1-52.33-3.06Z" style="fill: #ee332a"/>
    <path d="M142,325.47s-.1,2.71-.12,3.33a43.14,43.14,0,0,0,.36,6.78,165,165,0,0,0,25.3,5.94c31.93,4.86,59.16-.73,77.4-6.53l-1.71-7.85A223.72,223.72,0,0,1,221,330.81a220.42,220.42,0,0,1-28,1.42,203,203,0,0,1-49.62-6.38Z" style="fill: #231f20;stroke: #231f20;stroke-miterlimit: 10;stroke-width: 0.977859497070313px"/>
    <path d="M141.89,329.56h0c-.07.59-.12,1.24-.14,1.48a4.81,4.81,0,0,0,.26,1.65c2.25.57,5.23,1.27,8.74,2,1.93.38,8.94,1.76,18.56,2.78,0,0,9.88,1.05,20.06,1.22,23.11.4,48.16-4.1,54.25-5.23a2,2,0,0,1-.23-.32,2.48,2.48,0,0,1-.21-1.82,479,479,0,0,1-50.82,1.85,425.11,425.11,0,0,1-49-3.41Z" style="fill: #ee332a"/>
    <path d="M140.43,379.7h0s-.12,2.71-.14,3.33a40.75,40.75,0,0,0,.4,6.78,182.39,182.39,0,0,0,26.83,5.94,191.37,191.37,0,0,0,82.12-6.53c-.17-2.71-.33-5.42-.5-8.12a250.55,250.55,0,0,1-54.52,5.37s-28.22-.35-52.65-6.38Z" style="fill: #231f20;stroke: #231f20;stroke-miterlimit: 10;stroke-width: 1.00722193717957px"/>
    <path d="M141,384.07h0c-.07.64-.13,1.34-.14,1.59a5.17,5.17,0,0,0,.29,1.76c2.42.58,5.6,1.29,9.36,2,2.06.39,9.56,1.78,19.83,2.75,0,0,10.55,1,21.41,1.07,24.67.15,51.33-4.95,57.82-6.23a1.78,1.78,0,0,1-.25-.33,2.72,2.72,0,0,1-.25-1.95,509.21,509.21,0,0,1-54.2,2.58,451.89,451.89,0,0,1-52.33-3.06Z" style="fill: #ee332a"/>
  </g>
  <path d="M217.84,691.26a22.53,22.53,0,0,0-.92-6.19,22.77,22.77,0,0,0-2.41-5.48,3.88,3.88,0,0,1,1-.25,16.81,16.81,0,0,1-3.3,1.49,26.07,26.07,0,0,1-6.38,1.27,37.08,37.08,0,0,1-11.4-.59,6,6,0,0,1-1.69-.07c1.13.22-.17,0-.45,0H190.9c-.81,0-1.61,0-2.41,0a13.86,13.86,0,0,1-2.39-.41l-.29,0-1.45,12.54,5.5,8.25,17.89,0Z" style="fill: #0c0c0c"/>
  <path d="M186.2,694.47c-1.85.69-4.69-1.78-7.95-4.58a37,37,0,0,1-7-8q1.8-5.51,3.58-11a8,8,0,0,0,1.81,1.8,8.47,8.47,0,0,0,1.24.73c1.31.63,4.82,1,9.44.7C189.48,689.4,188.13,693.75,186.2,694.47Z" style="fill: #231f20;stroke: #231f20;stroke-miterlimit: 10;stroke-width: 0.263919502496719px"/>
  <path d="M215.55,682.32q-1.62-8.1-3.22-16.2l-6.75-29.68" style="fill: none;stroke: #0c0c0c;stroke-miterlimit: 10"/>
  <path d="M191.92,612s5.39,4.95,13.66,0" style="fill: none;stroke: #231f20;stroke-miterlimit: 10;stroke-width: 2.23809027671814px"/>
  <line x1="201.1" y1="682.32" x2="198.75" y2="615.13" style="fill: none;stroke: #231f20;stroke-miterlimit: 10"/>
  <line x1="183.18" y1="677.48" x2="187.88" y2="610.41" style="fill: none;stroke: #231f20;stroke-miterlimit: 10"/>
  <path d="M182.21,609.86s3.46,2.62,8.78,0" style="fill: none;stroke: #231f20;stroke-miterlimit: 10;stroke-width: 1.30580767885321px"/>
  <path d="M182.67,88.44q-1.09,2.37-2.17,4.76c-.82,2.52-1.6,5.16-2.34,7.9-.38,1.45-.74,2.86-1.07,4.26a129.21,129.21,0,0,0,24.84.2q2.82-.25,5.5-.62a15.4,15.4,0,0,0-24.76-16.5Z" style="fill: #341514"/>
</svg>
