<svg xmlns="http://www.w3.org/2000/svg" width="465.02" height="725.83" viewBox="0 0 465.02 725.83">
  <title>Artboard 8</title>
  <g id="model">
    <path d="M231.54,662.36C211.59,648,214,645.78,214,645.78,228.15,596.25,225.27,577,225.27,577c-22-53.1-22.62-163-22.62-163C165.5,270.19,191,234.76,191,234.76a169.59,169.59,0,0,1,14.27,15.08,168.47,168.47,0,0,1,14.62,20.35s4.13,96.3.69,141.71c0,0,9.63,121.07,10.31,154.77,0,0,10.32,63.91,5.51,79.8Z" style="fill: #bb895b"/>
    <path d="M241.92,256.26a10.84,10.84,0,0,0,6.59-2,11.79,11.79,0,0,0,2.58-3.07c1.49-1.94,5.08-3.64,14.51-2.17,0,0,17.43,46.52-22,145.25,0,0-4,8.84-3.38,34.52,0,0,4.29,56.87,5.21,69.71,0,0,6.42,24.76-.92,56.86,0,0-2.58,47.7,5.13,57.79,0,0,4.05,24.76,6.8,36.69,0,0,.91,4.58-11,12.84H229.83l-5.5-8.26L230.75,599l.91-28c-4.31-19.55-8.18-40.73-11.23-63.41a772.81,772.81,0,0,1-6.66-83.27q1.46-13.68,2.76-27.71c1.68-18.26,2.62-31.41,3.21-39.32C219.74,357.27,227.14,257.21,241.92,256.26Z" style="fill: #c49a6c"/>
    <path d="M255,174c-2.58,28.87-12,44.41-12,44.41H222l-10.7-5.49L208.25,173" style="fill: #afc8d8"/>
    <polyline points="237.64 137.51 237.64 132.47 249.56 129.26" style="fill: none;stroke: #231f20;stroke-miterlimit: 10"/>
    <polyline points="227.78 137.51 226.5 132.01 207.36 132.01" style="fill: none;stroke: #231f20;stroke-miterlimit: 10"/>
    <path d="M245.39,215.13s14.72,13.56,19.53,32.82c0,0-22.35,15.82-32.5,22H218.51s-16.18-17.2-27.88-32.33c0,0,3.78-14.45,20.46-26.14C211.09,211.49,243.3,218.15,245.39,215.13Z" style="fill: #afc8d8"/>
    <g>
      <path d="M224.43,102.68s4.13,21.47-12.38,23.33c0,0-8.94,15.81-8.94,31.54l21.78,9.29,31.87-4.57s11-39.49,6.19-36.26l-11-4.33s-8.26,6.4-11-16.4c0,0-3.44,10.42-12.38,0" style="fill: #c49a6c"/>
      <line x1="229.26" y1="106.07" x2="225.04" y2="104.28" style="fill: #c49a6c"/>
    </g>
    <path d="M238.35,105.18,243,118.44c1.53,2.86,9.58,2.53,16.81,2.07a16.87,16.87,0,0,1,9.69,2.4s7,0,6.12,21.4c0,0,4.58,40.06,6.42,71.7,0,0,7.56,12.83,13.76,58.24s0,3.44,0,3.44,13.07,27.51,12.38,39.89c0,0,2.75,21.33-4.82,22A97.08,97.08,0,0,1,297.46,327q-.91-2.39-1.66-4.65.57-3,.92-6.42a73.29,73.29,0,0,0-.09-14.9s-24.08-41.49-25.45-83c0,0-8.94-19.5-11.7-38.76s0-3.44,0-3.44q-.6-9.63-1.22-19.26l-5.76,2.22" style="fill: #c3996c"/>
    <path d="M225.09,100.53v13.64s-3.67,12.53-19.27,11.92c0,0-18.65-4.58-17.42,8.56s-.06,1.53-.06,1.53,2.43,63.21,7.24,67.34c0,0-16.51,53.66-14.44,77.73,0,0-4.13,6.88-7.57,12.38a19.6,19.6,0,0,0,0,9.63s1.07,13.3,8.41,22.17a2.17,2.17,0,0,0,3.36,0s-.24-43.8-2.75-43.11l24.69-69.86s.68-42.65-4.13-57.09l58-1.32" style="fill: #c3996c"/>
    <path d="M247.81,176.59c9.92.15,13.16-2,14.15-4.08.62-.93,5.42-8.33,2.46-16.78-.33-.95-2.19-6.25-6.86-8.73-6.6-3.51-17.38,0-25.24,9.65-5.77-9.12-17.06-11.15-23.62-6.43-4.72,3.41-6.85,10.23-5.27,17,.66,1.54,1.69,3.8,3.14,6.44,1.36,2.47,2.05,3.72,2.81,4.35,1.84,1.53,3.6,1.32,10.1,2.05,2.28.26,4.12.52,5.28.69" style="fill: #afc8d8"/>
    <polyline points="226.88 134.51 225.6 129.01 206.46 129.01" style="fill: none;stroke: #231f20;stroke-miterlimit: 10;stroke-width: 0.5px"/>
    <polyline points="238.6 133.14 238.6 128.09 250.52 124.88" style="fill: none;stroke: #231f20;stroke-miterlimit: 10;stroke-width: 0.5px"/>
    <g>
      <path d="M233,50.17s-20.64-2.75-14.22,39c0,0,2.75,16.51,14.22,22,0,0,10.09-2.29,14.67-19.26,0,0,11.47-30.8-12.38-41.77" style="fill: #c49a6c;stroke: #000;stroke-miterlimit: 10;stroke-width: 0.25px"/>
      <line x1="232.09" y1="50.13" x2="235.81" y2="50.33" style="fill: #c49a6c;stroke: #000;stroke-miterlimit: 10;stroke-width: 0.25px"/>
    </g>
  </g>
  <g id="_1940" data-name="1940">
    <g>
      <g>
        <g>
          <g>
            <path d="M209.71,81.27c-2.72,1.88-4.48-.76-5.42-3a18,18,0,0,1-.86-2.66,4.26,4.26,0,0,0,3.46,2.19c4.71-1.57-.16-4.7-.16-4.7-4.08-2-.94-6.62-.94-6.62-4.4-4.11,6.66-5.84,6.66-5.84-2.44-1.77.4-4.45.4-4.45-2.35-7.17,6.44-4,6.44-4,1.1-2.07,5.18-2.33,5.18-2.33s3.29-12.15,22.44-1.44c0,0,6.75,2.47,5.33,6s-.47.81-.47.81,6,.37,6.44,6.5c0,0,2,4.2.78,4.7,0,0,7.54-.22,4.55,5.71s-.47.75-.47.75-1.57,6.75,2.83,3.92c0,0,2.2,5.29-3.3,4.45a5.1,5.1,0,0,0,1.26,6.38s2.67,3.74.63,5.4c0,0,0,3.55-2.36,3.7,0,0-3.45,5.18-.78,5.65,0,0,4.63,1.42,5,3.93,0,0-6.55,6.43-2.63,5.81,0,0-.54.71,2.63,0,0,0-.43,4.66-2.79,2.62,0,0-.31,1.89-2-1.41" style="fill: #231f20;stroke: #231f20;stroke-miterlimit: 10"/>
            <path d="M204.65,79s-8.75,3.9.67,11c0,0,3.45,3.45-1.26,4.55,0,0-7.22,2.19-2,7.06,0,0,4.74,4.82-1.87,4,0,0-7.54.73-1.74,6.54,0,0,6.75,5.33,1.26,6.12,0,0-2.67.15-3.45-.79,0,0,4.86,6.77,8.63.8,0,0-1.89,2.35-.16,3.84,0,0,2.51-2.76,4.71-1,0,0,2.51.79,1.25-2" style="fill: #231f20;stroke: #231f20;stroke-miterlimit: 10"/>
          </g>
          <line x1="263.54" y1="114.8" x2="209.4" y2="121.08" style="fill: #231f20;stroke: #231f20;stroke-miterlimit: 10"/>
        </g>
        <rect x="209.4" y="97.45" width="41.06" height="19.28" style="fill: #231f20;stroke: #231f20;stroke-miterlimit: 10"/>
        <rect x="219.06" y="80.17" width="8.59" height="23.52" style="fill: #231f20;stroke: #231f20;stroke-miterlimit: 10"/>
        <rect x="219.06" y="88.3" width="22.32" height="15.4" style="fill: #231f20;stroke: #231f20;stroke-miterlimit: 10"/>
        <rect x="213.21" y="80.17" width="5.85" height="23.52" style="fill: #231f20;stroke: #231f20;stroke-miterlimit: 10"/>
        <rect x="247.15" y="108.28" width="10.28" height="6.52" style="fill: #231f20;stroke: #231f20;stroke-miterlimit: 10"/>
        <rect x="247.15" y="100.58" width="8.9" height="8.9" style="fill: #231f20;stroke: #231f20;stroke-miterlimit: 10"/>
        <rect x="207.71" y="76.07" width="19.95" height="25.33" style="fill: #231f20;stroke: #231f20;stroke-miterlimit: 10"/>
        <path d="M213.68,118.47a115.25,115.25,0,0,1,14-6.32,2.55,2.55,0,0,0,1.74-3.07,2.52,2.52,0,0,0-3.07-1.75,125.89,125.89,0,0,0-15.18,6.82,2.52,2.52,0,0,0-.9,3.42,2.56,2.56,0,0,0,3.42.9Z" style="fill: #231f20"/>
        <path d="M259.53,113.08c3.22,0,3.22-5,0-5s-3.22,5,0,5Z" style="fill: #231f20"/>
        <path d="M204.43,81.37a5.54,5.54,0,0,0-.17,4.46,17.76,17.76,0,0,0,1.61,3.88c.14.25.29.49.44.73l.26.4c.13.26.15.28.06,0,.07.3.08.32,0,.07l0,.5c0,.32,0,.64,0,1l.11,4.29a2.5,2.5,0,1,0,5,0l-.1-3.87a8.89,8.89,0,0,0-.79-4.41c-.28-.49-.6-1-.87-1.45-.14-.25-.26-.51-.39-.77s-.13-.3,0-.08c0-.11-.09-.22-.14-.34a14.86,14.86,0,0,1-.51-1.64,7.13,7.13,0,0,1-.18-.8c0,.32.06.34,0,0a1.32,1.32,0,0,1-.1.51,2.52,2.52,0,0,0-.9-3.42,2.55,2.55,0,0,0-3.42.89Z" style="fill: #231f20"/>
        <path d="M206.79,84c3.22,0,3.23-5,0-5s-3.22,5,0,5Z" style="fill: #231f20"/>
        <path d="M207.63,101.29l-.15,4.81a2.55,2.55,0,0,0,.73,1.77,2.5,2.5,0,0,0,4.27-1.77l.15-4.81a2.5,2.5,0,0,0-5,0Z" style="fill: #231f20"/>
        <path d="M208.4,120.63a6.5,6.5,0,0,0,3.23-1.12,11,11,0,0,1,2.05-1.32c1.91-.74,4.42-.42,6.42-.46l14.78-.27c3.21-.06,3.22-5.06,0-5l-14.78.27a35.1,35.1,0,0,0-6.95.43,8.62,8.62,0,0,0-2.84,1.17c-.49.31-1.32,1.25-1.91,1.3a2.57,2.57,0,0,0-2.5,2.5,2.51,2.51,0,0,0,2.5,2.5Z" style="fill: #231f20"/>
        <path d="M223.7,113.39c-.26.08-.51.13-.77.19l.1,0a3.4,3.4,0,0,1-.45,0c-.46,0-.92,0-1.38,0-1.06,0-2.13-.06-3.19,0a42.08,42.08,0,0,0-6.72.8,2.52,2.52,0,0,0-1.75,3.08,2.57,2.57,0,0,0,3.08,1.74l1.65-.29s.8-.12.28-.05l.71-.08c1.07-.12,2.15-.19,3.22-.22,2.18,0,4.43.3,6.55-.33a2.5,2.5,0,0,0-1.33-4.83Z" style="fill: #231f20"/>
        <path d="M211.27,119.37c1.58.19,2.72-.76,4.06-1.36-.19.06-.12,0,.19-.07s.38-.1.57-.13c-.33,0,.6,0,.53,0,.75,0,1.51,0,2.27,0h9.57a2.5,2.5,0,0,0,0-5h-9.57a16.44,16.44,0,0,0-4.7.34,10.48,10.48,0,0,0-2.07.95,4.54,4.54,0,0,1-.68.38c.21-.09.17-.09-.1,0,.26,0,.24-.08-.07-.08a2.51,2.51,0,0,0-2.5,2.5,2.57,2.57,0,0,0,2.5,2.5Z" style="fill: #231f20"/>
        <path d="M261.23,112.41v-.11a1.9,1.9,0,0,0-.22-1,1.83,1.83,0,0,0-.51-.8,1.85,1.85,0,0,0-.81-.52,1.78,1.78,0,0,0-1-.21l-.67.09a2.41,2.41,0,0,0-1.1.64l-.39.5a2.44,2.44,0,0,0-.34,1.27v.11a2,2,0,0,0,.21,1,2.26,2.26,0,0,0,1.33,1.33,1.93,1.93,0,0,0,1,.21l.66-.09a2.53,2.53,0,0,0,1.11-.64l.39-.51a2.53,2.53,0,0,0,.34-1.26Z" style="fill: #231f20"/>
        <path d="M259.53,114.57c3.22,0,3.22-5,0-5s-3.22,5,0,5Z" style="fill: #231f20"/>
        <path d="M250.82,115.6c3.22,0,3.22-5,0-5s-3.22,5,0,5Z" style="fill: #231f20"/>
        <path d="M251.85,115.6c3.22,0,3.22-5,0-5s-3.22,5,0,5Z" style="fill: #231f20"/>
        <path d="M253.91,111.06h-5a2.59,2.59,0,0,0-1.77.73,2.5,2.5,0,0,0,1.77,4.27h5a2.56,2.56,0,0,0,1.77-.74,2.48,2.48,0,0,0,.73-1.76,2.53,2.53,0,0,0-2.5-2.5Z" style="fill: #231f20"/>
        <path d="M260.1,115.6c3.22,0,3.23-5,0-5s-3.22,5,0,5Z" style="fill: #231f20"/>
        <path d="M236.64,112.51a4.17,4.17,0,0,1-1.23.06c-.73,0-1.46-.1-2.19-.13a41.49,41.49,0,0,0-5.46.13,47.89,47.89,0,0,0-5.46.8,20.32,20.32,0,0,1-5.08.69,2.5,2.5,0,1,0,0,5,25.18,25.18,0,0,0,6.22-.83,38.09,38.09,0,0,1,5.53-.75,46.45,46.45,0,0,1,5.78,0,7.35,7.35,0,0,0,5.42-1.48,2.52,2.52,0,0,0,0-3.54,2.55,2.55,0,0,0-3.53,0Z" style="fill: #231f20"/>
        <path d="M210.93,119.31c4.25.57,8.49-.58,12.73-.72,4.39-.14,8.79,0,13.18,0,3.21,0,3.22-5,0-5-4.39,0-8.8-.12-13.18,0s-8.48,1.29-12.73.72c-1.34-.18-2.5,1.28-2.5,2.5a2.57,2.57,0,0,0,2.5,2.5Z" style="fill: #231f20"/>
        <path d="M227.64,114.7l-.58-.11a1.86,1.86,0,0,0-1,0,1.9,1.9,0,0,0-.93.3,2.67,2.67,0,0,0-1.15,1.49l-.09.67a2.43,2.43,0,0,0,.34,1.26l.39.5a2.52,2.52,0,0,0,1.1.65l.58.11a1.86,1.86,0,0,0,1,0,2.58,2.58,0,0,0,2.08-1.79l.09-.67a2.43,2.43,0,0,0-.34-1.26l-.39-.51a2.5,2.5,0,0,0-1.1-.64Z" style="fill: #231f20"/>
        <path d="M210.65,120.58c2.55,1,5.23-.24,7.75-.7l.46-.07c.33,0,.67-.08,1-.1.59,0,1.17-.06,1.75-.07a13.45,13.45,0,0,0,4.09-.59,2.5,2.5,0,0,0-1.33-4.82c-.32.11-.63.19-1,.27-.73.18.43,0-.31.06-.58,0-1.16.07-1.75.08a32.14,32.14,0,0,0-3.79.34c-1.11.17-2.17.47-3.26.74l-.7.17-.47.09c.28,0,.27,0,0,0a5.3,5.3,0,0,1-.69,0c.55.06-.32-.15-.44-.19a2.49,2.49,0,0,0-3.07,1.74,2.58,2.58,0,0,0,1.74,3.08Z" style="fill: #231f20"/>
      </g>
      <path d="M255.34,175.29c-2.57,28.87-12,44.41-12,44.41H222.32l-10.7-5.49q-1.53-20-3.05-39.9" style="fill: #c3996c"/>
      <path d="M225.4,101.79v13.65s-3.67,12.53-19.26,11.92c0,0-18.65-4.58-17.43,8.56s-.05,1.53-.05,1.53,2.42,63.21,7.24,67.34c0,0-16.51,53.65-14.45,77.73,0,0-4.12,6.88-7.56,12.38a19.6,19.6,0,0,0,0,9.63s1.07,13.3,8.4,22.17a2.18,2.18,0,0,0,3.37,0s-.24-43.8-2.75-43.11l24.68-69.86s.69-42.65-4.12-57.1l58-1.32" style="fill: #c3996c"/>
      <polyline points="237.96 138.78 237.96 133.74 249.88 130.53" style="fill: none;stroke: #231f20;stroke-miterlimit: 10"/>
      <polyline points="228.09 138.78 226.81 133.28 207.68 133.28" style="fill: none;stroke: #231f20;stroke-miterlimit: 10"/>
      <g>
        <path d="M224.75,104s4.12,21.47-12.39,23.33c0,0-8.94,15.81-8.94,31.54l21.79,9.29,31.87-4.57s11-39.5,6.19-36.26l-11-4.33s-8.25,6.4-11-16.4c0,0-3.44,10.42-12.39,0" style="fill: #c49a6c"/>
        <line x1="229.57" y1="107.34" x2="225.35" y2="105.55" style="fill: #c49a6c"/>
      </g>
      <path d="M238.66,106.44q2.35,6.65,4.69,13.27c1.53,2.86,9.58,2.52,16.81,2.06a16.88,16.88,0,0,1,9.69,2.41s7,0,6.11,21.4c0,0,4.59,40.06,6.42,71.7,0,0,7.57,12.83,13.76,58.23s0,3.44,0,3.44,13.07,27.52,12.38,39.9c0,0,2.76,21.33-4.81,22a95,95,0,0,1-5.93-12.55q-.93-2.38-1.66-4.65c.37-2,.69-4.14.91-6.42a72.64,72.64,0,0,0-.08-14.9s-24.08-41.49-25.45-83c0,0-8.95-19.5-11.7-38.76s0-3.44,0-3.44q-.62-9.63-1.22-19.26l-5.76,2.22" style="fill: #c3996c"/>
      <path d="M248.12,177.86c9.93.15,13.17-2,14.15-4.08.63-.93,5.43-8.33,2.47-16.78-.33-.95-2.2-6.25-6.87-8.73-6.59-3.51-17.37,0-25.23,9.64-5.77-9.11-17.06-11.15-23.62-6.42-4.73,3.41-6.85,10.23-5.27,17,.66,1.54,1.69,3.8,3.14,6.44,1.36,2.47,2.05,3.72,2.8,4.35,1.85,1.53,3.6,1.32,10.11,2.05,2.28.26,4.12.52,5.27.69" style="fill: #afc8d8"/>
      <polyline points="227.19 135.78 225.91 130.28 206.78 130.28" style="fill: none;stroke: #231f20;stroke-miterlimit: 10;stroke-width: 0.5px"/>
      <polyline points="238.92 134.4 238.92 129.36 250.84 126.15" style="fill: none;stroke: #231f20;stroke-miterlimit: 10;stroke-width: 0.5px"/>
      <g>
        <path d="M233.29,51.44s-20.64-2.76-14.22,39c0,0,2.75,16.51,14.22,22,0,0,10.09-2.29,14.67-19.26,0,0,11.47-30.8-12.38-41.77" style="fill: #c49a6c;stroke: #000;stroke-miterlimit: 10;stroke-width: 0.25px"/>
        <line x1="232.41" y1="51.4" x2="236.13" y2="51.6" style="fill: #c49a6c;stroke: #000;stroke-miterlimit: 10;stroke-width: 0.25px"/>
      </g>
      <path d="M231.86,663.63c-20-14.38-17.52-16.58-17.52-16.58,14.13-49.53,11.25-68.79,11.25-68.79-22.05-53.1-22.62-163-22.62-163C165.82,271.46,191.27,236,191.27,236a168.23,168.23,0,0,1,14.28,15.08,169.58,169.58,0,0,1,14.62,20.35s4.12,96.3.68,141.7c0,0,9.63,121.07,10.32,154.78,0,0,10.32,63.91,5.5,79.8Z" style="fill: #bb895b"/>
      <path d="M242.24,257.53a10.88,10.88,0,0,0,6.58-2,12.08,12.08,0,0,0,2.59-3.07c1.49-1.94,5.08-3.64,14.51-2.17,0,0,17.42,46.52-22,145.25,0,0-4,8.84-3.37,34.52,0,0,4.29,56.87,5.21,69.71,0,0,6.42,24.76-.92,56.86,0,0-2.58,47.7,5.13,57.79,0,0,4,24.76,6.79,36.68,0,0,.92,4.59-11,12.84H230.15l-5.51-8.25,6.42-55.49.92-28c-4.31-19.54-8.18-40.72-11.24-63.4a775.38,775.38,0,0,1-6.66-83.27q1.47-13.68,2.77-27.71c1.68-18.27,2.62-31.41,3.21-39.32C220.06,358.54,227.45,258.47,242.24,257.53Z" style="fill: #c49a6c"/>
      <path d="M226.3,543.92l2.48-.16,2.75-.13c5.29-.67,10.58-1.4,15.87-2.08,2.82-24.44-1.66-41.76-1.66-41.76-.92-12.84-5.21-69.71-5.21-69.71-.62-25.68,3.37-34.52,3.37-34.52,39.44-98.73,22-145.25,22-145.25-9.43-1.47-13,.23-14.51,2.17a12.08,12.08,0,0,1-2.59,3.07,10.88,10.88,0,0,1-6.58,2c-14.79.94-22.18,101-22.18,101-.59,7.91-1.53,21-3.21,39.32q-1.31,14-2.77,27.71a775.38,775.38,0,0,0,6.66,83.27Q223.2,527.05,226.3,543.92Z" style="fill: #118d95;stroke: #231f20;stroke-miterlimit: 10;stroke-width: 0.25px"/>
      <path d="M209.92,508c1.8-.4,3.61-.74,5.43-1a74.37,74.37,0,0,1,12.85-2.66c-3-43.72-6.76-91.06-6.76-91.06,3.44-45.4-.68-141.7-.68-141.7a169.64,169.64,0,0,0-28.9-35.43s-25.45,35.43,11.7,179.2C203.56,415.28,203.8,461.17,209.92,508Z" style="fill: #118d95;stroke: #231f20;stroke-miterlimit: 10;stroke-width: 0.25px"/>
      <path d="M239.07,596.07a4.93,4.93,0,0,0,1.82-3.51c-.14-2.92-4.46-4.6-4.76-4.72,0,0-3.57-10.71,3.56-10.6,0,0,3.41-12.48-1.56-19.91,0,0,8.27-6.76-2.5-13,.49-2.85.92-5.83,1.3-8.92.48-3.95.82-7.73,1-11.34a19.58,19.58,0,0,0,1.61-2.88,20,20,0,0,0,1.76-7.63c-.48-1.52-.94-3.13-1.35-4.83a72.5,72.5,0,0,1-1.95-13.18,23.9,23.9,0,0,1,2.1-18.64,149.18,149.18,0,0,0-33.26.21c-3.32,15.75-2.19,20.57-.32,21.81.43.28,2.26,1.29,2.54,3a4.88,4.88,0,0,1-.7,2.82c-1.17,2.54-2.16,2.55-2.46,3.87-.47,2.1,1.89,2.92,2.3,5.8.33,2.35-1.06,3.07-1.82,6.12-.68,2.7.21,3.7.75,9.6.21,2.37.29,4.29.31,5.45s.41,3,.61,5.2c.61,6.54.3,9.75,1.84,10.4.42.18,1.16.23,2.44-.61q-1.11,6.55-2.1,13.36-.43,3.07-.84,6.12c.43,2,.81,4.26,1.09,6.64a76.19,76.19,0,0,1,.56,9.26,45.46,45.46,0,0,0,3.46,8.93,43.68,43.68,0,0,0,3.09,5.13C220.41,600.24,234.1,601,239.07,596.07Z" style="fill: #d4a12a;stroke: #231f20;stroke-miterlimit: 10;stroke-width: 0.5px"/>
      <path d="M244.46,598.53a9.34,9.34,0,0,0,4.61-2.43c3.52-3.71,2-9.85,1.73-10.85,0,0-4.62-10.41,3.5-10.89,0,0,3.24-12.76-2.81-19.78,0,0,9.07-7.43-3.51-12.76.39-2.89.74-5.91,1-9,.34-4,.53-7.79.6-11.42a18.73,18.73,0,0,0,3.3-10.78c-.63-1.48-1.24-3.06-1.8-4.72a64.79,64.79,0,0,1-2.91-13,89.84,89.84,0,0,0-1.42-10A91.29,91.29,0,0,0,243.93,472c-4.75,1-9.71,1.89-14.87,2.7q-6.15,1-12,1.68c-1.57,7.86-1.59,12.74-1.27,15.8.35,3.38,1.32,6.58-.25,9.45-.32.58-1.12,1.84-.65,2.87s1.61.7,2.43,1.74c1.29,1.64.16,4.5,0,4.9-.7,1.76-1.45,1.68-2.11,3-1.29,2.63.71,4.62.89,8.88.12,2.87-.73,3.3-1.29,6.93a28.93,28.93,0,0,0,.51,11,12,12,0,0,1,2.31,3.74,12.21,12.21,0,0,1,.67,6,39.24,39.24,0,0,1,1.81,12.71,40.3,40.3,0,0,1-.65,6.19,66,66,0,0,1,1.6,6.54,69.36,69.36,0,0,1,1.11,9.21,26.72,26.72,0,0,1,6.46,12.82A29.25,29.25,0,0,0,244.46,598.53Z" style="fill: #d4a12a;stroke: #231f20;stroke-miterlimit: 10;stroke-width: 0.5px"/>
      <path d="M224.86,658.37a59,59,0,0,1-11.43-10l3.21-11a7.42,7.42,0,0,0,2.74,2.53c3.42,1.8,7,0,7.46-.18q-1.09,8.49-2.2,17l2.46,3.63" style="fill: #ae2068;stroke: #231f20;stroke-miterlimit: 10;stroke-width: 0.25px"/>
      <path d="M257,651.79c-.61-2.63-1.27-5.88-1.95-9.35a11,11,0,0,1-2.26,1.24,24.25,24.25,0,0,1-6.38,1.27,37.71,37.71,0,0,1-11.4-.59,6,6,0,0,1-1.69-.07c1.13.21-.17,0-.45,0H231.4c-.8,0-1.61,0-2.41,0a14.89,14.89,0,0,1-2.39-.41l-.29,0-1.45,12.53,5.5,8.26H246C257.88,656.37,257,651.79,257,651.79Z" style="fill: #ae2068;stroke: #231f20;stroke-miterlimit: 10;stroke-width: 0.25px"/>
      <polyline points="244.46 598.53 249.95 614.44 255.01 642.44" style="fill: none;stroke: #ae2068;stroke-miterlimit: 10;stroke-width: 0.5px"/>
      <line x1="231.06" y1="600.22" x2="226.6" y2="643.82" style="fill: none;stroke: #ae2068;stroke-miterlimit: 10;stroke-width: 0.5px"/>
      <line x1="224.86" y1="600.22" x2="216.64" y2="637.37" style="fill: none;stroke: #ae2068;stroke-miterlimit: 10;stroke-width: 0.5px"/>
      <path d="M245.81,216.4s14.72,13.56,19.54,32.82c0,0-22.36,15.82-32.51,22H218.93S202.75,254,191.05,238.9c0,0,3.78-14.45,20.47-26.14C211.52,212.76,243.72,219.42,245.81,216.4Z" style="fill: #b01f56"/>
      <path d="M188.94,143.93c2.68.28,5.42.6,8.21,1,1.45.19,2.87.4,4.28.61A152.94,152.94,0,0,1,276,142.41c3.87,21.43,3.83,27.65,2.53,28a19.29,19.29,0,0,0-3.05.24c-.59.13-1.19.31-2.28.48l-1.25.15-2.45.31a39.43,39.43,0,0,1-5.06-.06c-1.1-.08-2.15-.2-3.12-.35l1.86-17.51c-.31,5.39-.89,11.26-1.86,17.51a183.54,183.54,0,0,1-4.59,21.12q-5.94,0-12,.14-19.11.34-37.38,1.39-.09-5.64-.47-11.61a257.07,257.07,0,0,0-3.32-27.77l1.56,17.16c-3.23-.17-6.66-.47-10.25-1-1.53-.22-3-.45-4.45-.71q-.69-11.3-1.39-22.59Z" style="fill: #d7d7db;stroke: #231f20;stroke-miterlimit: 10;stroke-width: 0.5px"/>
      <path d="M246.87,122.15S224.7,190,262.57,249.59" style="fill: none;stroke: #b11f56;stroke-miterlimit: 10;stroke-width: 2px"/>
      <path d="M243.81,203.62a20.81,20.81,0,0,1-27,0s-4.4,4.17-6.07-.94l.78,10.08,14.3,7.74,20-4.1,3.73-11.46" style="fill: #b01f56;stroke: #b11f56;stroke-miterlimit: 10;stroke-width: 1.64515334024198px"/>
      <path d="M244.88,203.53s4.22,2.95,5,.33" style="fill: none;stroke: #b11f56;stroke-miterlimit: 10;stroke-width: 1.64515334024198px"/>
      <polygon points="250.16 147.19 243.23 159.18 257.08 159.18 250.16 147.19" style="fill: #e95da2"/>
      <polygon points="268.98 149.94 267.31 161.74 278.36 157.29 268.98 149.94" style="fill: #3f83c4"/>
      <polygon points="230.15 176.06 220.6 183.24 231.59 187.92 230.15 176.06" style="fill: #4fa7db"/>
      <polygon points="202.67 150.1 192.28 157.91 204.24 163 202.67 150.1" style="fill: #dacd60"/>
      <polygon points="226.24 152.91 224.4 165.92 236.59 161.01 226.24 152.91" style="fill: #cc9bc6"/>
      <polygon points="254.39 167.44 244 175.26 255.96 180.35 254.39 167.44" style="fill: #dacd60"/>
      <circle cx="213.43" cy="150.11" r="3.44" style="fill: #4fa7db"/>
      <circle cx="247.38" cy="187.87" r="3.44" style="fill: #8fbfca"/>
      <circle cx="235.78" cy="150.11" r="3.44" style="fill: #c1cd30"/>
      <circle cx="217.89" cy="171.81" r="3.44" style="fill: #eb519d"/>
      <circle cx="213.43" cy="184.43" r="3.44" style="fill: #4fa7db"/>
      <path d="M216.71,124.63s15.26,64-15.7,127.44" style="fill: none;stroke: #b11f56;stroke-miterlimit: 10;stroke-width: 2px"/>
      <path d="M281.72,206.24q-3.42,1.42-6.88,2.74a50.29,50.29,0,0,0,7-1.65C281.77,207,281.75,206.6,281.72,206.24Z" style="fill: #91589d"/>
      <path d="M296.65,279.24c-.21-1.5-.42-3.11-.66-4.86-4.55-33.36-9.84-49.13-12.33-55.15a63.65,63.65,0,0,1-12.16,2.28c2.48,40.38,25.29,79.69,25.29,79.69a74.82,74.82,0,0,1,.41,9.3l1.79-.81.11-.05c2.53-1.15,5.07-2.26,7.66-3.23C304,295.77,298.53,283.37,296.65,279.24Z" style="fill: #91589d"/>
      <path d="M300.8,277c-2.48,1.15-5.17,2.27-8.06,3.33-1.56.56-3.07,1.07-4.55,1.53q1.55,5.25,3.43,10.73c.45,1.29.9,2.56,1.36,3.81-.24,1.08-1.19,6.05,1.85,9.95a9.86,9.86,0,0,0,2.37,2.18l1.79-.81s-1.81.77-1.79.81,6.36-2.35,11.85-4.47A39.76,39.76,0,0,1,300.8,277Z" style="fill: #a6d062"/>
      <path d="M194.57,208c-3.33,11.31-15.4,54.15-13.61,74.95,0,0-1.79,3-4,6.57,2.28-.06,4.56,0,6.84,0-.37-3.48-.82-5.67-1.4-5.51l24.69-69.86s0-2.56,0-6.61A78.3,78.3,0,0,1,194.57,208Z" style="fill: #91589d"/>
      <path d="M180.67,252.84c2.55,1,5.3,1.94,8.26,2.81,1.58.47,3.13.88,4.63,1.24a39.2,39.2,0,0,0-1.83,7.53,40.07,40.07,0,0,0,.19,12.49,31.92,31.92,0,0,1-3.44,4.84,29.68,29.68,0,0,1-2.22,2.33l-1.84-.7s1.85.65,1.84.7-3.56-1-7.48-2.26c.51-4.86.95-9.92,1.28-15.16Q180.51,259.54,180.67,252.84Z" style="fill: #a6d062"/>
      <line x1="223.36" y1="51.73" x2="243.92" y2="51.35" style="fill: none;stroke: #231f20;stroke-miterlimit: 10;stroke-width: 9px"/>
      <path d="M219.85,66.3c1.54-1,9.21-5.91,18.92-3.78a24,24,0,0,1,11.22,6l3.24-8.29a34.37,34.37,0,0,0-10.8-4.74c-11.28-2.74-20.72,1.17-24.11,2.78Z" style="fill: #e87fb3"/>
    </g>
  </g>
</svg>
