<svg id="Layer_1" data-name="Layer 1" xmlns="http://www.w3.org/2000/svg" width="465.02" height="725.83" viewBox="0 0 465.02 725.83">
  <title>Artboard 4</title>
  <g>
    <g>
      <g>
        <path d="M179,129.5c-2.72,1.89-4.48-.76-5.42-3a18,18,0,0,1-.86-2.66,4.25,4.25,0,0,0,3.46,2.2c4.71-1.57-.16-4.71-.16-4.71-4.08-2-.94-6.62-.94-6.62-4.4-4.11,6.66-5.83,6.66-5.83-2.44-1.78.4-4.45.4-4.45-2.35-7.17,6.44-4,6.44-4,1.09-2.07,5.17-2.33,5.17-2.33s3.3-12.14,22.45-1.44c0,0,6.75,2.48,5.33,6s-.47.81-.47.81,6,.37,6.44,6.51c0,0,2,4.19.78,4.69,0,0,7.54-.22,4.55,5.71s-.47.75-.47.75-1.57,6.75,2.83,3.93c0,0,2.2,5.28-3.3,4.44a5.11,5.11,0,0,0,1.26,6.39s2.67,3.73.63,5.39c0,0,0,3.55-2.36,3.71,0,0-3.45,5.18-.78,5.65,0,0,4.63,1.41,5,3.92,0,0-6.55,6.44-2.63,5.81,0,0-.54.71,2.63,0,0,0-.43,4.67-2.79,2.63,0,0-.31,1.88-2-1.42" style="fill: #231f20;stroke: #231f20;stroke-miterlimit: 10"/>
        <path d="M174,127.28s-8.75,3.9.67,11c0,0,3.45,3.45-1.26,4.55,0,0-7.22,2.2-2,7.06,0,0,4.74,4.82-1.87,4,0,0-7.55.73-1.74,6.54,0,0,6.75,5.33,1.26,6.12,0,0-2.67.16-3.45-.79,0,0,4.86,6.77,8.63.8,0,0-1.89,2.36-.16,3.84,0,0,2.51-2.75,4.71-1,0,0,2.51.79,1.25-2" style="fill: #231f20;stroke: #231f20;stroke-miterlimit: 10"/>
      </g>
      <line x1="232.86" y1="163.04" x2="178.72" y2="169.31" style="fill: #231f20;stroke: #231f20;stroke-miterlimit: 10"/>
    </g>
    <rect x="178.72" y="145.69" width="41.06" height="19.28" style="fill: #231f20;stroke: #231f20;stroke-miterlimit: 10"/>
    <rect x="188.38" y="128.41" width="8.59" height="23.52" style="fill: #231f20;stroke: #231f20;stroke-miterlimit: 10"/>
    <rect x="188.38" y="136.53" width="22.32" height="15.4" style="fill: #231f20;stroke: #231f20;stroke-miterlimit: 10"/>
    <rect x="182.53" y="128.41" width="5.85" height="23.52" style="fill: #231f20;stroke: #231f20;stroke-miterlimit: 10"/>
    <rect x="216.47" y="156.52" width="10.28" height="6.52" style="fill: #231f20;stroke: #231f20;stroke-miterlimit: 10"/>
    <rect x="216.47" y="148.81" width="8.9" height="8.9" style="fill: #231f20;stroke: #231f20;stroke-miterlimit: 10"/>
    <rect x="177.03" y="124.31" width="19.95" height="25.33" style="fill: #231f20;stroke: #231f20;stroke-miterlimit: 10"/>
    <path d="M183,166.7a114.56,114.56,0,0,1,14-6.32,2.5,2.5,0,0,0-1.33-4.82,128.36,128.36,0,0,0-15.18,6.82,2.52,2.52,0,0,0-.9,3.42,2.55,2.55,0,0,0,3.42.9Z" style="fill: #231f20"/>
    <path d="M228.85,161.31c3.22,0,3.22-5,0-5s-3.22,5,0,5Z" style="fill: #231f20"/>
    <path d="M173.75,129.61a5.51,5.51,0,0,0-.17,4.45,17.36,17.36,0,0,0,1.61,3.88c.14.25.29.49.44.74l.26.4q.2.39.06,0c.07.3.08.32,0,.07,0,.17,0,.33,0,.5s0,.65,0,1l.11,4.29a2.5,2.5,0,0,0,5,0l-.1-3.88a8.89,8.89,0,0,0-.79-4.41c-.28-.49-.6-1-.87-1.45-.14-.25-.26-.51-.39-.77s-.13-.29,0-.07c-.05-.12-.09-.23-.14-.34a16.33,16.33,0,0,1-.51-1.64,7.13,7.13,0,0,1-.18-.8c0,.32.06.33,0,0a1.25,1.25,0,0,1-.1.51,2.53,2.53,0,0,0-.9-3.42,2.56,2.56,0,0,0-3.42.9Z" style="fill: #231f20"/>
    <path d="M176.11,132.19c3.22,0,3.22-5,0-5s-3.22,5,0,5Z" style="fill: #231f20"/>
    <path d="M177,149.52l-.15,4.82a2.5,2.5,0,0,0,5,0l.15-4.82a2.5,2.5,0,0,0-5,0Z" style="fill: #231f20"/>
    <path d="M177.71,168.87a6.53,6.53,0,0,0,3.23-1.12,10.92,10.92,0,0,1,2.06-1.32c1.91-.75,4.42-.43,6.42-.47l14.78-.27c3.21-.06,3.22-5.06,0-5l-14.78.27a35.1,35.1,0,0,0-6.95.43,8.84,8.84,0,0,0-2.84,1.17c-.49.32-1.32,1.25-1.92,1.31a2.57,2.57,0,0,0-2.5,2.5,2.52,2.52,0,0,0,2.5,2.5Z" style="fill: #231f20"/>
    <path d="M193,161.63c-.26.07-.51.13-.77.18s-.15,0,.1,0l-.45,0c-.46,0-.92,0-1.38,0-1.06,0-2.13-.06-3.2,0a42.11,42.11,0,0,0-6.71.81,2.51,2.51,0,0,0-1.75,3.07,2.57,2.57,0,0,0,3.08,1.75c.55-.11,1.09-.21,1.65-.3l.28,0,.71-.09c1.07-.12,2.15-.19,3.22-.21,2.18,0,4.43.3,6.55-.34a2.5,2.5,0,0,0-1.33-4.82Z" style="fill: #231f20"/>
    <path d="M180.59,167.6c1.58.2,2.72-.75,4.06-1.36l.19-.06a3.9,3.9,0,0,1,.57-.13c-.33,0,.6,0,.53,0,.75,0,1.51,0,2.27,0h9.57a2.5,2.5,0,0,0,0-5h-9.57a16.45,16.45,0,0,0-4.7.35,9.45,9.45,0,0,0-2.07.95,5.57,5.57,0,0,1-.68.37c.21-.09.17-.09-.11,0,.27-.05.25-.07-.06-.08a2.51,2.51,0,0,0-2.5,2.5,2.57,2.57,0,0,0,2.5,2.5Z" style="fill: #231f20"/>
    <path d="M230.55,160.64v-.11a1.86,1.86,0,0,0-.22-1,1.93,1.93,0,0,0-.51-.81,2.05,2.05,0,0,0-.81-.52,2,2,0,0,0-1-.21l-.67.09a2.5,2.5,0,0,0-1.1.64l-.39.51a2.43,2.43,0,0,0-.34,1.26v.11a2,2,0,0,0,.21,1,1.85,1.85,0,0,0,.52.8,1.88,1.88,0,0,0,.8.52,1.8,1.8,0,0,0,1,.21l.66-.09a2.44,2.44,0,0,0,1.11-.64l.39-.5a2.54,2.54,0,0,0,.34-1.27Z" style="fill: #231f20"/>
    <path d="M228.85,162.8c3.22,0,3.22-5,0-5s-3.22,5,0,5Z" style="fill: #231f20"/>
    <path d="M220.14,163.83c3.21,0,3.22-5,0-5s-3.23,5,0,5Z" style="fill: #231f20"/>
    <path d="M221.17,163.83c3.22,0,3.22-5,0-5s-3.22,5,0,5Z" style="fill: #231f20"/>
    <path d="M223.23,159.29h-5a2.59,2.59,0,0,0-1.77.73,2.57,2.57,0,0,0-.73,1.77,2.54,2.54,0,0,0,2.5,2.5h5a2.59,2.59,0,0,0,1.77-.73,2.5,2.5,0,0,0-1.77-4.27Z" style="fill: #231f20"/>
    <path d="M229.42,163.83c3.22,0,3.23-5,0-5s-3.22,5,0,5Z" style="fill: #231f20"/>
    <path d="M206,160.74a4.17,4.17,0,0,1-1.23.06c-.73,0-1.46-.1-2.19-.13a43.29,43.29,0,0,0-5.46.13,50.23,50.23,0,0,0-5.46.8,19.87,19.87,0,0,1-5.08.69,2.5,2.5,0,0,0,0,5,24.62,24.62,0,0,0,6.21-.82,37.08,37.08,0,0,1,5.54-.76,48.47,48.47,0,0,1,5.78,0,7.31,7.31,0,0,0,5.42-1.48,2.52,2.52,0,0,0,0-3.54,2.56,2.56,0,0,0-3.53,0Z" style="fill: #231f20"/>
    <path d="M180.25,167.54c4.25.57,8.49-.58,12.73-.71s8.79,0,13.17,0c3.22,0,3.23-5,0-5-4.38,0-8.79-.13-13.17,0s-8.48,1.28-12.73.71a2.52,2.52,0,0,0-2.5,2.5,2.56,2.56,0,0,0,2.5,2.5Z" style="fill: #231f20"/>
    <path d="M197,162.93l-.57-.11a2,2,0,0,0-1,0,1.89,1.89,0,0,0-.92.3,1.85,1.85,0,0,0-.71.65,1.78,1.78,0,0,0-.44.85l-.09.66a2.43,2.43,0,0,0,.34,1.26l.39.51a2.5,2.5,0,0,0,1.1.64l.58.12a2,2,0,0,0,1,0,2.26,2.26,0,0,0,1.63-.94,1.94,1.94,0,0,0,.45-.85l.09-.67a2.43,2.43,0,0,0-.34-1.26l-.39-.5a2.5,2.5,0,0,0-1.11-.65Z" style="fill: #231f20"/>
    <path d="M180,168.81c2.55,1,5.22-.24,7.75-.69.09,0,.91-.14.46-.08.33,0,.67-.08,1-.1.59,0,1.17-.05,1.75-.07a13.81,13.81,0,0,0,4.09-.58,2.5,2.5,0,0,0-1.33-4.82c-.32.11-.63.19-.95.27-.73.17.43,0-.31,0-.58.05-1.16.07-1.75.09a30.13,30.13,0,0,0-3.79.33,33.42,33.42,0,0,0-3.26.75l-.7.16-.47.09c.28,0,.27,0,0,0a5.3,5.3,0,0,1-.69,0c.55.06-.32-.14-.44-.19a2.51,2.51,0,0,0-3.08,1.75,2.58,2.58,0,0,0,1.75,3.07Z" style="fill: #231f20"/>
  </g>
  <path d="M224.66,223.52c-2.57,28.87-12,44.41-12,44.41H191.64l-10.7-5.49q-1.53-20-3.05-39.9" style="fill: #c3996c"/>
  <path d="M194.72,150v13.64s-3.67,12.54-19.26,11.92c0,0-18.65-4.58-17.43,8.57s-.05,1.52-.05,1.52,2.42,63.21,7.24,67.34c0,0-16.51,53.66-14.45,77.73,0,0-4.12,6.88-7.56,12.39a19.59,19.59,0,0,0,0,9.63s1.07,13.3,8.4,22.16a2.17,2.17,0,0,0,3.37,0s-.24-43.8-2.76-43.11L176.91,262s.69-42.65-4.12-57.09l58-1.32" style="fill: #c3996c"/>
  <polyline points="207.27 187.01 207.27 181.97 219.2 178.76" style="fill: none;stroke: #231f20;stroke-miterlimit: 10"/>
  <polyline points="197.41 187.01 196.13 181.51 177 181.51" style="fill: none;stroke: #231f20;stroke-miterlimit: 10"/>
  <g>
    <path d="M194.07,152.18s4.12,21.47-12.39,23.34c0,0-8.94,15.8-8.94,31.53l21.78,9.29,31.88-4.57s11-39.49,6.19-36.25l-11-4.33s-8.25,6.39-11-16.41c0,0-3.44,10.42-12.39,0" style="fill: #c49a6c"/>
    <line x1="198.89" y1="155.58" x2="194.67" y2="153.78" style="fill: #c49a6c"/>
  </g>
  <path d="M208,154.68q2.36,6.63,4.69,13.27c1.53,2.85,9.57,2.52,16.8,2.06a17,17,0,0,1,9.7,2.4s7,0,6.11,21.4c0,0,4.59,40.06,6.42,71.7,0,0,7.57,12.84,13.76,58.24s0,3.44,0,3.44,13.07,27.51,12.38,39.9c0,0,2.76,21.32-4.81,22a95.77,95.77,0,0,1-5.93-12.56c-.62-1.58-1.17-3.13-1.67-4.65.38-2,.7-4.14.92-6.42a72.65,72.65,0,0,0-.08-14.9s-24.08-41.49-25.45-83c0,0-8.95-19.5-11.7-38.76s0-3.44,0-3.44q-.62-9.63-1.22-19.26l-5.76,2.22" style="fill: #c3996c"/>
  <path d="M217.44,226.1c9.93.14,13.17-2,14.15-4.09.63-.92,5.43-8.33,2.47-16.78-.33-.95-2.2-6.25-6.87-8.73-6.59-3.5-17.37,0-25.23,9.65-5.77-9.12-17.06-11.15-23.62-6.42-4.73,3.41-6.85,10.22-5.27,17,.66,1.55,1.69,3.8,3.14,6.44,1.36,2.48,2,3.73,2.8,4.35,1.85,1.54,3.6,1.32,10.11,2.06,2.28.25,4.12.51,5.27.68" style="fill: #afc8d8"/>
  <polyline points="196.51 184.01 195.23 178.51 176.1 178.51" style="fill: none;stroke: #231f20;stroke-miterlimit: 10;stroke-width: 0.5px"/>
  <polyline points="208.24 182.64 208.24 177.59 220.16 174.38" style="fill: none;stroke: #231f20;stroke-miterlimit: 10;stroke-width: 0.5px"/>
  <g>
    <path d="M202.61,99.67s-20.64-2.75-14.22,39c0,0,2.75,16.51,14.22,22,0,0,10.08-2.29,14.67-19.26,0,0,11.47-30.8-12.38-41.77" style="fill: #c49a6c;stroke: #000;stroke-miterlimit: 10;stroke-width: 0.25px"/>
    <line x1="201.72" y1="99.63" x2="205.45" y2="99.84" style="fill: #c49a6c;stroke: #000;stroke-miterlimit: 10;stroke-width: 0.25px"/>
  </g>
  <path d="M201.18,711.86c-20-14.38-17.52-16.58-17.52-16.58,14.12-49.53,11.25-68.79,11.25-68.79-22-53.1-22.62-163-22.62-163-37.15-143.77-11.7-179.2-11.7-179.2a171,171,0,0,1,14.28,15.08,170.21,170.21,0,0,1,14.61,20.35s4.13,96.31.69,141.71c0,0,9.63,121.07,10.32,154.77,0,0,10.32,63.91,5.5,79.8Z" style="fill: #bb895b"/>
  <path d="M211.56,305.76a10.86,10.86,0,0,0,6.58-2,12.43,12.43,0,0,0,2.59-3.07c1.49-2,5.08-3.65,14.51-2.18,0,0,17.42,46.53-22,145.25,0,0-4,8.84-3.37,34.52,0,0,4.29,56.87,5.21,69.71,0,0,6.42,24.76-.92,56.87,0,0-2.59,47.69,5.13,57.78,0,0,4,24.76,6.79,36.69,0,0,.92,4.58-11,12.84h-15.6l-5.5-8.26,6.42-55.49.92-28c-4.31-19.55-8.18-40.73-11.24-63.4a775.76,775.76,0,0,1-6.66-83.28q1.47-13.68,2.77-27.7c1.68-18.27,2.62-31.42,3.21-39.33C189.38,406.77,196.77,306.71,211.56,305.76Z" style="fill: #c49a6c"/>
  <path d="M195.61,592.15l2.49-.15,2.75-.13c5.29-.68,10.58-1.41,15.87-2.09,2.82-24.44-1.66-41.76-1.66-41.76-.92-12.84-5.21-69.71-5.21-69.71-.62-25.68,3.37-34.52,3.37-34.52,39.44-98.72,22-145.25,22-145.25-9.43-1.47-13,.23-14.51,2.18a12.43,12.43,0,0,1-2.59,3.07,10.86,10.86,0,0,1-6.58,2c-14.79.95-22.18,101-22.18,101-.59,7.91-1.53,21.06-3.21,39.33q-1.3,14-2.77,27.7a775.76,775.76,0,0,0,6.66,83.28Q192.52,575.28,195.61,592.15Z" style="fill: #118d95;stroke: #231f20;stroke-miterlimit: 10;stroke-width: 0.25px"/>
  <path d="M179.24,556.2q2.7-.59,5.43-1a75.12,75.12,0,0,1,12.85-2.66c-3-43.71-6.76-91.05-6.76-91.05,3.44-45.4-.69-141.71-.69-141.71a169.22,169.22,0,0,0-28.89-35.43s-25.45,35.43,11.7,179.2C172.88,463.51,173.12,509.4,179.24,556.2Z" style="fill: #118d95;stroke: #231f20;stroke-miterlimit: 10;stroke-width: 0.25px"/>
  <path d="M208.39,644.3a4.87,4.87,0,0,0,1.81-3.5c-.13-2.93-4.45-4.61-4.75-4.72,0,0-3.57-10.72,3.55-10.61,0,0,3.42-12.48-1.55-19.91,0,0,8.26-6.75-2.5-13,.48-2.85.92-5.83,1.3-8.92.48-3.94.82-7.73,1.05-11.33a19.72,19.72,0,0,0,1.61-2.89,19.93,19.93,0,0,0,1.76-7.62c-.48-1.53-.94-3.14-1.35-4.83a72.73,72.73,0,0,1-1.95-13.19,23.87,23.87,0,0,1,2.1-18.63,150.05,150.05,0,0,0-33.26.2c-3.32,15.76-2.19,20.57-.32,21.81.43.29,2.26,1.29,2.54,3a4.86,4.86,0,0,1-.7,2.81c-1.17,2.54-2.16,2.56-2.46,3.87-.47,2.11,1.89,2.92,2.3,5.8.33,2.35-1.06,3.07-1.82,6.13-.68,2.69.21,3.69.75,9.6.21,2.36.28,4.28.31,5.44s.41,3,.61,5.21c.61,6.54.3,9.75,1.84,10.39.42.18,1.16.23,2.44-.61q-1.11,6.55-2.1,13.36-.43,3.09-.84,6.12c.43,2,.81,4.26,1.09,6.64a76.31,76.31,0,0,1,.56,9.26,45.22,45.22,0,0,0,3.46,8.93A44.7,44.7,0,0,0,187,648.3C189.72,648.47,203.42,649.18,208.39,644.3Z" style="fill: #d4a12a;stroke: #231f20;stroke-miterlimit: 10;stroke-width: 0.5px"/>
  <path d="M213.78,646.77a9.34,9.34,0,0,0,4.61-2.43c3.52-3.71,2-9.86,1.73-10.85,0,0-4.62-10.42,3.5-10.9,0,0,3.24-12.76-2.81-19.77,0,0,9.07-7.44-3.52-12.77.4-2.89.75-5.9,1-9,.34-4,.53-7.79.6-11.41a18.88,18.88,0,0,0,1.69-3,18.42,18.42,0,0,0,1.61-7.77c-.63-1.48-1.24-3.05-1.8-4.71a64.94,64.94,0,0,1-2.91-13,92.42,92.42,0,0,0-1.42-10,93.59,93.59,0,0,0-2.83-10.82c-4.75,1-9.71,1.88-14.87,2.7q-6.15,1-12,1.67c-1.57,7.86-1.59,12.74-1.27,15.8.35,3.38,1.32,6.58-.25,9.45-.32.58-1.12,1.84-.65,2.87s1.6.7,2.43,1.75c1.29,1.64.16,4.49,0,4.89-.7,1.76-1.45,1.69-2.11,3-1.29,2.64.71,4.63.89,8.88.12,2.87-.73,3.3-1.29,6.93a28.73,28.73,0,0,0,.51,11A12,12,0,0,1,187,593a12.21,12.21,0,0,1,.67,6,39.29,39.29,0,0,1,1.81,12.71,40.3,40.3,0,0,1-.65,6.19c.6,2,1.14,4.19,1.6,6.55a69.16,69.16,0,0,1,1.11,9.21A26.63,26.63,0,0,1,198,646.54,29.39,29.39,0,0,0,213.78,646.77Z" style="fill: #d4a12a;stroke: #231f20;stroke-miterlimit: 10;stroke-width: 0.5px"/>
  <path d="M194.18,706.6a56.7,56.7,0,0,1-5.34-4,61,61,0,0,1-6.09-6l3.21-11a7.45,7.45,0,0,0,2.73,2.53c3.43,1.8,7,0,7.47-.18q-1.09,8.5-2.2,17l2.46,3.64" style="fill: #ae2068;stroke: #231f20;stroke-miterlimit: 10;stroke-width: 0.25px"/>
  <path d="M226.28,700c-.61-2.63-1.28-5.88-1.95-9.35a11.22,11.22,0,0,1-2.26,1.24,24.25,24.25,0,0,1-6.38,1.27,37.39,37.39,0,0,1-11.4-.59,6,6,0,0,1-1.69-.07c1.13.21-.17,0-.45,0h-1.43c-.8,0-1.61,0-2.41,0a13.86,13.86,0,0,1-2.39-.41l-.29,0-1.45,12.53,5.5,8.26h15.59C227.2,704.6,226.28,700,226.28,700Z" style="fill: #ae2068;stroke: #231f20;stroke-miterlimit: 10;stroke-width: 0.25px"/>
  <polyline points="213.78 646.77 219.27 662.67 224.33 690.67" style="fill: none;stroke: #ae2068;stroke-miterlimit: 10;stroke-width: 0.5px"/>
  <line x1="200.38" y1="648.45" x2="195.92" y2="692.05" style="fill: none;stroke: #ae2068;stroke-miterlimit: 10;stroke-width: 0.5px"/>
  <line x1="194.18" y1="648.45" x2="185.96" y2="685.6" style="fill: none;stroke: #ae2068;stroke-miterlimit: 10;stroke-width: 0.5px"/>
  <path d="M215.13,264.63s14.72,13.56,19.53,32.82c0,0-22.35,15.82-32.5,22H188.25s-16.18-17.2-27.88-32.33c0,0,3.78-14.44,20.46-26.14C180.83,261,213,267.65,215.13,264.63Z" style="fill: #b01f56"/>
  <path d="M158.26,192.16q4,.42,8.21,1l4.28.61a153.26,153.26,0,0,1,74.61-3.11c3.87,21.43,3.83,27.66,2.53,28a17,17,0,0,0-3,.24c-.59.13-1.19.31-2.29.47-.34.06-.49.07-1.24.16l-2.45.3a41.21,41.21,0,0,1-5.06-.05c-1.1-.08-2.15-.21-3.12-.36l1.86-17.51c-.31,5.39-.89,11.26-1.86,17.51a183.54,183.54,0,0,1-4.59,21.12c-4,0-8,.07-12,.15q-19.12.35-37.38,1.38-.1-5.64-.47-11.6A257.26,257.26,0,0,0,173,202.7q.78,8.58,1.55,17.16c-3.22-.16-6.65-.47-10.24-1-1.53-.21-3-.45-4.45-.71q-.69-11.3-1.39-22.59Z" style="fill: #d7d7db;stroke: #231f20;stroke-miterlimit: 10;stroke-width: 0.5px"/>
  <path d="M216.19,170.38S194,238.27,231.89,297.82" style="fill: none;stroke: #b11f56;stroke-miterlimit: 10;stroke-width: 2px"/>
  <path d="M213.13,251.86a20.84,20.84,0,0,1-27,0s-4.41,4.16-6.07-1l.77,10.08,14.3,7.74,20-4.1,3.73-11.45" style="fill: #b01f56;stroke: #b11f56;stroke-miterlimit: 10;stroke-width: 1.64515334024198px"/>
  <path d="M214.2,251.77s4.22,2.94,5,.32" style="fill: none;stroke: #b11f56;stroke-miterlimit: 10;stroke-width: 1.64515334024198px"/>
  <polygon points="219.47 195.42 212.55 207.41 226.4 207.41 219.47 195.42" style="fill: #e95da2"/>
  <polygon points="238.3 198.18 236.63 209.97 247.68 205.52 238.3 198.18" style="fill: #3f83c4"/>
  <polygon points="199.47 224.29 189.92 231.47 200.91 236.15 199.47 224.29" style="fill: #4fa7db"/>
  <polygon points="171.99 198.33 161.6 206.14 173.56 211.24 171.99 198.33" style="fill: #dacd60"/>
  <polygon points="195.56 201.14 193.72 214.15 205.91 209.24 195.56 201.14" style="fill: #cc9bc6"/>
  <polygon points="223.71 215.68 213.32 223.49 225.28 228.58 223.71 215.68" style="fill: #dacd60"/>
  <circle cx="182.75" cy="198.34" r="3.44" style="fill: #4fa7db"/>
  <circle cx="216.7" cy="236.1" r="3.44" style="fill: #8fbfca"/>
  <circle cx="205.1" cy="198.34" r="3.44" style="fill: #c1cd30"/>
  <circle cx="187.21" cy="220.04" r="3.44" style="fill: #eb519d"/>
  <circle cx="182.75" cy="232.66" r="3.44" style="fill: #4fa7db"/>
  <path d="M186,172.87s15.26,64-15.7,127.44" style="fill: none;stroke: #b11f56;stroke-miterlimit: 10;stroke-width: 2px"/>
  <path d="M251,254.47q-3.42,1.42-6.88,2.74a50.29,50.29,0,0,0,7-1.65C251.09,255.2,251.07,254.84,251,254.47Z" style="fill: #91589d"/>
  <path d="M266,327.48c-.21-1.5-.43-3.11-.66-4.87-4.55-33.36-9.84-49.12-12.33-55.15a64.45,64.45,0,0,1-12.16,2.29c2.48,40.37,25.29,79.68,25.29,79.68a75,75,0,0,1,.41,9.31l1.78-.82.11-.05c2.54-1.14,5.07-2.26,7.67-3.22C273.32,344,267.85,331.6,266,327.48Z" style="fill: #91589d"/>
  <path d="M270.12,325.21c-2.48,1.14-5.17,2.27-8.07,3.32-1.55.57-3.07,1.08-4.54,1.54q1.55,5.24,3.43,10.73c.45,1.28.9,2.55,1.36,3.8-.24,1.09-1.19,6,1.85,10a10.29,10.29,0,0,0,2.37,2.18c1.47-.67,1.79-.81,1.78-.82s-1.8.77-1.78.82,6.36-2.35,11.85-4.48a39.76,39.76,0,0,1-8.25-27.05Z" style="fill: #a6d062"/>
  <path d="M163.89,256.19c-3.33,11.3-15.4,54.15-13.61,74.94,0,0-1.79,3-4,6.57,2.28-.05,4.56,0,6.84,0-.37-3.47-.82-5.67-1.4-5.51l24.69-69.86s0-2.55,0-6.61A79.47,79.47,0,0,1,163.89,256.19Z" style="fill: #91589d"/>
  <path d="M150,301.07c2.55,1,5.3,1.94,8.26,2.81,1.58.47,3.13.88,4.63,1.25a39.27,39.27,0,0,0-1.83,7.52,40.06,40.06,0,0,0,.19,12.49A32,32,0,0,1,157.8,330c-.75.87-1.5,1.64-2.22,2.33l-1.84-.7s1.85.65,1.84.7-3.56-1-7.48-2.26q.77-7.31,1.28-15.16Q149.83,307.77,150,301.07Z" style="fill: #a6d062"/>
  <line x1="192.68" y1="99.96" x2="213.24" y2="99.59" style="fill: none;stroke: #231f20;stroke-miterlimit: 10;stroke-width: 9px"/>
  <path d="M189.17,114.54c1.54-1,9.21-5.92,18.92-3.78a24,24,0,0,1,11.22,6l3.24-8.3a34.37,34.37,0,0,0-10.8-4.74,36.65,36.65,0,0,0-24.11,2.79Z" style="fill: #e87fb3"/>
</svg>
