<svg xmlns="http://www.w3.org/2000/svg" width="465.02" height="725.83" viewBox="0 0 465.02 725.83">
  <title>Artboard 9</title>
  <g id="_1950" data-name="1950">
    <path d="M231.54,662.36C211.59,648,214,645.78,214,645.78,228.15,596.25,225.27,577,225.27,577c-22-53.1-22.62-163-22.62-163C165.5,270.19,191,234.76,191,234.76a169.59,169.59,0,0,1,14.27,15.08,168.47,168.47,0,0,1,14.62,20.35s4.13,96.3.69,141.71c0,0,9.63,121.07,10.31,154.77,0,0,10.32,63.91,5.51,79.8Z" style="fill: #bb895b"/>
    <path d="M241.92,256.26a10.84,10.84,0,0,0,6.59-2,11.79,11.79,0,0,0,2.58-3.07c1.49-1.94,5.08-3.64,14.51-2.17,0,0,17.43,46.52-22,145.25,0,0-4,8.84-3.38,34.52,0,0,4.29,56.87,5.21,69.71,0,0,6.42,24.76-.92,56.86,0,0-2.58,47.7,5.13,57.79,0,0,4.05,24.76,6.8,36.69,0,0,.91,4.58-11,12.84H229.83l-5.5-8.26L230.75,599l.91-28c-4.31-19.55-8.18-40.73-11.23-63.41a772.81,772.81,0,0,1-6.66-83.27q1.46-13.68,2.76-27.71c1.68-18.26,2.62-31.41,3.21-39.32C219.74,357.27,227.14,257.21,241.92,256.26Z" style="fill: #c49a6c"/>
    <path d="M255,174c-2.58,28.87-12,44.41-12,44.41H222l-10.7-5.49L208.25,173" style="fill: #afc8d8"/>
    <polyline points="237.64 137.51 237.64 132.47 249.56 129.26" style="fill: none;stroke: #231f20;stroke-miterlimit: 10"/>
    <polyline points="227.78 137.51 226.5 132.01 207.36 132.01" style="fill: none;stroke: #231f20;stroke-miterlimit: 10"/>
    <path d="M245.39,215.13s14.72,13.56,19.53,32.82c0,0-22.35,15.82-32.5,22H218.51s-16.18-17.2-27.88-32.33c0,0,3.78-14.45,20.46-26.14C211.09,211.49,243.3,218.15,245.39,215.13Z" style="fill: #afc8d8"/>
    <g>
      <path d="M224.43,102.68s4.13,21.47-12.38,23.33c0,0-8.94,15.81-8.94,31.54l21.78,9.29,31.87-4.57s11-39.49,6.19-36.26l-11-4.33s-8.26,6.4-11-16.4c0,0-3.44,10.42-12.38,0" style="fill: #c49a6c"/>
      <line x1="229.26" y1="106.07" x2="225.04" y2="104.28" style="fill: #c49a6c"/>
    </g>
    <path d="M238.35,105.18,243,118.44c1.53,2.86,9.58,2.53,16.81,2.07a16.87,16.87,0,0,1,9.69,2.4s7,0,6.12,21.4c0,0,4.58,40.06,6.42,71.7,0,0,7.56,12.83,13.76,58.24s0,3.44,0,3.44,13.07,27.51,12.38,39.89c0,0,2.75,21.33-4.82,22A97.08,97.08,0,0,1,297.46,327q-.91-2.39-1.66-4.65.57-3,.92-6.42a73.29,73.29,0,0,0-.09-14.9s-24.08-41.49-25.45-83c0,0-8.94-19.5-11.7-38.76s0-3.44,0-3.44q-.6-9.63-1.22-19.26l-5.76,2.22" style="fill: #c3996c"/>
    <path d="M225.09,100.53v13.64s-3.67,12.53-19.27,11.92c0,0-18.65-4.58-17.42,8.56s-.06,1.53-.06,1.53,2.43,63.21,7.24,67.34c0,0-16.51,53.66-14.44,77.73,0,0-4.13,6.88-7.57,12.38a19.6,19.6,0,0,0,0,9.63s1.07,13.3,8.41,22.17a2.17,2.17,0,0,0,3.36,0s-.24-43.8-2.75-43.11l24.69-69.86s.68-42.65-4.13-57.09l58-1.32" style="fill: #c3996c"/>
    <path d="M247.81,176.59c9.92.15,13.16-2,14.15-4.08.62-.93,5.42-8.33,2.46-16.78-.33-.95-2.19-6.25-6.86-8.73-6.6-3.51-17.38,0-25.24,9.65-5.77-9.12-17.06-11.15-23.62-6.43-4.72,3.41-6.85,10.23-5.27,17,.66,1.54,1.69,3.8,3.14,6.44,1.36,2.47,2.05,3.72,2.81,4.35,1.84,1.53,3.6,1.32,10.1,2.05,2.28.26,4.12.52,5.28.69" style="fill: #afc8d8"/>
    <polyline points="226.88 134.51 225.6 129.01 206.46 129.01" style="fill: none;stroke: #231f20;stroke-miterlimit: 10;stroke-width: 0.5px"/>
    <polyline points="238.6 133.14 238.6 128.09 250.52 124.88" style="fill: none;stroke: #231f20;stroke-miterlimit: 10;stroke-width: 0.5px"/>
    <g>
      <path d="M233,50.17s-20.64-2.75-14.22,39c0,0,2.75,16.51,14.22,22,0,0,10.09-2.29,14.67-19.26,0,0,11.47-30.8-12.38-41.77" style="fill: #c49a6c;stroke: #000;stroke-miterlimit: 10;stroke-width: 0.25px"/>
      <line x1="232.09" y1="50.13" x2="235.81" y2="50.33" style="fill: #c49a6c;stroke: #000;stroke-miterlimit: 10;stroke-width: 0.25px"/>
    </g>
    <g>
      <path d="M236.8,61.24C265.05,59.49,250.3,115,250.3,115c-6.77,32.89,3.49,90.12,16.45,115.12H233.86L230,115l-.17-.48c-21.27-56.2,7-53.29,7-53.29" style="fill: #010101;stroke: #010101;stroke-miterlimit: 10"/>
      <polyline points="237.64 137.51 237.64 132.47 249.56 129.26" style="fill: none;stroke: #231f20;stroke-miterlimit: 10"/>
      <polyline points="227.78 137.51 226.5 132.01 207.36 132.01" style="fill: none;stroke: #231f20;stroke-miterlimit: 10"/>
      <polyline points="226.88 134.51 225.6 129.01 206.46 129.01" style="fill: none;stroke: #231f20;stroke-miterlimit: 10;stroke-width: 0.5px"/>
      <polyline points="238.6 133.14 238.6 128.09 250.52 124.88" style="fill: none;stroke: #231f20;stroke-miterlimit: 10;stroke-width: 0.5px"/>
      <path d="M231.54,662.36C211.59,648,214,645.78,214,645.78,228.15,596.25,225.27,577,225.27,577c-22-53.1-22.62-163-22.62-163C165.5,270.19,191,234.76,191,234.76a169.59,169.59,0,0,1,14.27,15.08,168.47,168.47,0,0,1,14.62,20.35s4.13,96.3.69,141.71c0,0,9.63,121.07,10.31,154.77,0,0,10.32,63.91,5.51,79.8Z" style="fill: #bb895b"/>
      <path d="M241.92,256.26a10.84,10.84,0,0,0,6.59-2,11.79,11.79,0,0,0,2.58-3.07c1.49-1.94,5.08-3.64,14.51-2.17,0,0,17.43,46.52-22,145.25,0,0-4,8.84-3.38,34.52,0,0,4.29,56.87,5.21,69.71,0,0,6.42,24.76-.92,56.86,0,0-2.58,47.7,5.13,57.79,0,0,4.05,24.76,6.8,36.69,0,0,.91,4.58-11,12.84H229.83l-5.5-8.26L230.75,599l.91-28c-4.31-19.55-8.18-40.73-11.23-63.41a772.81,772.81,0,0,1-6.66-83.27q1.46-13.68,2.76-27.71c1.68-18.26,2.62-31.41,3.21-39.32C219.74,357.27,227.14,257.21,241.92,256.26Z" style="fill: #c49a6c"/>
      <path d="M255,174c-2.58,28.87-12,44.41-12,44.41H222l-10.7-5.49L208.25,173" style="fill: #fff"/>
      <path d="M245.39,215.13s14.72,13.56,19.53,32.82c0,0-22.35,15.82-32.5,22H218.51s-16.18-17.2-27.88-32.33c0,0,3.78-14.45,20.46-26.14C211.09,211.49,243.3,218.15,245.39,215.13Z" style="fill: #afc8d8"/>
      <g>
        <path d="M224.43,102.68s4.13,21.47-12.38,23.33c0,0-8.94,15.81-8.94,31.54l21.78,9.29,31.87-4.57s11-39.49,6.19-36.26l-11-4.33s-8.26,6.4-11-16.4c0,0-3.44,10.42-12.38,0" style="fill: #c49a6c"/>
        <line x1="229.26" y1="106.07" x2="225.04" y2="104.28" style="fill: #c49a6c"/>
      </g>
      <path d="M238.35,105.18,243,118.44c1.53,2.86,9.58,2.53,16.81,2.07a16.87,16.87,0,0,1,9.69,2.4s7,0,6.12,21.4c0,0,4.58,40.06,6.42,71.7,0,0,7.56,12.83,13.76,58.24s0,3.44,0,3.44,13.07,27.51,12.38,39.89c0,0,2.75,21.33-4.82,22A97.08,97.08,0,0,1,297.46,327q-.91-2.39-1.66-4.65.57-3,.92-6.42a73.29,73.29,0,0,0-.09-14.9s-24.08-41.49-25.45-83c0,0-8.94-19.5-11.7-38.76s0-3.44,0-3.44q-.6-9.63-1.22-19.26l-5.76,2.22" style="fill: #c3996c"/>
      <path d="M188.4,134.65c1.22,13.15-.06,1.53-.06,1.53" style="fill: #c3996c"/>
      <path d="M247.81,176.59c9.92.15,13.16-2,14.15-4.08.62-.93,5.42-8.33,2.46-16.78-.33-.95-2.19-6.25-6.86-8.73-6.6-3.51-17.38,0-25.24,9.65-5.77-9.12-17.06-11.15-23.62-6.43-4.72,3.41-6.85,10.23-5.27,17,.66,1.54,1.69,3.8,3.14,6.44,1.36,2.47,2.05,3.72,2.81,4.35,1.84,1.53,3.6,1.32,10.1,2.05,2.28.26,4.12.52,5.28.69" style="fill: #fff"/>
      <path d="M222.87,597.38h11.39l-6.36,63.56A25.46,25.46,0,0,1,215,649c-4.15-8.33-3.29-18.69,2.05-27.08Q220,609.66,222.87,597.38Z" style="fill: #b5b3b2;stroke: #231f20;stroke-miterlimit: 10"/>
      <path d="M186.47,341.59a400.79,400.79,0,0,0,9.89,52.09,84,84,0,0,1,3.45,49.43s3,61.84,4.11,68c7.27,23.43,12,38.48,12,38.48l0,0c2.86.79,8.24,2.28,10.51.21s.89-6.56.69-7.25q1.88-4.9,3.93-9.91,4.55-11.13,9.34-21.3s2.42-45.83-2.49-51l-2.13-12.76,4.15-3.63-3.37-2.72,4.27-4.56s7-30.1,4-32.32c0,0,.44-3.64-.43-11.6,0,0,5-10.48,1.5-16,0,0,7.48-15.67,4.65-18.88l2.9-23.62q-4.75-52.12-9.53-104.25c4.27,2.28,6.36,3.55,6.24,3.79q-.42.92-41.55-17.09c-.94,1.05-1.86,2.12-2.75,3.21-11.48,14-27.26,42.11-21.74,94.5" style="fill: #afc8d8;stroke: #231f20;stroke-miterlimit: 10;stroke-width: 0.25px"/>
      <path d="M251.07,219a26.53,26.53,0,0,1,15.43,18.21,39.76,39.76,0,0,0,2.41,8.68c1.37,3.35,2.56,4.92,4,9.26a30.56,30.56,0,0,1,1.37,5.05,28.93,28.93,0,0,1,0,8.71c0,.4-.33,5-.92,14.22-.18,2.91-.39,7.15-.45,12.38s-.44,11.06-1.15,17.2a180.34,180.34,0,0,1-4.2,23.06,171.41,171.41,0,0,1-16.21,57.88c-.27,1.8-.71,4.52-1.37,7.8-1.5,7.41-2.59,10-3.21,13.76a37.93,37.93,0,0,0,.91,16.05c-.12,3.49-.31,6.31-.46,8.25-.17,2.31-.4,4.75-.45,8.26,0,1.16,0,2.12,0,2.75a33.84,33.84,0,0,1,.91,17c.11,1.77.27,4.48.46,7.79.56,9.53.81,14.23.9,14.22s0-3.21,0-3.21-.16,8.12.46,15.59a103.56,103.56,0,0,0,3.67,19.95c-.22,2.71-.52,5.55-.92,8.48-.56,4.13-1.25,8-2,11.63-2.88.29-5.92.68-9.1,1.22a128.76,128.76,0,0,0-13.45,3c-.34-2-7.28-42.39-9.93-70.46-1-10.28-1.66-20.61-1.66-20.61-.52-7.67-.89-14.78-1.15-21.25a562.31,562.31,0,0,1,.39-73.68c1.4-19.62,3.74-37.81,6.57-54.41q-.18-41.81-.38-83.62c4.54,0,9.54-.27,14.92-.84S246.68,220,251.07,219Z" style="fill: #afc8d8;stroke: #231f20;stroke-miterlimit: 10;stroke-width: 0.25px"/>
      <path d="M216.89,224.21s-6.06,28,1.72,36.75c0,0,3.26,5.41,4.27,4.26,0,0-1.78-50.29,2.88-42.83C225.76,222.39,223.89,224.79,216.89,224.21Z" style="fill: none;stroke: #231f20;stroke-miterlimit: 10;stroke-width: 0.678212523460388px"/>
      <path d="M214.54,228.74s-12,16.5-15,1.1" style="fill: none;stroke: #231f20;stroke-miterlimit: 10;stroke-width: 0.828968078101972px"/>
      <path d="M242.52,220.51s3.6,18.1,18,7.55" style="fill: none;stroke: #231f20;stroke-miterlimit: 10;stroke-width: 0.808806503809854px"/>
      <path d="M205.37,215.35s8.68,4.45,45.64-.82a4.67,4.67,0,0,1,.24,3.95S217,228.41,204.9,219C204.9,219,203.64,214.78,205.37,215.35Z" style="fill: #231f20;stroke: #231f20;stroke-miterlimit: 10;stroke-width: 0.471727030871357px"/>
      <path d="M214.65,218s-1.51,3.43,0,6.27c0,0,11.35,2.56,14.56-.79A6.66,6.66,0,0,0,231,217Z" style="fill: #fff;stroke: #231f20;stroke-miterlimit: 10"/>
      <path d="M239,215.41s3.21,3.2,2.29,6" style="fill: #fff;stroke: #fff;stroke-miterlimit: 10;stroke-width: 0.673856323931264px"/>
      <path d="M210.24,216s-3.21,2.67-2.3,5" style="fill: #fff;stroke: #fff;stroke-miterlimit: 10;stroke-width: 0.615143848562245px"/>
      <path d="M245.76,655.68c.82-1.16-2.88-7.27-9.39-11.93a28.88,28.88,0,0,0-21-5.09c-.31,1.24-.63,2.48-.94,3.72a32.91,32.91,0,0,0,5.28,11.38S238.59,665.77,245.76,655.68Z" style="fill: #fff;stroke: #2b2a2a;stroke-miterlimit: 10"/>
      <circle cx="220.17" cy="632.32" r="2.41" style="fill: #d75727;stroke: #231f20;stroke-miterlimit: 10"/>
      <circle cx="222.19" cy="617.46" r="2.41" style="fill: #d75727;stroke: #231f20;stroke-miterlimit: 10"/>
      <circle cx="221.01" cy="624.58" r="2.41" style="fill: #d75727;stroke: #231f20;stroke-miterlimit: 10"/>
      <line x1="220.17" y1="632.32" x2="233.08" y2="626.48" style="fill: none;stroke: #231f20;stroke-miterlimit: 10;stroke-width: 0.75px"/>
      <line x1="232.31" y1="633.63" x2="221.01" y2="624.58" style="fill: none;stroke: #231f20;stroke-miterlimit: 10;stroke-width: 0.75px"/>
      <line x1="233.92" y1="618.73" x2="221.01" y2="624.58" style="fill: none;stroke: #231f20;stroke-miterlimit: 10;stroke-width: 0.75px"/>
      <line x1="222.19" y1="617.46" x2="233.08" y2="626.48" style="fill: none;stroke: #231f20;stroke-miterlimit: 10;stroke-width: 0.75px"/>
      <g>
        <path d="M231.8,616c-.61-4.44-3.93-10.5-9.09-10.41-5.71.1-5.14,9.55.95,8.52,3.34-.56,6.2-3,8.16-5.67" style="fill: none;stroke: #231f20;stroke-miterlimit: 10;stroke-width: 0.75px"/>
        <path d="M227.93,607.48c1.32,4.08,5.78,10.61,10.78,7.43,2.28-1.46,2.29-4.15,1-6.3-1.92-3.17-4.87-1.69-7.38-.12-2.76,1.71-5.43,4-5.94,7.41" style="fill: none;stroke: #231f20;stroke-miterlimit: 10;stroke-width: 0.75px"/>
      </g>
      <circle cx="221.18" cy="617.35" r="2.41" style="fill: #d75727;stroke: #231f20;stroke-miterlimit: 10"/>
      <circle cx="219.61" cy="624.43" r="2.41" style="fill: #d75727;stroke: #231f20;stroke-miterlimit: 10"/>
      <circle cx="219.57" cy="632.25" r="2.41" style="fill: #d75727;stroke: #231f20;stroke-miterlimit: 10"/>
      <circle cx="232.52" cy="629.75" r="2.41" style="fill: #b5b3b2;stroke: #231f20;stroke-miterlimit: 10"/>
      <circle cx="234.52" cy="632.16" r="2.41" style="fill: #d75727;stroke: #231f20;stroke-miterlimit: 10"/>
      <circle cx="234.93" cy="617.17" r="2.41" style="fill: #d75727;stroke: #231f20;stroke-miterlimit: 10"/>
      <circle cx="234.52" cy="624.37" r="2.41" style="fill: #d75727;stroke: #231f20;stroke-miterlimit: 10"/>
      <path d="M231.78,597.56l15.07.27q2.28,8.79,4.57,17.57c2.32,16.83,4.42,28.19,6.45,35.15a7.66,7.66,0,0,1,.06,3.29c-1.49,7.87-15.4,15.33-24.6,10.75a14.47,14.47,0,0,1-6.37-6.65q.34-7.87.86-16C228.78,626.68,230.13,611.86,231.78,597.56Z" style="fill: #b5b3b2;stroke: #231f20;stroke-miterlimit: 10"/>
      <circle cx="246.73" cy="617.17" r="2.41" style="fill: #d75727;stroke: #231f20;stroke-miterlimit: 10"/>
      <circle cx="246.73" cy="624.96" r="2.41" style="fill: #d75727;stroke: #231f20;stroke-miterlimit: 10"/>
      <circle cx="246.73" cy="632.16" r="2.41" style="fill: #d75727;stroke: #231f20;stroke-miterlimit: 10"/>
      <line x1="234.52" y1="632.16" x2="246.73" y2="624.96" style="fill: none;stroke: #231f20;stroke-miterlimit: 10;stroke-width: 0.75px"/>
      <line x1="246.73" y1="632.16" x2="234.52" y2="624.37" style="fill: none;stroke: #231f20;stroke-miterlimit: 10;stroke-width: 0.75px"/>
      <line x1="246.73" y1="617.17" x2="234.52" y2="624.37" style="fill: none;stroke: #231f20;stroke-miterlimit: 10;stroke-width: 0.75px"/>
      <line x1="234.93" y1="617.17" x2="246.73" y2="624.96" style="fill: none;stroke: #231f20;stroke-miterlimit: 10;stroke-width: 0.75px"/>
      <path d="M258.31,648.58c.1-1.77-5.58-6-12.76-6.82-10.88-1.26-18.06,7.41-18.54,8l-.11,5.6s3.18,8.41,10.43,7.89C237.33,663.26,257.43,664.1,258.31,648.58Z" style="fill: #fff;stroke: #231f20;stroke-miterlimit: 10;stroke-width: 0.75px"/>
      <g>
        <path d="M243.33,610.64c-1.1-4.36-5.05-10-10.16-9.38-5.67.71-4.09,10,1.86,8.37,3.25-.92,5.84-3.67,7.5-6.51" style="fill: none;stroke: #231f20;stroke-miterlimit: 10;stroke-width: 0.75px"/>
        <path d="M238.56,602.63c1.76,3.92,6.89,9.93,11.52,6.23,2.11-1.7,1.83-4.37.31-6.37-2.25-2.94-5-1.15-7.35.67-2.56,2-5,4.58-5.11,8" style="fill: none;stroke: #231f20;stroke-miterlimit: 10;stroke-width: 0.75px"/>
      </g>
      <circle cx="233.91" cy="617.17" r="2.41" style="fill: #d75727;stroke: #231f20;stroke-miterlimit: 10"/>
      <circle cx="233.11" cy="624.37" r="2.41" style="fill: #d75727;stroke: #231f20;stroke-miterlimit: 10"/>
      <circle cx="233.91" cy="632.16" r="2.41" style="fill: #d75727;stroke: #231f20;stroke-miterlimit: 10"/>
      <path d="M233,50.17s-20.64-2.75-14.22,39c0,0,2.75,16.51,14.22,22,0,0,10.09-2.29,14.67-19.26,0,0,11.47-30.8-12.38-41.77" style="fill: #c49a6c;stroke: #000;stroke-miterlimit: 10;stroke-width: 0.25px"/>
      <path d="M224.39,115.87s11,5,19,0" style="fill: #c49a6c;stroke: #000;stroke-miterlimit: 10;stroke-width: 2.06996549178228px"/>
      <path d="M282.34,215.74c-1.83-31.63-6.42-71.7-6.42-71.7.92-21.4-6.11-21.4-6.11-21.4a17,17,0,0,0-9.7-2.4c-5.54.35-11.55.62-14.75-.55a4.6,4.6,0,0,1-3.6,1.54h0q4.13,21.57,8.27,43.15-2.31,25.38-4.63,50.75l12,.62c.09-22,.35-46.25,1.2-46.26.38,0,.53,4.83,1.21,9.55,2.75,19.26,11.69,38.76,11.69,38.76.52,15.64,4.26,31.26,8.72,44.68,3.31-.89,6.59-1.87,9.9-2.66a14.42,14.42,0,0,0,2.73-1.75,5.29,5.29,0,0,1,.77-.53C288,225.41,282.34,215.74,282.34,215.74Z" style="fill: #546a80"/>
      <path d="M292,259.74l-14.8,3.64s-12.92-9.49-7.34-15.9l22.14-8.1s14.42,9.9,7.21,15.13" style="fill: #9aa5ae"/>
      <path d="M184.44,252a34.34,34.34,0,0,1,9.17,0h0l13.9-39.35c9.22,3.46,11.9,1.35,12.66.55,1.68-1.78.85-4.51.5-12.15-.22-4.74-.13-8.69,0-11.46q-.46-9.65-.92-19.27,1.51-12,3.37-24.25c.48-3.14,1-6.27,1.47-9.37h0l.3-8.48a49.74,49.74,0,0,1,.55-5.28c-.15-.35-.32-.7-.45-1.06l-2-.85a7.24,7.24,0,0,1-1.29-.69c-2.84,3.13-7.68,6.26-15.66,5.94,0,0-18.65-4.58-17.42,8.56s-.06,1.53-.06,1.53,2.42,63.21,7.24,67.34a482.09,482.09,0,0,0-11.89,48.39" style="fill: #546a80"/>
      <path d="M200,147.87s17.89,58.21,0,86" style="fill: none;stroke: #231f20;stroke-miterlimit: 10"/>
      <path d="M258.54,156.34s1.33,44.26,12.91,61.46c0,0,.85,23.68,3.7,26.86" style="fill: none;stroke: #231f20;stroke-miterlimit: 10"/>
      <path d="M219.51,390.75s26.14-7.27,27.05,0" style="fill: none;stroke: #c3996c;stroke-miterlimit: 10;stroke-width: 4px"/>
      <path d="M218,398.36s26.13-7.27,27.05,0" style="fill: none;stroke: #c3996c;stroke-miterlimit: 10;stroke-width: 4px"/>
      <path d="M220,405.21s26.14-7.26,27.05,0" style="fill: none;stroke: #c3996c;stroke-miterlimit: 10;stroke-width: 2px"/>
      <line x1="219.51" y1="401.98" x2="221.29" y2="398.36" style="fill: none;stroke: #fff;stroke-miterlimit: 10;stroke-width: 2px"/>
      <line x1="233.5" y1="398.32" x2="231.2" y2="396.77" style="fill: none;stroke: #fff;stroke-miterlimit: 10;stroke-width: 0.5px"/>
      <line x1="237.64" y1="403.6" x2="241.46" y2="402.05" style="fill: none;stroke: #fff;stroke-miterlimit: 10;stroke-width: 0.5px"/>
      <line x1="225.76" y1="405.21" x2="226.77" y2="403.6" style="fill: none;stroke: #fff;stroke-miterlimit: 10;stroke-width: 0.5px"/>
      <line x1="219.51" y1="383.76" x2="222.6" y2="387.52" style="fill: none;stroke: #fff;stroke-miterlimit: 10;stroke-width: 0.5px"/>
      <line x1="244.32" y1="383.76" x2="242.52" y2="385.64" style="fill: none;stroke: #fff;stroke-miterlimit: 10;stroke-width: 0.5px"/>
      <line x1="232.35" y1="383.76" x2="231.23" y2="385.64" style="fill: none;stroke: #fff;stroke-miterlimit: 10;stroke-width: 0.5px"/>
      <line x1="246.56" y1="390.75" x2="244.37" y2="392.7" style="fill: none;stroke: #fff;stroke-miterlimit: 10;stroke-width: 0.5px"/>
      <line x1="232.35" y1="390.75" x2="233.48" y2="390.75" style="fill: none;stroke: #fff;stroke-miterlimit: 10;stroke-width: 0.5px"/>
      <line x1="217.37" y1="391.56" x2="219.2" y2="389.93" style="fill: none;stroke: #fff;stroke-miterlimit: 10;stroke-width: 0.5px"/>
      <line x1="237.64" y1="382.61" x2="237.64" y2="385.64" style="fill: none;stroke: #fff;stroke-miterlimit: 10;stroke-width: 0.5px"/>
      <line x1="226.26" y1="384.12" x2="228.04" y2="387.52" style="fill: none;stroke: #fff;stroke-miterlimit: 10;stroke-width: 0.5px"/>
      <line x1="233.5" y1="398.32" x2="232.35" y2="402.6" style="fill: none;stroke: #fff;stroke-miterlimit: 10;stroke-width: 0.5px"/>
      <line x1="219.51" y1="407.44" x2="219.95" y2="405.21" style="fill: none;stroke: #fff;stroke-miterlimit: 10;stroke-width: 0.5px"/>
      <line x1="225.76" y1="391.72" x2="225.76" y2="395.13" style="fill: none;stroke: #fff;stroke-miterlimit: 10;stroke-width: 0.5px"/>
      <line x1="240.23" y1="391.72" x2="240.23" y2="393.42" style="fill: none;stroke: #fff;stroke-miterlimit: 10;stroke-width: 0.5px"/>
      <line x1="250.22" y1="392.33" x2="248.18" y2="396.48" style="fill: none;stroke: #fff;stroke-miterlimit: 10;stroke-width: 0.5px"/>
      <path d="M231.26,36.81S211.67,55,216.79,70" style="fill: #231f20;stroke: #fff;stroke-miterlimit: 10;stroke-width: 0.566159546375275px"/>
      <path d="M215.81,73.48s18.35-13.89,35,0c0,0-7.76-36-21.79-37" style="fill: #231f20;stroke: #fff;stroke-miterlimit: 10;stroke-width: 0.566159546375275px"/>
      <path d="M217.16,67.16s21-12.38,30.65,0" style="fill: none;stroke: #fff;stroke-miterlimit: 10;stroke-width: 0.566159546375275px"/>
      <path d="M215.37,67.87a13.82,13.82,0,0,1,.28,6.3,25.13,25.13,0,0,1-1.88,6.09,34.36,34.36,0,0,1-3.16,5.53A34,34,0,0,0,207.17,91a17.34,17.34,0,0,0-1.66,5.87,23.68,23.68,0,0,0,.29,6.17,31.62,31.62,0,0,0,1.66,6,37.78,37.78,0,0,0,2.67,5.69A31.66,31.66,0,0,1,205,103.15a19.74,19.74,0,0,1,1.23-12.62,34.1,34.1,0,0,1,3.6-5.26,41.29,41.29,0,0,0,3.21-5.34,24.74,24.74,0,0,0,2.09-5.85A14.45,14.45,0,0,0,215.37,67.87Z" style="fill: #010101"/>
      <path d="M250.73,71.55a14.61,14.61,0,0,0,.08,6.21,24.94,24.94,0,0,0,2,5.89,41.48,41.48,0,0,0,3.11,5.4,34.26,34.26,0,0,1,3.49,5.33,19.63,19.63,0,0,1,1,12.64,31.56,31.56,0,0,1-5.3,11.45,37.31,37.31,0,0,0,2.77-5.64,31.27,31.27,0,0,0,1.78-6,24.09,24.09,0,0,0,.4-6.16,17.17,17.17,0,0,0-1.54-5.9,35,35,0,0,0-3.34-5.25A33.66,33.66,0,0,1,252.1,84a25.1,25.1,0,0,1-1.77-6.12A13.92,13.92,0,0,1,250.73,71.55Z" style="fill: #010101"/>
      <path d="M217.08,77.07a13.77,13.77,0,0,1,.41,6.29,25.68,25.68,0,0,1-1.77,6.12,34.07,34.07,0,0,1-3.06,5.59,35,35,0,0,0-3.34,5.24,17.22,17.22,0,0,0-1.54,5.9,23.64,23.64,0,0,0,.4,6.16,30.87,30.87,0,0,0,1.78,6,37.78,37.78,0,0,0,2.77,5.64,31.87,31.87,0,0,1-5.31-11.46,19.63,19.63,0,0,1,1-12.64,34.26,34.26,0,0,1,3.49-5.33,40.2,40.2,0,0,0,3.11-5.4,24.86,24.86,0,0,0,2-5.88A14.45,14.45,0,0,0,217.08,77.07Z" style="fill: #010101"/>
      <path d="M254,71.62a21.46,21.46,0,0,0,.1,9.2A37.26,37.26,0,0,0,257,89.55a58.7,58.7,0,0,0,4.64,8c.88,1.29,1.8,2.47,2.73,3.78l.69,1,.62,1a24,24,0,0,1,1.12,2.13,26.58,26.58,0,0,1,2.32,9.26,33,33,0,0,1-.85,9.46,47,47,0,0,1-7.86,17,55.74,55.74,0,0,0,4.11-8.35,46.1,46.1,0,0,0,2.63-8.85,34.55,34.55,0,0,0,.57-9.12,25.59,25.59,0,0,0-2.26-8.75,21.29,21.29,0,0,0-1.05-2l-.57-1-.65-.93c-.86-1.25-1.86-2.52-2.71-3.83A50.82,50.82,0,0,1,256,90a37.12,37.12,0,0,1-2.62-9.07,27.49,27.49,0,0,1-.23-4.71A15.39,15.39,0,0,1,254,71.62Z" style="fill: #010101"/>
      <path d="M186.86,256.74l3.77-10.67a4.62,4.62,0,0,1-1.8-3.82c0-.34,0-.68,0-1l-1-2.28a13.75,13.75,0,0,1-1.48-2.21,92,92,0,0,0-.91,18.93s-4.13,6.88-7.57,12.38a19.6,19.6,0,0,0,0,9.63s1.07,13.3,8.41,22.17a2.17,2.17,0,0,0,3.36,0S189.37,256.05,186.86,256.74Z" style="fill: #c3996c"/>
      <path d="M182.45,252.9l7.76,1,3.8-2.43h0l1.29-.88c.47-2.12,1-4.38,1.79-6.74.91-3,1.92-5.65,2.94-8.07l-18.65-.38" style="fill: #9aa5ae"/>
      <path d="M217,60.48s21-12.38,30.64,0" style="fill: none;stroke: #fff;stroke-miterlimit: 10;stroke-width: 0.566159546375275px"/>
    </g>
  </g>
</svg>
