<svg id="Layer_1" data-name="Layer 1" xmlns="http://www.w3.org/2000/svg" width="465.02" height="725.83" viewBox="0 0 465.02 725.83">
  <title>Artboard 5</title>
  <path d="M210.49,112.75C238.74,111,224,166.52,224,166.52c-6.77,32.89,3.49,90.12,16.45,115.11H207.55l-3.87-115.11-.18-.49c-21.26-56.19,7-53.28,7-53.28" style="fill: #010101;stroke: #010101;stroke-miterlimit: 10"/>
  <polyline points="211.33 189.02 211.33 183.97 223.25 180.76" style="fill: none;stroke: #231f20;stroke-miterlimit: 10"/>
  <polyline points="201.47 189.02 200.19 183.51 181.05 183.51" style="fill: none;stroke: #231f20;stroke-miterlimit: 10"/>
  <polyline points="200.56 186.02 199.28 180.51 180.15 180.51" style="fill: none;stroke: #231f20;stroke-miterlimit: 10;stroke-width: 0.5px"/>
  <polyline points="212.29 184.64 212.29 179.6 224.21 176.39" style="fill: none;stroke: #231f20;stroke-miterlimit: 10;stroke-width: 0.5px"/>
  <path d="M205.23,713.86c-19.95-14.37-17.52-16.57-17.52-16.57C201.84,647.76,199,628.5,199,628.5c-22.05-53.11-22.62-163-22.62-163-37.15-143.78-11.7-179.2-11.7-179.2a168,168,0,0,1,14.28,15.07,170.06,170.06,0,0,1,14.62,20.35s4.12,96.31.68,141.71c0,0,9.63,121.07,10.32,154.78,0,0,10.32,63.91,5.51,79.79Z" style="fill: #bb895b"/>
  <path d="M215.61,307.76a10.84,10.84,0,0,0,6.58-2,12.08,12.08,0,0,0,2.59-3.07c1.49-1.94,5.08-3.64,14.51-2.17,0,0,17.42,46.52-22,145.25,0,0-4,8.84-3.37,34.52,0,0,4.29,56.86,5.21,69.7,0,0,6.42,24.77-.92,56.87,0,0-2.58,47.69,5.13,57.78,0,0,4,24.77,6.8,36.69,0,0,.91,4.59-11,12.84H203.52L198,706l6.42-55.49.92-28c-4.31-19.54-8.18-40.72-11.23-63.4a773,773,0,0,1-6.67-83.27q1.47-13.68,2.77-27.71c1.68-18.27,2.62-31.41,3.21-39.32C193.43,408.78,200.82,308.71,215.61,307.76Z" style="fill: #c49a6c"/>
  <path d="M228.71,225.53c-2.57,28.86-12,44.41-12,44.41H195.7l-10.7-5.5-3.06-39.89" style="fill: #fff"/>
  <path d="M219.08,266.63s14.72,13.56,19.53,32.82c0,0-22.36,15.83-32.5,22H192.2s-16.19-17.2-27.88-32.33c0,0,3.78-14.45,20.46-26.14C184.78,263,217,269.65,219.08,266.63Z" style="fill: #afc8d8"/>
  <g>
    <path d="M198.12,154.19s4.13,21.47-12.38,23.33c0,0-9,15.81-9,31.54l21.79,9.29,31.87-4.57s11-39.5,6.19-36.26l-11-4.33s-8.25,6.4-11-16.41c0,0-3.44,10.42-12.38,0" style="fill: #c49a6c"/>
    <line x1="202.94" y1="157.58" x2="198.72" y2="155.78" style="fill: #c49a6c"/>
  </g>
  <path d="M212,156.68,216.72,170c1.53,2.85,9.58,2.52,16.81,2.06a17,17,0,0,1,9.69,2.4s7,0,6.12,21.41c0,0,4.58,40.06,6.42,71.7,0,0,7.56,12.83,13.75,58.23s0,3.44,0,3.44,13.07,27.52,12.39,39.9c0,0,2.75,21.32-4.82,22a95.17,95.17,0,0,1-5.93-12.56c-.61-1.58-1.17-3.13-1.66-4.64.37-2,.69-4.15.91-6.42a72.74,72.74,0,0,0-.08-14.91s-24.08-41.49-25.45-83c0,0-9-19.49-11.7-38.75s0-3.44,0-3.44q-.6-9.63-1.22-19.27l-5.76,2.23" style="fill: #c3996c"/>
  <path d="M162.09,186.16c1.22,13.15-.06,1.53-.06,1.53" style="fill: #c3996c"/>
  <path d="M221.49,228.1c9.93.15,13.17-2,14.16-4.09.62-.92,5.42-8.32,2.46-16.78-.33-.94-2.19-6.24-6.87-8.73-6.59-3.5-17.37,0-25.23,9.65C200.24,199,189,197,182.39,201.73c-4.73,3.41-6.85,10.23-5.27,17,.66,1.54,1.69,3.79,3.14,6.44,1.36,2.47,2.05,3.72,2.8,4.34,1.85,1.54,3.61,1.32,10.11,2.06,2.28.26,4.12.52,5.27.69" style="fill: #fff"/>
  <path d="M196.55,648.88H208l-6.36,63.56a25.38,25.38,0,0,1-12.89-11.89c-4.15-8.34-3.29-18.7,2-27.08Q193.65,661.17,196.55,648.88Z" style="fill: #b5b3b2;stroke: #231f20;stroke-miterlimit: 10"/>
  <path d="M160.16,393.09a399.29,399.29,0,0,0,9.89,52.1,83.94,83.94,0,0,1,3.45,49.42s3,61.85,4.11,68l11.94,38.48h.06c2.86.8,8.24,2.29,10.51.22s.89-6.57.69-7.26q1.88-4.89,3.93-9.91,4.55-11.11,9.34-21.29s2.42-45.83-2.49-51.05L209.46,499l4.15-3.63-3.37-2.72,4.27-4.56s6.94-30.11,4-32.32c0,0,.44-3.64-.42-11.6,0,0,5-10.48,1.5-16,0,0,7.48-15.68,4.64-18.89l2.91-23.61q-4.77-52.12-9.53-104.25,6.4,3.42,6.24,3.79-.42.9-41.55-17.09-1.41,1.56-2.76,3.21c-11.48,14.05-27.26,42.11-21.73,94.5" style="fill: #afc8d8;stroke: #231f20;stroke-miterlimit: 10;stroke-width: 0.25px"/>
  <path d="M224.76,270.53a26.6,26.6,0,0,1,15.42,18.21,39.9,39.9,0,0,0,2.42,8.68c1.37,3.36,2.56,4.92,4,9.27a29.34,29.34,0,0,1,1.38,5.05,28.93,28.93,0,0,1,0,8.71c0,.4-.33,5-.92,14.22-.18,2.9-.4,7.15-.46,12.38s-.43,11.06-1.14,17.2a179.85,179.85,0,0,1-4.2,23.05,172.46,172.46,0,0,1-7.5,36.1,171.43,171.43,0,0,1-8.71,21.79c-.27,1.8-.71,4.52-1.38,7.79-1.5,7.42-2.58,10-3.21,13.76a38,38,0,0,0,.92,16.05c-.12,3.5-.31,6.31-.46,8.26-.17,2.31-.4,4.74-.46,8.25,0,1.17,0,2.12,0,2.75a33.29,33.29,0,0,1,1.38,6.42,33.82,33.82,0,0,1-.46,10.55c.11,1.78.27,4.49.46,7.8.55,9.52.8,14.22.9,14.22s0-3.21,0-3.22-.16,8.13.46,15.6a104.18,104.18,0,0,0,3.66,20q-.32,4.07-.91,8.48c-.56,4.13-1.25,8-2,11.63-2.88.28-5.92.67-9.1,1.21a130.67,130.67,0,0,0-13.45,3c-.34-2-7.28-42.39-9.93-70.47-1-10.28-1.66-20.6-1.66-20.6-.52-7.67-.89-14.78-1.15-21.25a558.84,558.84,0,0,1,.39-73.68c1.4-19.62,3.74-37.82,6.57-54.41q-.19-41.81-.38-83.63a148.05,148.05,0,0,0,29.49-3.14Z" style="fill: #afc8d8;stroke: #231f20;stroke-miterlimit: 10;stroke-width: 0.25px"/>
  <path d="M190.58,275.72s-6.06,28,1.72,36.75c0,0,3.26,5.41,4.27,4.26,0,0-1.78-50.3,2.88-42.83C199.45,273.9,197.58,276.29,190.58,275.72Z" style="fill: none;stroke: #231f20;stroke-miterlimit: 10;stroke-width: 0.678212523460388px"/>
  <path d="M188.23,280.25s-12,16.49-15,1.1" style="fill: none;stroke: #231f20;stroke-miterlimit: 10;stroke-width: 0.828968078101972px"/>
  <path d="M216.21,272s3.6,18.09,18,7.55" style="fill: none;stroke: #231f20;stroke-miterlimit: 10;stroke-width: 0.808806503809854px"/>
  <path d="M179.06,266.85s8.68,4.46,45.64-.81a4.67,4.67,0,0,1,.24,3.95s-34.29,9.93-46.35.52C178.59,270.51,177.33,266.29,179.06,266.85Z" style="fill: #231f20;stroke: #231f20;stroke-miterlimit: 10;stroke-width: 0.471727030871357px"/>
  <path d="M188.33,269.52s-1.5,3.42,0,6.27c0,0,11.35,2.55,14.56-.79a6.67,6.67,0,0,0,1.84-6.48Z" style="fill: #fff;stroke: #231f20;stroke-miterlimit: 10"/>
  <path d="M212.69,266.91s3.21,3.2,2.29,6" style="fill: #fff;stroke: #fff;stroke-miterlimit: 10;stroke-width: 0.673856323931264px"/>
  <path d="M183.92,267.54s-3.21,2.67-2.29,5" style="fill: #fff;stroke: #fff;stroke-miterlimit: 10;stroke-width: 0.615143848562245px"/>
  <path d="M219.45,707.18c.82-1.15-2.88-7.27-9.39-11.93a28.85,28.85,0,0,0-20.95-5.08c-.32,1.24-.63,2.48-.94,3.72a32.64,32.64,0,0,0,1.53,4.66,33.14,33.14,0,0,0,3.75,6.71S212.28,717.28,219.45,707.18Z" style="fill: #fff;stroke: #2b2a2a;stroke-miterlimit: 10"/>
  <circle cx="193.86" cy="683.82" r="2.41" style="fill: #d75727;stroke: #231f20;stroke-miterlimit: 10"/>
  <circle cx="195.88" cy="668.96" r="2.41" style="fill: #d75727;stroke: #231f20;stroke-miterlimit: 10"/>
  <circle cx="194.7" cy="676.08" r="2.41" style="fill: #d75727;stroke: #231f20;stroke-miterlimit: 10"/>
  <line x1="193.86" y1="683.82" x2="206.77" y2="677.98" style="fill: none;stroke: #231f20;stroke-miterlimit: 10;stroke-width: 0.75px"/>
  <line x1="206" y1="685.13" x2="194.7" y2="676.08" style="fill: none;stroke: #231f20;stroke-miterlimit: 10;stroke-width: 0.75px"/>
  <line x1="207.61" y1="670.23" x2="194.7" y2="676.08" style="fill: none;stroke: #231f20;stroke-miterlimit: 10;stroke-width: 0.75px"/>
  <line x1="195.88" y1="668.96" x2="206.77" y2="677.98" style="fill: none;stroke: #231f20;stroke-miterlimit: 10;stroke-width: 0.75px"/>
  <g>
    <path d="M205.49,667.46c-.61-4.45-3.94-10.5-9.09-10.41-5.71.09-5.14,9.55.95,8.52,3.33-.57,6.2-3,8.16-5.67" style="fill: none;stroke: #231f20;stroke-miterlimit: 10;stroke-width: 0.75px"/>
    <path d="M201.62,659c1.32,4.08,5.78,10.61,10.78,7.42,2.28-1.45,2.29-4.15,1-6.29-1.92-3.17-4.87-1.69-7.38-.13-2.76,1.72-5.44,4-5.94,7.42" style="fill: none;stroke: #231f20;stroke-miterlimit: 10;stroke-width: 0.75px"/>
  </g>
  <circle cx="194.87" cy="668.86" r="2.41" style="fill: #d75727;stroke: #231f20;stroke-miterlimit: 10"/>
  <circle cx="193.3" cy="675.93" r="2.41" style="fill: #d75727;stroke: #231f20;stroke-miterlimit: 10"/>
  <circle cx="193.26" cy="683.76" r="2.41" style="fill: #d75727;stroke: #231f20;stroke-miterlimit: 10"/>
  <circle cx="206.21" cy="681.25" r="2.41" style="fill: #b5b3b2;stroke: #231f20;stroke-miterlimit: 10"/>
  <circle cx="208.21" cy="683.66" r="2.41" style="fill: #d75727;stroke: #231f20;stroke-miterlimit: 10"/>
  <circle cx="208.61" cy="668.67" r="2.41" style="fill: #d75727;stroke: #231f20;stroke-miterlimit: 10"/>
  <circle cx="208.21" cy="675.88" r="2.41" style="fill: #d75727;stroke: #231f20;stroke-miterlimit: 10"/>
  <path d="M205.46,649.07l15.08.26q2.28,8.79,4.57,17.58c2.32,16.83,4.42,28.18,6.45,35.14a7.86,7.86,0,0,1,.06,3.29c-1.49,7.87-15.41,15.34-24.6,10.76a14.53,14.53,0,0,1-6.37-6.65q.34-7.89.85-16Q203,670.52,205.46,649.07Z" style="fill: #b5b3b2;stroke: #231f20;stroke-miterlimit: 10"/>
  <circle cx="220.42" cy="668.67" r="2.41" style="fill: #d75727;stroke: #231f20;stroke-miterlimit: 10"/>
  <circle cx="220.42" cy="676.47" r="2.41" style="fill: #d75727;stroke: #231f20;stroke-miterlimit: 10"/>
  <circle cx="220.42" cy="683.66" r="2.41" style="fill: #d75727;stroke: #231f20;stroke-miterlimit: 10"/>
  <line x1="208.21" y1="683.66" x2="220.42" y2="676.47" style="fill: none;stroke: #231f20;stroke-miterlimit: 10;stroke-width: 0.75px"/>
  <line x1="220.42" y1="683.66" x2="208.21" y2="675.88" style="fill: none;stroke: #231f20;stroke-miterlimit: 10;stroke-width: 0.75px"/>
  <line x1="220.42" y1="668.67" x2="208.21" y2="675.88" style="fill: none;stroke: #231f20;stroke-miterlimit: 10;stroke-width: 0.75px"/>
  <line x1="208.61" y1="668.67" x2="220.42" y2="676.47" style="fill: none;stroke: #231f20;stroke-miterlimit: 10;stroke-width: 0.75px"/>
  <path d="M232,700.09c.1-1.77-5.59-6-12.76-6.82-10.89-1.27-18.06,7.41-18.54,8l-.11,5.6s3.17,8.41,10.43,7.89C211,714.77,231.12,715.6,232,700.09Z" style="fill: #fff;stroke: #231f20;stroke-miterlimit: 10;stroke-width: 0.75px"/>
  <g>
    <path d="M217,662.14c-1.09-4.35-5-10-10.15-9.37-5.67.71-4.09,10.05,1.85,8.37,3.26-.92,5.85-3.68,7.51-6.51" style="fill: none;stroke: #231f20;stroke-miterlimit: 10;stroke-width: 0.75px"/>
    <path d="M212.25,654.14c1.76,3.92,6.89,9.92,11.52,6.22,2.11-1.69,1.83-4.37.31-6.36-2.25-3-5-1.16-7.36.67-2.55,2-5,4.58-5.11,8" style="fill: none;stroke: #231f20;stroke-miterlimit: 10;stroke-width: 0.75px"/>
  </g>
  <circle cx="207.6" cy="668.67" r="2.41" style="fill: #d75727;stroke: #231f20;stroke-miterlimit: 10"/>
  <circle cx="206.8" cy="675.88" r="2.41" style="fill: #d75727;stroke: #231f20;stroke-miterlimit: 10"/>
  <circle cx="207.6" cy="683.66" r="2.41" style="fill: #d75727;stroke: #231f20;stroke-miterlimit: 10"/>
  <path d="M206.66,101.67s-20.64-2.75-14.22,39c0,0,2.75,16.51,14.22,22,0,0,10.09-2.3,14.67-19.26,0,0,11.47-30.8-12.38-41.77" style="fill: #c49a6c;stroke: #000;stroke-miterlimit: 10;stroke-width: 0.25px"/>
  <path d="M198.08,167.38s11,5,19,0" style="fill: #c49a6c;stroke: #000;stroke-miterlimit: 10;stroke-width: 2.06996549178228px"/>
  <path d="M256,267.25c-1.84-31.64-6.42-71.7-6.42-71.7.92-21.4-6.12-21.4-6.12-21.4a16.85,16.85,0,0,0-9.69-2.4c-5.54.35-11.55.62-14.75-.56a4.57,4.57,0,0,1-3.6,1.55h0q4.13,21.57,8.26,43.15l-4.62,50.74,12,.62c.09-22,.35-46.24,1.2-46.25.38,0,.53,4.83,1.21,9.55,2.75,19.26,11.69,38.76,11.69,38.76.52,15.63,4.26,31.26,8.72,44.67,3.3-.88,6.59-1.87,9.9-2.65a15.28,15.28,0,0,0,2.73-1.75,6.32,6.32,0,0,1,.77-.54C261.71,276.92,256,267.25,256,267.25Z" style="fill: #546a80"/>
  <path d="M265.71,311.24l-14.8,3.65s-12.92-9.5-7.34-15.9l22.14-8.11s14.42,9.91,7.21,15.14" style="fill: #9aa5ae"/>
  <path d="M158.12,303.53a33.6,33.6,0,0,1,9.18,0h0l13.9-39.35c9.22,3.46,11.9,1.34,12.66.55,1.68-1.78.85-4.51.49-12.15-.21-4.75-.12-8.7,0-11.47q-.45-9.63-.91-19.26,1.51-12,3.37-24.25c.48-3.15,1-6.27,1.47-9.38h0l.3-8.48a52.58,52.58,0,0,1,.54-5.27c-.15-.36-.31-.7-.44-1.06-.67-.3-1.33-.58-2-.85a7.5,7.5,0,0,1-1.28-.69c-2.84,3.13-7.68,6.25-15.66,5.94,0,0-18.65-4.59-17.43,8.56s0,1.53,0,1.53,2.42,63.21,7.24,67.34a482.09,482.09,0,0,0-11.89,48.39" style="fill: #546a80"/>
  <path d="M173.72,199.38s17.89,58.21,0,86" style="fill: none;stroke: #231f20;stroke-miterlimit: 10"/>
  <path d="M232.22,207.85s1.34,44.25,12.92,61.46c0,0,.85,23.67,3.69,26.86" style="fill: none;stroke: #231f20;stroke-miterlimit: 10"/>
  <path d="M193.2,442.25s26.13-7.27,27.05,0" style="fill: none;stroke: #c3996c;stroke-miterlimit: 10;stroke-width: 4px"/>
  <path d="M191.67,449.86s26.13-7.27,27.05,0" style="fill: none;stroke: #c3996c;stroke-miterlimit: 10;stroke-width: 4px"/>
  <path d="M193.64,456.72s26.13-7.27,27.05,0" style="fill: none;stroke: #c3996c;stroke-miterlimit: 10;stroke-width: 2px"/>
  <line x1="193.2" y1="453.49" x2="194.98" y2="449.86" style="fill: none;stroke: #fff;stroke-miterlimit: 10;stroke-width: 2px"/>
  <line x1="207.19" y1="449.83" x2="204.89" y2="448.28" style="fill: none;stroke: #fff;stroke-miterlimit: 10;stroke-width: 0.5px"/>
  <line x1="211.33" y1="455.11" x2="215.14" y2="453.56" style="fill: none;stroke: #fff;stroke-miterlimit: 10;stroke-width: 0.5px"/>
  <line x1="199.45" y1="456.72" x2="200.45" y2="455.11" style="fill: none;stroke: #fff;stroke-miterlimit: 10;stroke-width: 0.5px"/>
  <line x1="193.2" y1="435.26" x2="196.29" y2="439.02" style="fill: none;stroke: #fff;stroke-miterlimit: 10;stroke-width: 0.5px"/>
  <line x1="218.01" y1="435.26" x2="216.21" y2="437.14" style="fill: none;stroke: #fff;stroke-miterlimit: 10;stroke-width: 0.5px"/>
  <line x1="206.04" y1="435.26" x2="204.92" y2="437.14" style="fill: none;stroke: #fff;stroke-miterlimit: 10;stroke-width: 0.5px"/>
  <line x1="220.25" y1="442.25" x2="218.06" y2="444.21" style="fill: none;stroke: #fff;stroke-miterlimit: 10;stroke-width: 0.5px"/>
  <line x1="206.04" y1="442.25" x2="207.16" y2="442.25" style="fill: none;stroke: #fff;stroke-miterlimit: 10;stroke-width: 0.5px"/>
  <line x1="191.06" y1="443.07" x2="192.89" y2="441.44" style="fill: none;stroke: #fff;stroke-miterlimit: 10;stroke-width: 0.5px"/>
  <line x1="211.33" y1="434.12" x2="211.33" y2="437.14" style="fill: none;stroke: #fff;stroke-miterlimit: 10;stroke-width: 0.5px"/>
  <line x1="199.95" y1="435.63" x2="201.72" y2="439.02" style="fill: none;stroke: #fff;stroke-miterlimit: 10;stroke-width: 0.5px"/>
  <line x1="207.19" y1="449.83" x2="206.04" y2="454.11" style="fill: none;stroke: #fff;stroke-miterlimit: 10;stroke-width: 0.5px"/>
  <line x1="193.2" y1="458.95" x2="193.64" y2="456.72" style="fill: none;stroke: #fff;stroke-miterlimit: 10;stroke-width: 0.5px"/>
  <line x1="199.45" y1="443.23" x2="199.45" y2="446.63" style="fill: none;stroke: #fff;stroke-miterlimit: 10;stroke-width: 0.5px"/>
  <line x1="213.92" y1="443.23" x2="213.92" y2="444.93" style="fill: none;stroke: #fff;stroke-miterlimit: 10;stroke-width: 0.5px"/>
  <line x1="223.91" y1="443.84" x2="221.87" y2="447.98" style="fill: none;stroke: #fff;stroke-miterlimit: 10;stroke-width: 0.5px"/>
  <path d="M205,88.32s-19.59,18.17-14.47,33.23" style="fill: #231f20;stroke: #fff;stroke-miterlimit: 10;stroke-width: 0.566159546375275px"/>
  <path d="M189.5,125s18.35-13.89,35,0c0,0-7.77-36-21.79-37" style="fill: #231f20;stroke: #fff;stroke-miterlimit: 10;stroke-width: 0.566159546375275px"/>
  <path d="M190.85,118.67s21-12.39,30.64,0" style="fill: none;stroke: #fff;stroke-miterlimit: 10;stroke-width: 0.566159546375275px"/>
  <path d="M189.06,119.38a13.82,13.82,0,0,1,.28,6.3,25.36,25.36,0,0,1-1.88,6.08,34.89,34.89,0,0,1-3.16,5.54,33.4,33.4,0,0,0-3.44,5.17,17.17,17.17,0,0,0-1.66,5.88,23.6,23.6,0,0,0,.29,6.16,30.8,30.8,0,0,0,1.66,6,38.24,38.24,0,0,0,2.67,5.69,31.66,31.66,0,0,1-5.09-11.55A19.67,19.67,0,0,1,180,142a34.87,34.87,0,0,1,3.59-5.27,41.86,41.86,0,0,0,3.21-5.33,24.93,24.93,0,0,0,2.1-5.85A14.45,14.45,0,0,0,189.06,119.38Z" style="fill: #010101"/>
  <path d="M224.42,123.06a14.45,14.45,0,0,0,.08,6.21,24.64,24.64,0,0,0,2,5.89,40.72,40.72,0,0,0,3.11,5.39,35.1,35.1,0,0,1,3.49,5.34,19.67,19.67,0,0,1,1,12.63,31.85,31.85,0,0,1-5.3,11.46,37.78,37.78,0,0,0,2.77-5.64,32.33,32.33,0,0,0,1.78-6,24,24,0,0,0,.4-6.15,17.23,17.23,0,0,0-1.55-5.91,33.44,33.44,0,0,0-3.34-5.24,34.78,34.78,0,0,1-3.05-5.59,25.1,25.1,0,0,1-1.77-6.12A13.77,13.77,0,0,1,224.42,123.06Z" style="fill: #010101"/>
  <path d="M190.77,128.57a13.92,13.92,0,0,1,.41,6.29,25.55,25.55,0,0,1-1.77,6.12,33.66,33.66,0,0,1-3.06,5.59,34.26,34.26,0,0,0-3.34,5.25,16.94,16.94,0,0,0-1.54,5.9,23.64,23.64,0,0,0,.4,6.16,30.57,30.57,0,0,0,1.78,6,37.31,37.31,0,0,0,2.77,5.64A31.74,31.74,0,0,1,181.11,164a19.69,19.69,0,0,1,1-12.64,35,35,0,0,1,3.5-5.33,42.66,42.66,0,0,0,3.11-5.4,25.4,25.4,0,0,0,2-5.89A14.45,14.45,0,0,0,190.77,128.57Z" style="fill: #010101"/>
  <path d="M227.69,123.13a21.46,21.46,0,0,0,.1,9.2,36.51,36.51,0,0,0,2.94,8.73,57.67,57.67,0,0,0,4.64,8c.88,1.28,1.8,2.46,2.73,3.78l.69,1,.61,1a23.89,23.89,0,0,1,1.13,2.12,26.69,26.69,0,0,1,2.32,9.27,33,33,0,0,1-.85,9.46,47,47,0,0,1-7.86,17,56.71,56.71,0,0,0,4.11-8.35,47.14,47.14,0,0,0,2.63-8.86,35,35,0,0,0,.57-9.12,25.71,25.71,0,0,0-2.26-8.75,22.59,22.59,0,0,0-1.05-2l-.57-1-.65-.94c-.86-1.24-1.86-2.52-2.71-3.83a51.14,51.14,0,0,1-4.51-8.29,36.81,36.81,0,0,1-2.62-9.07,26.51,26.51,0,0,1-.23-4.71A15.27,15.27,0,0,1,227.69,123.13Z" style="fill: #010101"/>
  <path d="M160.55,308.25l3.77-10.67a4.63,4.63,0,0,1-1.8-3.83c0-.34,0-.67,0-1l-1-2.28a13.4,13.4,0,0,1-1.48-2.22,93,93,0,0,0-.92,18.94s-4.12,6.88-7.56,12.38a19.59,19.59,0,0,0,0,9.63s1.07,13.3,8.41,22.17a2.17,2.17,0,0,0,3.36,0S163.06,307.56,160.55,308.25Z" style="fill: #c3996c"/>
  <path d="M156.14,304.4l7.76,1,3.79-2.43h0l1.29-.88c.48-2.12,1.06-4.38,1.8-6.74a85.23,85.23,0,0,1,2.94-8.07l-18.65-.38" style="fill: #9aa5ae"/>
  <path d="M190.67,112s21-12.39,30.64,0" style="fill: none;stroke: #fff;stroke-miterlimit: 10;stroke-width: 0.566159546375275px"/>
</svg>
